<svg width="1280" height="720" xmlns="http://www.w3.org/2000/svg" xmlns:xlink="http://www.w3.org/1999/xlink" overflow="hidden"><g><rect x="0" y="0" width="1280" height="720" fill="#1270F8" fill-opacity="0"/><path d="M508 341C508 265.337 569.561 204 645.5 204 721.439 204 783 265.337 783 341 783 416.663 721.439 478 645.5 478 569.561 478 508 416.663 508 341ZM565.485 341C565.485 384.915 601.309 420.515 645.5 420.515 689.691 420.515 725.515 384.915 725.515 341 725.515 297.085 689.691 261.485 645.5 261.485 601.309 261.485 565.485 297.085 565.485 341Z" fill="#F16739" fill-rule="evenodd"/><path d="M154 0 138.799 0.0927198 122.959 2.13193 108.647 4.13702 90.8436 8.94193 79.1354 12.2061 60.6392 20.0203 50.8604 24.2125 37.6861 32.0262 24.534 39.8951 16.1973 46.4931 0.515598 59.0395 0 59.573 55.5496 120 55.9215 119.703 56.2744 119.337 65.9094 111.712 71.041 107.606 71.2698 107.469 71.4886 107.296 79.6292 102.468 87.8338 97.559 88.093 97.4479 88.3198 97.3133 94.3129 94.7815 105.669 89.9131 106.161 89.7758 106.597 89.5915 113.63 87.6935 124.287 84.7224 125.019 84.6197 125.754 84.4213 134.16 83.3391 143.428 82.0407 144.287 82.0355 145.166 81.9224 154 81.9762 162.834 81.9224 163.713 82.0355 164.571 82.0407 173.84 83.3391 182.246 84.4213 182.981 84.6197 183.713 84.7224 194.37 87.6935 201.403 89.5915 201.839 89.7758 202.331 89.9131 213.687 94.7815 219.68 97.3133 219.907 97.4479 220.166 97.559 228.371 102.468 236.511 107.296 236.73 107.469 236.959 107.606 242.091 111.712 251.725 119.337 252.078 119.703 252.45 120 308 59.573 307.484 59.0395 291.803 46.4931 283.466 39.8951 270.314 32.0262 257.139 24.2125 247.361 20.0203 228.865 12.2061 217.156 8.94193 199.353 4.13702 185.041 2.13193 169.2 0.0927198Z" stroke="#000000" stroke-width="2" stroke-miterlimit="8" fill="#F5E33F" fill-rule="evenodd" transform="matrix(-1 0 0 1 799 444)"/></g></svg>