<svg width="1280" height="720" xmlns="http://www.w3.org/2000/svg" xmlns:xlink="http://www.w3.org/1999/xlink" overflow="hidden"><g><rect x="0" y="0" width="1280" height="720" fill="#FFFFFF" fill-opacity="0"/><path d="M831.063 293.426 831.063 422.049 849.441 422.049C868.579 421.906 882.888 416.225 892.368 405.004 901.847 393.784 906.58 377.881 906.566 357.296 906.58 336.651 901.847 320.868 892.368 309.947 882.888 299.025 868.579 293.519 849.441 293.426ZM720.76 293.426C718.22 302.87 715.61 312.079 712.932 321.053 710.253 330.028 707.478 339.071 704.606 348.184L696.64 372.913 745.765 372.913 738.02 348.184C735.056 339.057 732.244 329.986 729.583 320.97 726.923 311.955 724.277 302.773 721.645 293.426ZM557.063 293.426 557.063 353.435 584.299 353.435C597.081 353.449 606.833 350.885 613.554 345.741 620.276 340.598 623.662 332.794 623.712 322.328 623.662 311.761 620.276 304.269 613.554 299.852 606.833 295.435 597.081 293.293 584.299 293.426ZM445.76 293.426C443.22 302.87 440.61 312.079 437.932 321.053 435.253 330.028 432.478 339.071 429.606 348.184L421.64 372.913 470.765 372.913 463.02 348.184C460.056 339.057 457.244 329.986 454.584 320.97 451.924 311.955 449.277 302.773 446.645 293.426ZM962.507 276.633 1056.1 276.633 1056.1 294.09 983.063 294.09 983.063 344.803 1044.59 344.803 1044.59 362.261 983.063 362.261 983.063 421.385 1058.54 421.385 1058.54 438.842 962.507 438.842ZM810.507 276.633 851.212 276.633C876.198 276.775 895.188 283.783 908.181 297.655 921.174 311.527 927.709 331.407 927.786 357.296 927.691 383.125 921.193 403.125 908.292 417.296 895.391 431.467 876.659 438.649 852.098 438.842L810.507 438.842ZM710.138 276.633 732.93 276.633 788.031 438.842 766.345 438.842 750.855 389.264 691.55 389.264 675.839 438.842 655.038 438.842ZM536.507 276.633 587.399 276.633C604.193 276.427 617.759 279.822 628.095 286.819 638.432 293.817 643.749 305.653 644.047 322.328 643.901 334.895 640.547 344.954 633.987 352.506 627.426 360.058 618.54 365.155 607.327 367.798L648.917 438.842 625.702 438.842 586.292 370.008 557.063 370.008 557.063 438.842 536.507 438.842ZM435.138 276.633 457.931 276.633 513.031 438.842 491.345 438.842 475.855 389.264 416.55 389.264 400.839 438.842 380.038 438.842ZM240.507 276.633 261.063 276.633 261.063 344.582 336.787 344.582 336.787 276.633 357.122 276.633 357.122 438.842 336.787 438.842 336.787 362.261 261.063 362.261 261.063 438.842 240.507 438.842ZM1139.64 273.534C1149.34 273.626 1158.28 275.486 1166.45 279.115 1174.63 282.743 1181.62 287.587 1187.44 293.648L1176.61 306.709C1171.65 302.005 1166.13 298.297 1160.04 295.585 1153.94 292.873 1147.14 291.49 1139.64 291.434 1130.33 291.517 1122.98 293.676 1117.58 297.91 1112.17 302.143 1109.42 307.954 1109.3 315.343 1109.63 323.013 1112.52 328.815 1117.96 332.749 1123.41 336.683 1129.46 339.884 1136.09 342.351L1159.34 352.314C1168.97 356.197 1176.88 361.436 1183.1 368.032 1189.31 374.627 1192.53 383.851 1192.74 395.704 1192.57 408.857 1187.62 419.736 1177.9 428.342 1168.18 436.948 1154.76 441.407 1137.64 441.72 1126.08 441.642 1115.5 439.477 1105.88 435.227 1096.27 430.976 1087.9 425.108 1080.78 417.621L1093.16 403.674C1099 409.84 1105.79 414.72 1113.51 418.313 1121.24 421.905 1129.36 423.741 1137.87 423.819 1148.59 423.709 1156.93 421.274 1162.89 416.514 1168.85 411.754 1171.87 405.334 1171.97 397.254 1171.8 389.22 1169.2 383.205 1164.19 379.211 1159.17 375.217 1152.76 371.638 1144.95 368.474L1121.48 358.291C1116.33 356.195 1111.26 353.401 1106.25 349.911 1101.23 346.421 1097.06 341.971 1093.72 336.563 1090.38 331.154 1088.65 324.523 1088.52 316.671 1088.81 303.929 1093.65 293.613 1103.04 285.722 1112.42 277.831 1124.62 273.768 1139.64 273.534ZM162.117 273.534C172.008 273.723 180.723 275.776 188.262 279.695 195.801 283.613 201.915 288.264 206.605 293.648L195.538 306.93C191.347 302.314 186.505 298.597 181.013 295.779 175.521 292.961 169.296 291.513 162.338 291.434 146.748 291.642 134.381 297.536 125.237 309.117 116.093 320.698 111.418 336.72 111.21 357.184 111.376 377.878 115.913 394.104 124.822 405.86 133.731 417.616 146.015 423.603 161.674 423.819 169.37 423.769 176.278 422.154 182.396 418.977 188.515 415.799 194.15 411.362 199.301 405.666L210.589 418.506C204.212 425.955 196.935 431.676 188.76 435.669 180.584 439.662 171.261 441.679 160.789 441.72 147.236 441.66 135.169 438.315 124.587 431.684 114.006 425.053 105.663 415.495 99.5573 403.01 93.4519 390.525 90.3365 375.471 90.2111 357.848 90.3365 340.29 93.5011 325.23 99.7049 312.67 105.909 300.11 114.4 290.464 125.178 283.734 135.956 277.003 148.269 273.603 162.117 273.534Z" stroke="#FFFFFF" stroke-linejoin="round" stroke-miterlimit="10" fill="none" fill-rule="evenodd"/><text fill="#000000" fill-opacity="0" font-family="Arial,Arial_MSFontService,sans-serif" font-size="168.186" x="90.2111" y="420.697">CHARADES</text></g></svg>