<svg width="1280" height="720" xmlns="http://www.w3.org/2000/svg" xmlns:xlink="http://www.w3.org/1999/xlink" overflow="hidden"><g><rect x="0" y="0" width="1280" height="720" fill="#FFFFFF" fill-opacity="0"/><path d="M739.556 292.85C738.763 297.893 737.863 301.784 736.854 304.522L711.781 374.121 767.979 374.121 742.69 304.522C741.897 302.288 741.033 298.398 740.096 292.85ZM439.556 292.85C438.763 297.893 437.863 301.784 436.854 304.522L411.781 374.121 467.979 374.121 442.69 304.522C441.898 302.288 441.033 298.398 440.096 292.85ZM861.729 290.688 861.729 419.727 886.045 419.727C907.3 419.727 923.889 413.927 935.813 402.328 947.737 390.728 953.699 374.481 953.699 353.587 953.699 332.693 947.575 316.986 935.327 306.467 923.078 295.948 906.976 290.688 887.018 290.688ZM561.729 290.364 561.729 349.48 587.234 349.48C597.105 349.48 605.12 346.598 611.28 340.834 617.441 335.07 620.521 327.505 620.521 318.139 620.521 309.421 617.711 302.612 612.091 297.713 606.471 292.814 598.294 290.364 587.558 290.364ZM1009.11 271.451 1095.36 271.451 1095.36 290.688 1030.73 290.688 1030.73 344.292 1090.6 344.292 1090.6 363.421 1030.73 363.421 1030.73 419.727 1099.14 419.727 1099.14 438.856 1009.11 438.856ZM840.114 271.451 887.883 271.451C913.244 271.451 934.336 278.836 951.159 293.606 967.983 308.376 976.394 328.19 976.394 353.046 976.394 378.984 967.983 399.77 951.159 415.404 934.336 431.039 912.667 438.856 886.154 438.856L840.114 438.856ZM728.749 271.451 751.876 271.451 815.639 438.856 791.755 438.856 774.68 393.033 704.973 393.033 688.87 438.856 664.986 438.856ZM540.115 271.451 591.125 271.451C607.408 271.451 620.16 275.378 629.383 283.231 638.605 291.085 643.216 302.072 643.216 316.194 643.216 339.393 630.824 354.451 606.039 361.368L606.039 361.908C610.65 363.854 614.631 366.628 617.981 370.23 621.331 373.832 625.672 379.993 631.004 388.71L662.345 438.856 636.84 438.856 609.065 392.385C603.517 383.091 598.438 376.768 593.827 373.418 589.216 370.068 583.704 368.393 577.292 368.393L561.729 368.393 561.729 438.856 540.115 438.856ZM428.749 271.451 451.876 271.451 515.639 438.856 491.755 438.856 474.68 393.033 404.973 393.033 388.87 438.856 364.986 438.856ZM213.115 271.451 234.729 271.451 234.729 344.184 319.458 344.184 319.458 271.451 341.073 271.451 341.073 438.856 319.458 438.856 319.458 363.421 234.729 363.421 234.729 438.856 213.115 438.856ZM1181.45 268.641C1198.09 268.641 1210.3 270.659 1218.09 274.694L1218.09 298.253C1208 291.265 1195.25 287.77 1179.83 287.77 1169.6 287.77 1161.26 289.914 1154.81 294.201 1148.36 298.488 1145.14 304.45 1145.14 312.087 1145.14 318.859 1147.37 324.371 1151.84 328.622 1156.3 332.873 1165.99 338.673 1180.91 346.022 1197.34 353.875 1208.83 361.728 1215.38 369.582 1221.94 377.435 1225.22 386.261 1225.22 396.059 1225.22 410.757 1219.89 422.033 1209.22 429.886 1198.56 437.74 1183.75 441.666 1164.81 441.666 1158.18 441.666 1150.45 440.748 1141.62 438.91 1132.8 437.073 1126.37 434.786 1122.33 432.048L1122.33 407.407C1127.45 411.874 1134.29 415.549 1142.87 418.431 1151.44 421.312 1159.58 422.753 1167.29 422.753 1190.78 422.753 1202.52 414.396 1202.52 397.681 1202.52 392.997 1201.26 388.783 1198.74 385.036 1196.22 381.289 1192.76 377.975 1188.37 375.093 1183.97 372.211 1175.72 367.78 1163.62 361.8 1146.83 353.443 1135.77 345.679 1130.44 338.511 1125.11 331.342 1122.44 323.146 1122.44 313.924 1122.44 300.019 1128.03 288.995 1139.19 280.854 1150.36 272.712 1164.45 268.641 1181.45 268.641ZM140.009 268.641C156.004 268.641 169.225 270.911 179.672 275.45L179.672 298.037C167.712 291.409 154.563 288.095 140.225 288.095 121.565 288.095 106.362 294.309 94.6184 306.737 82.8745 319.166 77.0025 335.935 77.0025 357.045 77.0025 377.075 82.4782 392.979 93.4296 404.759 104.381 416.539 118.719 422.429 136.443 422.429 153.014 422.429 167.424 418.683 179.672 411.19L179.672 431.94C167.351 438.424 151.897 441.666 133.309 441.666 109.316 441.666 90.1514 434.047 75.8137 418.809 61.476 403.57 54.3072 383.415 54.3072 358.342 54.3072 331.396 62.3766 309.709 78.5155 293.282 94.6544 276.855 115.152 268.641 140.009 268.641Z" stroke="#3A88F9" stroke-linejoin="round" stroke-miterlimit="10" fill="none" fill-rule="evenodd"/><text fill="#000000" fill-opacity="0" font-family="Arial,Arial_MSFontService,sans-serif" font-size="173.025" x="54.3072" y="420.038">CHARADES</text></g></svg>