<svg width="1280" height="720" xmlns="http://www.w3.org/2000/svg" xmlns:xlink="http://www.w3.org/1999/xlink" overflow="hidden"><defs><filter id="fx0" x="-10%" y="-10%" width="120%" height="120%" filterUnits="userSpaceOnUse" primitiveUnits="userSpaceOnUse"><feComponentTransfer color-interpolation-filters="sRGB"><feFuncR type="discrete" tableValues="0 0"/><feFuncG type="discrete" tableValues="0 0"/><feFuncB type="discrete" tableValues="0 0"/><feFuncA type="linear" slope="0.4" intercept="0"/></feComponentTransfer><feGaussianBlur stdDeviation="0 0"/></filter><filter id="fx1" x="-10%" y="-10%" width="120%" height="120%" filterUnits="userSpaceOnUse" primitiveUnits="userSpaceOnUse"><feComponentTransfer color-interpolation-filters="sRGB"><feFuncR type="discrete" tableValues="0 0"/><feFuncG type="discrete" tableValues="0 0"/><feFuncB type="discrete" tableValues="0 0"/><feFuncA type="linear" slope="0.4" intercept="0"/></feComponentTransfer><feGaussianBlur stdDeviation="0 0"/></filter><filter id="fx2" x="-10%" y="-10%" width="120%" height="120%" filterUnits="userSpaceOnUse" primitiveUnits="userSpaceOnUse"><feComponentTransfer color-interpolation-filters="sRGB"><feFuncR type="discrete" tableValues="0 0"/><feFuncG type="discrete" tableValues="0 0"/><feFuncB type="discrete" tableValues="0 0"/><feFuncA type="linear" slope="0.4" intercept="0"/></feComponentTransfer><feGaussianBlur stdDeviation="0 0"/></filter><filter id="fx3" x="-10%" y="-10%" width="120%" height="120%" filterUnits="userSpaceOnUse" primitiveUnits="userSpaceOnUse"><feComponentTransfer color-interpolation-filters="sRGB"><feFuncR type="discrete" tableValues="0 0"/><feFuncG type="discrete" tableValues="0 0"/><feFuncB type="discrete" tableValues="0 0"/><feFuncA type="linear" slope="0.4" intercept="0"/></feComponentTransfer><feGaussianBlur stdDeviation="0 0"/></filter><clipPath id="clip4"><rect x="84" y="54" width="927" height="130"/></clipPath><clipPath id="clip5"><rect x="63" y="41" width="840" height="72"/></clipPath></defs><g><rect x="0" y="0" width="1280" height="720" fill="#1270F8" fill-opacity="0"/><g clip-path="url(#clip4)" filter="url(#fx0)" transform="translate(31 185)"><g><path d="M43.225-91.903C38.437-97.755 28.329-106.4 21.147-112.385L8.778-100.681C15.96-94.031 25.802-84.721 30.058-78.603ZM36.575-24.339 36.575-73.15 3.99-73.15 3.99-54.663 18.088-54.663 18.088-17.689C18.088-11.305 14.364-6.517 11.172-4.256 14.231-0.665 18.886 7.448 20.349 11.97 22.876 8.512 27.797 4.256 52.934-15.561 50.939-19.418 48.013-26.999 46.816-32.186ZM72.086-18.62 72.086-24.206 102.809-24.206 102.809-18.62ZM102.809-40.964 102.809-36.176 72.086-36.176 72.086-40.964ZM121.03-54.796 54.264-54.796 54.264 12.901 72.086 12.901 72.086-6.118 102.809-6.118 102.809-5.32C102.809-3.724 102.144-3.192 100.415-3.192 98.686-3.192 92.302-3.059 87.647-3.458 89.775 1.064 92.036 8.113 92.701 12.901 101.878 12.901 108.794 12.768 114.114 10.108 119.567 7.581 121.03 3.059 121.03-4.921ZM96.824-72.086 96.824-75.677 121.163-75.677 121.163-88.312 96.824-88.312 96.824-91.903 125.153-91.903 125.153-105.336 96.824-105.336 96.824-113.715 77.672-113.715 77.672-105.336 49.609-105.336 49.609-91.903 77.672-91.903 77.672-88.312 53.466-88.312 53.466-75.677 77.672-75.677 77.672-72.086 45.486-72.086 45.486-58.52 129.409-58.52 129.409-72.086ZM173.366-89.509C169.11-95.76 159.933-104.405 152.618-110.257L137.855-99.351C145.037-92.834 153.815-83.657 157.406-77.273ZM221.246-52.136 221.246-32.851C221.246-16.625 224.039-10.906 238.403-10.906L246.782-10.906C257.289-10.906 262.077-15.694 263.939-34.048 258.752-35.245 250.639-38.304 247.181-41.363 246.782-30.191 246.25-28.595 244.654-28.595L241.994-28.595C240.398-28.595 240.265-28.994 240.265-32.984L240.265-52.136 261.545-52.136 261.545-68.628 230.024-68.628 230.024-81.928 256.092-81.928 256.092-98.021 230.024-98.021 230.024-112.917 210.872-112.917 210.872-98.021 203.424-98.021C204.355-100.548 205.153-103.075 205.818-105.602L187.597-109.592C184.671-98.154 178.952-86.583 171.637-79.534 176.026-77.273 183.74-72.219 187.331-69.16 190.39-72.618 193.316-77.007 196.109-81.928L210.872-81.928 210.872-68.628 175.228-68.628 175.228-52.136 195.976-52.136C194.114-41.363 189.592-32.186 172.967-26.201 176.824-22.743 181.612-16.226 184.006-11.305L183.607-11.571C177.888-15.029 174.43-18.088 170.972-18.886L170.972-62.244 138.653-62.244 138.653-44.422 152.485-44.422 152.485-13.699C147.165-10.64 141.712-6.65 136.658-2.128L149.426 14.763C156.342 6.384 163.79-1.862 168.711-1.862 171.637-1.862 175.893 1.995 181.479 5.32 190.523 10.374 200.764 12.236 216.724 12.236 229.758 12.236 248.378 11.438 257.954 10.773 258.087 5.719 261.146-3.857 263.141-9.044 250.373-6.916 229.492-5.719 217.256-5.719 204.488-5.719 193.715-6.251 185.469-10.507 206.882-20.083 213-34.713 215.527-52.136ZM314.68-58.653 303.907-55.993 303.907-71.953 317.074-71.953 317.074-89.642 303.907-89.642 303.907-113.582 285.154-113.582 285.154-89.642 271.455-89.642 271.455-71.953 285.154-71.953 285.154-51.471C279.302-50.141 273.849-48.944 269.327-48.013L273.317-29.526 285.154-32.585 285.154-7.315C285.154-5.586 284.622-5.054 283.026-5.054 281.43-4.921 276.775-4.921 272.785-5.187 275.046 0 277.307 7.98 277.839 12.901 286.75 12.901 293.134 12.369 297.922 9.31 302.577 6.251 303.907 1.463 303.907-7.182L303.907-37.639C308.296-38.836 312.685-40.166 317.074-41.363ZM364.156-29.127 387.165-29.127 387.165-45.885 364.156-45.885 364.156-55.594 344.738-55.594 344.738-45.885 321.197-45.885 321.197-29.127 344.738-29.127 344.738-22.477 314.68-22.477 314.68-5.453 344.738-5.453 344.738 12.635 364.156 12.635 364.156-5.453 395.012-5.453 395.012-22.477 364.156-22.477ZM363.491-92.435C360.964-89.509 358.038-86.849 354.846-84.322 351.92-86.849 349.127-89.509 346.733-92.435ZM378.919-109.991 375.993-109.326 320.266-109.326 320.266-92.435 327.98-92.435C331.704-86.051 336.226-80.199 341.147-74.879 332.236-69.958 322.394-65.968 312.153-63.308 315.611-59.717 320-52.535 321.995-48.013 333.433-51.737 344.605-56.791 354.447-63.308 363.89-56.525 374.796-51.205 387.165-47.747 389.559-52.535 394.879-59.983 398.869-63.84 387.83-66.101 377.855-69.825 369.077-74.613 378.121-82.859 385.436-92.568 390.49-104.006ZM404.655-62.377 404.655-41.23 528.611-41.23 528.611-62.377ZM589.459 12.369 609.675 12.369 609.675-68.495 589.459-68.495ZM599.035-113.981C585.336-91.105 560.997-76.342 535.461-67.564 540.914-62.244 546.633-54.53 549.692-48.412 568.312-56.924 586.134-68.362 600.498-84.056 622.975-62.377 638.802-53.599 650.772-48.279 653.698-54.796 659.683-62.377 665.003-66.899 652.368-70.756 634.679-79.135 612.335-99.085 613.798-101.213 615.128-103.474 616.458-105.735ZM710.557-92.036C705.769-97.888 695.927-106.134 688.878-111.72L676.775-100.016C683.824-93.765 693.267-84.854 697.523-79.002ZM703.375-24.339 703.375-73.15 671.189-73.15 671.189-54.663 685.287-54.663 685.287-18.487C685.287-10.507 680.632-4.256 677.174-1.33 680.1 1.197 685.553 7.581 687.282 11.172 689.809 7.714 694.464 3.724 718.67-15.428 716.941-19.152 714.68-26.866 713.483-32.053ZM767.747-83.657 717.34-83.657 717.34-67.697 767.747-67.697ZM747.531-44.023 747.531-31.521 737.423-31.521 737.423-44.023ZM764.555-15.428 764.555-60.116 720.665-60.116 720.665-7.98 737.423-7.98 737.423-15.428ZM791.022-108.262 715.345-108.262 715.345-90.573 772.668-90.573 772.668-9.044C772.668-6.783 771.87-5.985 769.476-5.985 767.082-5.985 758.969-5.852 752.319-6.384 754.979-1.463 757.639 7.448 758.304 12.635 769.875 12.635 777.855 12.236 783.574 9.177 789.293 5.985 791.022 0.798 791.022-8.778ZM843.225-92.169C838.57-98.021 828.329-106.799 821.147-112.651L808.778-100.947C816.093-94.43 825.802-84.987 830.058-78.869ZM902.144-21.014 902.144-7.98 868.894-7.98 868.894-21.014ZM850.54-16.359C849.343-20.216 848.279-24.738 847.747-28.196L836.309-20.615 836.309-73.416 803.99-73.416 803.99-54.929 818.354-54.929 818.354-18.221C818.354-11.97 814.497-6.783 811.438-4.389 814.63-0.665 819.418 7.581 821.014 12.103 823.541 9.044 828.063 5.453 850.54-10.241L850.54 12.502 868.894 12.502 868.894 8.512 902.144 8.512 902.144 12.103 921.429 12.103 921.429-37.506 850.54-37.506ZM884.189-69.426 898.42-69.426C898.287-66.633 898.021-63.707 897.888-60.781L882.327-60.781ZM916.109-60.781C916.774-68.495 917.439-77.007 917.572-85.519L904.006-86.317 901.08-85.652 887.514-85.652 888.844-92.967 925.419-92.967 925.419-109.725 846.284-109.725 846.284-92.967 869.426-92.967C869.027-90.573 868.495-88.046 868.096-85.652L850.673-85.652 850.673-69.426 864.771-69.426C864.106-66.5 863.441-63.574 862.776-60.781L841.629-60.781 841.629-43.491 929.675-43.491 929.675-60.781Z" transform="translate(80.8817 169)"/></g></g><text font-family="Source Han Sans SC Heavy,Source Han Sans SC Heavy_MSFontService,sans-serif" font-weight="900" font-size="133" transform="translate(106.225 348)">请选择一个词语</text><g filter="url(#fx1)" transform="translate(29 382)"><g><path d="M0.828426 26.8284 353.388 26.8285" stroke="#000000" stroke-width="2" stroke-miterlimit="8" fill="none" fill-rule="evenodd"/><path d="M52.8284 0.82843 52.8285 52.412" stroke="#000000" stroke-width="2" stroke-miterlimit="8" fill="none" fill-rule="evenodd"/></g></g><path d="M27 406 379.559 406" stroke="#000000" stroke-width="2.33333" stroke-miterlimit="8" fill="none" fill-rule="evenodd"/><path d="M79 380 79.0001 431.584" stroke="#000000" stroke-width="2.33333" stroke-miterlimit="8" fill="none" fill-rule="evenodd"/><g filter="url(#fx2)" transform="translate(14 167)"><g><path d="M24.2712 0.77124C24.2712 18.4444 34.7925 32.7712 47.7712 32.7712 34.7925 32.7712 24.2712 47.0981 24.2712 64.7712 24.2712 47.0981 13.7499 32.7712 0.771236 32.7712 13.7499 32.7712 24.2712 18.4444 24.2712 0.77124Z" fill-rule="evenodd"/></g></g><path d="M34.5 164C34.5 181.673 45.0213 196 58 196 45.0213 196 34.5 210.327 34.5 228 34.5 210.327 23.9787 196 11 196 23.9787 196 34.5 181.673 34.5 164Z" fill-rule="evenodd"/><g clip-path="url(#clip5)" filter="url(#fx3)" transform="translate(60 384)"><g><path d="M8.9 0 17.177 0 17.177-25.899 27.946-25.899C42.186-25.899 51.976-32.307 51.976-46.102 51.976-60.342 42.186-65.237 27.501-65.237L8.9-65.237ZM17.177-32.574 17.177-58.562 26.522-58.562C38.003-58.562 43.788-55.536 43.788-46.102 43.788-36.757 38.359-32.574 26.878-32.574ZM73.232 1.157C75.368 1.157 76.792 0.89 77.949 0.445L76.792-5.785C75.902-5.607 75.546-5.607 75.101-5.607 73.855-5.607 72.787-6.586 72.787-9.078L72.787-70.844 64.688-70.844 64.688-9.612C64.688-2.759 67.18 1.157 73.232 1.157ZM109.679 1.157C116.265 1.157 121.427-1.068 125.699-3.827L122.762-9.167C119.202-6.764 115.375-5.34 110.658-5.34 101.491-5.34 95.172-11.926 94.638-22.25L127.212-22.25C127.39-23.407 127.568-25.098 127.568-26.878 127.568-40.673 120.626-49.573 108.344-49.573 97.13-49.573 86.539-39.783 86.539-24.119 86.539-8.188 96.863 1.157 109.679 1.157ZM94.549-28.035C95.528-37.558 101.58-43.076 108.433-43.076 115.998-43.076 120.448-37.825 120.448-28.035ZM149.386 1.157C155.349 1.157 160.778-1.958 165.406-5.785L165.673-5.785 166.385 0 173.06 0 173.06-29.726C173.06-41.652 168.076-49.573 156.328-49.573 148.585-49.573 141.732-46.102 137.282-43.254L140.486-37.647C144.313-40.228 149.386-42.809 154.993-42.809 162.914-42.809 164.961-36.846 164.961-30.616 144.402-28.302 135.235-23.051 135.235-12.549 135.235-3.827 141.287 1.157 149.386 1.157ZM151.7-5.34C146.894-5.34 143.156-7.565 143.156-13.083 143.156-19.313 148.674-23.318 164.961-25.276L164.961-11.748C160.244-7.565 156.417-5.34 151.7-5.34ZM201.233 1.157C212.625 1.157 218.855-5.34 218.855-13.172 218.855-22.339 211.112-25.187 204.081-27.857 198.652-29.904 193.401-31.595 193.401-36.223 193.401-39.961 196.16-43.165 202.212-43.165 206.573-43.165 209.955-41.385 213.337-38.893L217.253-44.144C213.426-47.081 208.175-49.573 202.212-49.573 191.71-49.573 185.569-43.521 185.569-35.867 185.569-27.679 193.223-24.386 199.987-21.894 205.327-19.847 211.023-17.622 211.023-12.727 211.023-8.544 207.908-5.162 201.5-5.162 195.715-5.162 191.354-7.476 187.171-10.858L183.166-5.518C187.794-1.691 194.38 1.157 201.233 1.157ZM249.919 1.157C256.505 1.157 261.667-1.068 265.939-3.827L263.002-9.167C259.442-6.764 255.615-5.34 250.898-5.34 241.731-5.34 235.412-11.926 234.878-22.25L267.452-22.25C267.63-23.407 267.808-25.098 267.808-26.878 267.808-40.673 260.866-49.573 248.584-49.573 237.37-49.573 226.779-39.783 226.779-24.119 226.779-8.188 237.103 1.157 249.919 1.157ZM234.789-28.035C235.768-37.558 241.82-43.076 248.673-43.076 256.238-43.076 260.688-37.825 260.688-28.035ZM326.272 1.157C335.083 1.157 342.292-2.047 346.475-6.408L346.475-33.82 325.115-33.82 325.115-26.967 338.91-26.967 338.91-9.879C336.329-7.476 331.79-6.052 327.073-6.052 313.1-6.052 305.357-16.376 305.357-32.841 305.357-49.128 313.901-59.274 326.984-59.274 333.659-59.274 337.842-56.515 341.135-53.044L345.585-58.384C341.847-62.389 335.884-66.483 326.806-66.483 309.54-66.483 296.902-53.667 296.902-32.574 296.902-11.392 309.095 1.157 326.272 1.157ZM375.49 1.157C382.165 1.157 386.971-2.314 391.51-7.565L391.777-7.565 392.4 0 399.164 0 399.164-48.327 391.065-48.327 391.065-14.062C386.437-8.277 382.966-5.874 377.982-5.874 371.574-5.874 368.904-9.701 368.904-18.69L368.904-48.327 360.805-48.327 360.805-17.711C360.805-5.429 365.344 1.157 375.49 1.157ZM435.086 1.157C441.672 1.157 446.834-1.068 451.106-3.827L448.169-9.167C444.609-6.764 440.782-5.34 436.065-5.34 426.898-5.34 420.579-11.926 420.045-22.25L452.619-22.25C452.797-23.407 452.975-25.098 452.975-26.878 452.975-40.673 446.033-49.573 433.751-49.573 422.537-49.573 411.946-39.783 411.946-24.119 411.946-8.188 422.27 1.157 435.086 1.157ZM419.956-28.035C420.935-37.558 426.987-43.076 433.84-43.076 441.405-43.076 445.855-37.825 445.855-28.035ZM477.733 1.157C489.125 1.157 495.355-5.34 495.355-13.172 495.355-22.339 487.612-25.187 480.581-27.857 475.152-29.904 469.901-31.595 469.901-36.223 469.901-39.961 472.66-43.165 478.712-43.165 483.073-43.165 486.455-41.385 489.837-38.893L493.753-44.144C489.926-47.081 484.675-49.573 478.712-49.573 468.21-49.573 462.069-43.521 462.069-35.867 462.069-27.679 469.723-24.386 476.487-21.894 481.827-19.847 487.523-17.622 487.523-12.727 487.523-8.544 484.408-5.162 478-5.162 472.215-5.162 467.854-7.476 463.671-10.858L459.666-5.518C464.294-1.691 470.88 1.157 477.733 1.157ZM519.566 1.157C530.958 1.157 537.188-5.34 537.188-13.172 537.188-22.339 529.445-25.187 522.414-27.857 516.985-29.904 511.734-31.595 511.734-36.223 511.734-39.961 514.493-43.165 520.545-43.165 524.906-43.165 528.288-41.385 531.67-38.893L535.586-44.144C531.759-47.081 526.508-49.573 520.545-49.573 510.043-49.573 503.902-43.521 503.902-35.867 503.902-27.679 511.556-24.386 518.32-21.894 523.66-19.847 529.356-17.622 529.356-12.727 529.356-8.544 526.241-5.162 519.833-5.162 514.048-5.162 509.687-7.476 505.504-10.858L501.499-5.518C506.127-1.691 512.713 1.157 519.566 1.157ZM577.572-26.522 580.776-36.49C583.09-43.877 585.226-50.908 587.273-58.562L587.629-58.562C589.765-50.997 591.812-43.877 594.215-36.49L597.33-26.522ZM605.607 0 614.329 0 592.168-65.237 583.001-65.237 560.84 0 569.206 0 575.525-19.936 599.377-19.936ZM650.849 0 660.639 0 670.34-39.338C671.408-44.5 672.565-49.217 673.633-54.201L673.989-54.201C675.057-49.217 676.036-44.5 677.193-39.338L687.072 0 696.951 0 710.479-65.237 702.558-65.237 695.705-29.726C694.459-22.784 693.213-15.753 691.967-8.633L691.522-8.633C690.009-15.753 688.496-22.784 686.894-29.726L677.727-65.237 670.251-65.237 661.262-29.726C659.66-22.695 658.058-15.664 656.545-8.633L656.189-8.633C654.943-15.664 653.608-22.695 652.362-29.726L645.509-65.237 636.965-65.237ZM740.207 1.157C752.044 1.157 762.635-8.099 762.635-24.119 762.635-40.228 752.044-49.573 740.207-49.573 728.37-49.573 717.779-40.228 717.779-24.119 717.779-8.099 728.37 1.157 740.207 1.157ZM740.207-5.607C731.841-5.607 726.234-12.994 726.234-24.119 726.234-35.244 731.841-42.809 740.207-42.809 748.573-42.809 754.269-35.244 754.269-24.119 754.269-12.994 748.573-5.607 740.207-5.607ZM775.595 0 783.694 0 783.694-31.061C786.898-39.338 791.882-42.186 795.887-42.186 797.845-42.186 799.002-42.008 800.604-41.385L802.117-48.505C800.604-49.306 799.091-49.573 796.955-49.573 791.526-49.573 786.631-45.657 783.249-39.516L782.982-39.516 782.27-48.327 775.595-48.327ZM825.746 1.157C831.531 1.157 836.604-1.958 840.431-5.696L840.609-5.696 841.41 0 847.996 0 847.996-70.844 839.897-70.844 839.897-52.243 840.342-43.877C836.07-47.437 832.421-49.573 826.725-49.573 815.689-49.573 805.81-39.783 805.81-24.119 805.81-8.01 813.642 1.157 825.746 1.157ZM827.526-5.607C818.982-5.607 814.176-12.549 814.176-24.208 814.176-35.244 820.317-42.72 828.149-42.72 832.154-42.72 835.803-41.296 839.897-37.647L839.897-12.282C835.892-7.832 831.976-5.607 827.526-5.607Z" transform="translate(54.7096 112)"/></g></g><text font-family="Source Han Sans SC Regular,Source Han Sans SC Regular_MSFontService,sans-serif" font-weight="400" font-size="89" transform="translate(109.996 492)">Please Guess A Word</text></g></svg>