<svg width="1280" height="720" xmlns="http://www.w3.org/2000/svg" xmlns:xlink="http://www.w3.org/1999/xlink" overflow="hidden"><g><rect x="0" y="0" width="1280" height="720" fill="#FFFFFF" fill-opacity="0"/><path d="M959.669 73.7376C948.756 75.8582 928.192 83.8915 913.979 91.5842 883.372 108.156 871.345 108.796 833.236 95.8767 806.619 86.8543 801.055 86.5322 753.717 91.2757 678.179 98.8487 584.954 97.8228 548.682 89.0262 523.625 82.9484 513.775 82.5851 492.746 86.9464 476.821 90.2498 405.164 92.5868 302.232 93.1623 141.759 94.0545 136.723 94.3538 118.244 104.236 93.8593 117.275 62.7275 152.628 56.7764 174.026 54.2311 183.196 52.1367 208.086 52.1231 229.342 52.0998 261.92 50.1533 271.964 39.7283 293.266 23.8313 325.738 22.7312 366.138 36.9576 394.884 45.7488 412.644 45.9878 415.441 39.7516 427.927 35.2273 437.005 33.0364 455.026 33.2114 481.762 33.4412 516.332 35.2685 525.469 46.2869 547.061 60.5967 575.112 88.746 599.432 115.496 606.858 125.972 609.766 203.608 611.629 315.091 611.643 487.002 611.671 498.698 612.195 517.605 620.771 545.768 633.547 586.28 633.009 615.911 619.464 632.209 612.02 642.956 609.858 652.732 612.066 660.326 613.782 689.322 615.457 717.168 615.793 749.271 616.18 775.206 618.986 788.052 623.458 816.381 633.317 924.109 628.588 954.491 616.152 973.978 608.174 976.965 608.068 995.914 614.652 1011.53 620.081 1030.43 621.332 1076.17 619.961 1130.53 618.333 1138.32 616.998 1161.32 605.372 1175.24 598.337 1191.51 588.077 1197.47 582.57 1244.16 539.493 1267.96 436.696 1242.82 386.672 1232.78 366.672 1232.23 311.057 1241.86 288.021 1246.14 277.78 1248.77 256.795 1248.77 232.774 1248.77 199.322 1247.02 190.695 1235.91 169.448 1221.55 141.958 1193.19 117.675 1166.95 110.392 1157.52 107.774 1131.76 105.621 1109.7 105.608 1073.09 105.58 1067.69 104.379 1047.9 91.8327 1035.97 84.2731 1018.82 76.8478 1009.77 75.3293 1000.72 73.8113 990.216 71.9663 986.419 71.2252 982.622 70.489 970.586 71.6166 959.669 73.7376" fill="#F5E33F" fill-rule="evenodd"/></g></svg>