<svg width="1280" height="720" xmlns="http://www.w3.org/2000/svg" xmlns:xlink="http://www.w3.org/1999/xlink" overflow="hidden"><defs><clipPath id="clip0"><rect x="0" y="0" width="1280" height="720"/></clipPath></defs><g clip-path="url(#clip0)"><rect x="0" y="0" width="1280" height="720" fill="#1270F8"/><path d="M0 487 154.517 487 182.483 450.964C348.721 251.401 587.671 119.073 858.272 99.9514 874.42 98.8103 890.508 98.0847 906.526 97.7659 938.562 97.1279 970.319 98.1175 1001.72 100.667L1042 104.957 1042 22.8966 1005.85 15.3496C944.645 4.14641 881.69-1.08795 817.618 0.187911 801.6 0.506741 785.512 1.23231 769.364 2.37349 454.483 24.6247 182.459 200.161 17.9885 456.552Z" fill="#F5E33F" fill-rule="evenodd" transform="matrix(1 0 0 -1 238 484)"/><path d="M290.482 682 0 682 18.5724 638.417C149.421 361.085 382.013 140.257 669.994 25.518L742 0 742 279.132 725.519 285.924C542.145 369.201 390.348 508.342 291.006 681.012Z" fill="#50C16D" fill-rule="evenodd" transform="matrix(1 -1.22465e-16 -1.22465e-16 -1 538 687)"/></g></svg>