<svg width="1280" height="720" xmlns="http://www.w3.org/2000/svg" xmlns:xlink="http://www.w3.org/1999/xlink" overflow="hidden"><defs><filter id="fx0" x="-10%" y="-10%" width="120%" height="120%" filterUnits="userSpaceOnUse" primitiveUnits="userSpaceOnUse"><feComponentTransfer color-interpolation-filters="sRGB"><feFuncR type="discrete" tableValues="0 0"/><feFuncG type="discrete" tableValues="0 0"/><feFuncB type="discrete" tableValues="0 0"/><feFuncA type="linear" slope="0.4" intercept="0"/></feComponentTransfer><feGaussianBlur stdDeviation="0 0"/></filter><filter id="fx1" x="-10%" y="-10%" width="120%" height="120%" filterUnits="userSpaceOnUse" primitiveUnits="userSpaceOnUse"><feComponentTransfer color-interpolation-filters="sRGB"><feFuncR type="discrete" tableValues="0 0"/><feFuncG type="discrete" tableValues="0 0"/><feFuncB type="discrete" tableValues="0 0"/><feFuncA type="linear" slope="0.4" intercept="0"/></feComponentTransfer><feGaussianBlur stdDeviation="0 0"/></filter><filter id="fx2" x="-10%" y="-10%" width="120%" height="120%" filterUnits="userSpaceOnUse" primitiveUnits="userSpaceOnUse"><feComponentTransfer color-interpolation-filters="sRGB"><feFuncR type="discrete" tableValues="0 0"/><feFuncG type="discrete" tableValues="0 0"/><feFuncB type="discrete" tableValues="0 0"/><feFuncA type="linear" slope="0.4" intercept="0"/></feComponentTransfer><feGaussianBlur stdDeviation="0 0"/></filter><filter id="fx3" x="-10%" y="-10%" width="120%" height="120%" filterUnits="userSpaceOnUse" primitiveUnits="userSpaceOnUse"><feComponentTransfer color-interpolation-filters="sRGB"><feFuncR type="discrete" tableValues="0 0"/><feFuncG type="discrete" tableValues="0 0"/><feFuncB type="discrete" tableValues="0 0"/><feFuncA type="linear" slope="0.4" intercept="0"/></feComponentTransfer><feGaussianBlur stdDeviation="0 0"/></filter><clipPath id="clip4"><rect x="83" y="54" width="794" height="128"/></clipPath><clipPath id="clip5"><rect x="63" y="41" width="765" height="72"/></clipPath></defs><g><rect x="0" y="0" width="1280" height="720" fill="#1270F8" fill-opacity="0"/><g clip-path="url(#clip4)" filter="url(#fx0)" transform="translate(31 185)"><g><path d="M45.087-57.988 34.58-55.328 34.58-71.687 45.353-71.687 45.353-89.376 34.58-89.376 34.58-113.582 17.024-113.582 17.024-89.376 4.522-89.376 4.522-71.687 17.024-71.687 17.024-51.205C11.571-49.875 6.517-48.811 2.261-48.013L6.251-29.526 17.024-32.319 17.024-9.576C17.024-7.847 16.492-7.315 14.896-7.315 13.3-7.315 8.911-7.315 4.655-7.448 6.916-2.394 9.044 5.586 9.443 10.374 18.088 10.374 24.339 9.709 28.861 6.65 33.383 3.724 34.58-1.064 34.58-9.443L34.58-37.107C38.969-38.304 43.225-39.501 47.481-40.698ZM78.736-46.55 78.736-37.107 69.027-37.107 69.027-46.55ZM106.267-37.107 95.893-37.107 95.893-46.55 106.267-46.55ZM95.893-11.172 95.893-20.881 106.267-20.881 106.267-11.172ZM69.027-20.881 78.736-20.881 78.736-11.172 69.027-11.172ZM51.604 11.571 69.027 11.571 69.027 5.586 106.267 5.586 106.267 10.906 124.621 10.906 124.621-63.308 51.604-63.308ZM113.715-97.356 113.715-113.715 94.962-113.715 94.962-97.356 79.933-97.356 79.933-113.715 61.446-113.715 61.446-97.356 48.013-97.356 48.013-80.066 61.446-80.066 61.446-66.367 79.933-66.367 79.933-80.066 94.962-80.066 94.962-66.367 113.715-66.367 113.715-80.066 128.345-80.066 128.345-97.356ZM208.611-11.97 228.029-11.97 228.029-50.939C236.142-40.964 243.856-30.723 247.846-23.275L262.609-34.447C256.225-45.22 242.393-60.648 230.955-72.884L259.816-72.884 259.816-90.706 247.713-90.706 259.018-97.622C256.092-102.011 249.974-108.927 245.851-113.848L230.689-105.203C234.014-100.814 238.403-95.095 241.329-90.706L228.029-90.706 228.029-112.518 208.611-112.518 208.611-90.706 175.361-90.706 175.361-72.884 199.7-72.884C193.582-56.658 184.139-41.23 172.967-31.787 177.09-28.462 183.208-21.812 186.267-17.423 195.178-25.935 202.626-37.772 208.611-51.072ZM172.568-82.859C168.578-90.041 159.8-100.681 153.15-108.262L137.855-99.351C144.505-91.105 152.751-79.8 156.076-72.618ZM171.371-65.835 137.722-65.835 137.722-48.013 152.884-48.013 152.884-16.891C147.032-14.231 140.914-9.842 135.195-4.655L147.032 12.369C152.485 5.187 159.268-3.059 163.923-3.059 167.381-3.059 171.903 0.399 178.553 3.458 188.927 8.246 200.631 9.842 216.724 9.842 229.891 9.842 250.107 9.044 258.353 8.379 258.619 3.325 261.545-5.719 263.54-10.64 250.639-8.645 229.891-7.448 217.389-7.448 203.424-7.448 190.656-8.379 181.346-12.635 177.09-14.497 174.031-16.359 171.371-17.689ZM270.79-98.42C277.174-91.77 285.287-82.46 288.612-76.475L305.104-88.046C301.114-94.164 292.469-102.809 286.085-108.794ZM390.224-26.467C383.574-32.718 373.732-40.432 363.092-48.279 368.678-56.791 373.2-66.5 376.791-77.672L392.618-77.672 392.618-95.627 359.235-95.627C357.905-101.08 354.181-108.927 350.723-114.912L332.103-109.06C334.098-105.07 336.226-100.016 337.689-95.627L305.104-95.627 305.104-77.672 356.708-77.672C354.447-70.889 351.521-64.638 347.93-59.185 338.753-65.569 329.576-71.82 321.995-77.007L308.961-65.569C317.34-59.717 326.783-52.668 336.226-45.619 328.113-38.304 318.005-32.851 305.636-28.861 308.828-25.27 313.749-17.822 316.01-13.433 315.079-13.832 314.148-14.231 313.217-14.763 309.493-16.625 306.7-18.354 304.306-19.684L304.306-64.638 271.987-64.638 271.987-46.816 285.819-46.816 285.819-19.152C280.1-16.492 273.982-11.97 268.396-6.517L281.829 12.768C286.351 5.453 292.336-3.591 296.459-3.591 299.518-3.591 304.173 0.133 310.557 3.458 320.532 8.379 331.704 10.108 348.462 10.108 362.161 10.108 381.845 9.31 390.889 8.645 391.155 3.059 394.347-7.049 396.608-12.635 383.308-10.374 361.496-9.044 349.26-9.044 337.29-9.044 326.384-9.576 318.005-12.635 331.172-17.955 342.211-25.004 351.255-33.915 361.097-26.068 369.875-18.62 375.727-12.502ZM404.655-62.377 404.655-41.23 528.611-41.23 528.611-62.377ZM577.223-92.036C572.435-97.888 562.593-106.134 555.544-111.72L543.441-100.016C550.49-93.765 559.933-84.854 564.189-79.002ZM570.041-24.339 570.041-73.15 537.855-73.15 537.855-54.663 551.953-54.663 551.953-18.487C551.953-10.507 547.298-4.256 543.84-1.33 546.766 1.197 552.219 7.581 553.948 11.172 556.475 7.714 561.13 3.724 585.336-15.428 583.607-19.152 581.346-26.866 580.149-32.053ZM634.413-83.657 584.006-83.657 584.006-67.697 634.413-67.697ZM614.197-44.023 614.197-31.521 604.089-31.521 604.089-44.023ZM631.221-15.428 631.221-60.116 587.331-60.116 587.331-7.98 604.089-7.98 604.089-15.428ZM657.688-108.262 582.011-108.262 582.011-90.573 639.334-90.573 639.334-9.044C639.334-6.783 638.536-5.985 636.142-5.985 633.748-5.985 625.635-5.852 618.985-6.384 621.645-1.463 624.305 7.448 624.97 12.635 636.541 12.635 644.521 12.236 650.24 9.177 655.959 5.985 657.688 0.798 657.688-8.778ZM688.612 10.64C696.459-2.66 704.04-17.024 710.823-30.989L696.326-43.624C688.479-28.063 678.77-12.103 671.987-2.128ZM704.439-59.052C699.119-63.973 688.213-70.756 680.499-75.012L669.061-61.845C676.908-56.924 687.415-49.343 692.203-44.289ZM675.977-97.755C683.691-92.701 693.932-84.987 698.587-79.8L711.222-94.031C706.168-99.085 695.528-106.134 687.947-110.523ZM731.438-11.837 731.438-87.381 793.416-87.381 793.416-106.267 711.222-106.267 711.222 7.049 795.81 7.049 795.81-11.837Z" transform="translate(80.8817 169)"/></g></g><text font-family="Source Han Sans SC Heavy,Source Han Sans SC Heavy_MSFontService,sans-serif" font-weight="900" font-size="133" transform="translate(106.225 348)">描述这一词汇</text><g filter="url(#fx1)" transform="translate(29 382)"><g><path d="M0.828426 26.8284 353.388 26.8285" stroke="#000000" stroke-width="2" stroke-miterlimit="8" fill="none" fill-rule="evenodd"/><path d="M52.8284 0.82843 52.8285 52.412" stroke="#000000" stroke-width="2" stroke-miterlimit="8" fill="none" fill-rule="evenodd"/></g></g><path d="M27 406 379.559 406" stroke="#000000" stroke-width="2.33333" stroke-miterlimit="8" fill="none" fill-rule="evenodd"/><path d="M79 380 79.0001 431.584" stroke="#000000" stroke-width="2.33333" stroke-miterlimit="8" fill="none" fill-rule="evenodd"/><g filter="url(#fx2)" transform="translate(14 167)"><g><path d="M24.2712 0.77124C24.2712 18.4444 34.7925 32.7712 47.7712 32.7712 34.7925 32.7712 24.2712 47.0981 24.2712 64.7712 24.2712 47.0981 13.7499 32.7712 0.771236 32.7712 13.7499 32.7712 24.2712 18.4444 24.2712 0.77124Z" fill-rule="evenodd"/></g></g><path d="M34.5 164C34.5 181.673 45.0213 196 58 196 45.0213 196 34.5 210.327 34.5 228 34.5 210.327 23.9787 196 11 196 23.9787 196 34.5 181.673 34.5 164Z" fill-rule="evenodd"/><g clip-path="url(#clip5)" filter="url(#fx3)" transform="translate(60 384)"><g><path d="M8.9 0 25.632 0C45.301 0 56.07-12.193 56.07-32.841 56.07-53.578 45.301-65.237 25.276-65.237L8.9-65.237ZM17.177-6.764 17.177-58.562 24.564-58.562C39.961-58.562 47.526-49.395 47.526-32.841 47.526-16.376 39.961-6.764 24.564-6.764ZM89.0123 1.157C95.5983 1.157 100.76-1.068 105.032-3.827L102.095-9.167C98.5353-6.764 94.7083-5.34 89.9913-5.34 80.8243-5.34 74.5053-11.926 73.9713-22.25L106.545-22.25C106.723-23.407 106.901-25.098 106.901-26.878 106.901-40.673 99.9593-49.573 87.6773-49.573 76.4633-49.573 65.8723-39.783 65.8723-24.119 65.8723-8.188 76.1963 1.157 89.0123 1.157ZM73.8823-28.035C74.8613-37.558 80.9133-43.076 87.7663-43.076 95.3313-43.076 99.7813-37.825 99.7813-28.035ZM131.659 1.157C143.051 1.157 149.281-5.34 149.281-13.172 149.281-22.339 141.538-25.187 134.507-27.857 129.078-29.904 123.827-31.595 123.827-36.223 123.827-39.961 126.586-43.165 132.638-43.165 136.999-43.165 140.381-41.385 143.763-38.893L147.679-44.144C143.852-47.081 138.601-49.573 132.638-49.573 122.136-49.573 115.995-43.521 115.995-35.867 115.995-27.679 123.649-24.386 130.413-21.894 135.753-19.847 141.449-17.622 141.449-12.727 141.449-8.544 138.334-5.162 131.926-5.162 126.141-5.162 121.78-7.476 117.597-10.858L113.592-5.518C118.22-1.691 124.806 1.157 131.659 1.157ZM179.901 1.157C185.686 1.157 191.204-1.068 195.476-4.984L192.005-10.413C188.979-7.654 185.063-5.607 180.613-5.607 171.713-5.607 165.661-12.994 165.661-24.119 165.661-35.244 172.069-42.809 180.791-42.809 184.707-42.809 187.644-41.029 190.492-38.448L194.675-43.877C191.204-46.903 186.843-49.573 180.524-49.573 168.153-49.573 157.206-40.228 157.206-24.119 157.206-8.099 167.085 1.157 179.901 1.157ZM206.355 0 214.454 0 214.454-31.061C217.658-39.338 222.642-42.186 226.647-42.186 228.605-42.186 229.762-42.008 231.364-41.385L232.877-48.505C231.364-49.306 229.851-49.573 227.715-49.573 222.286-49.573 217.391-45.657 214.009-39.516L213.742-39.516 213.03-48.327 206.355-48.327ZM241.021 0 249.12 0 249.12-48.327 241.021-48.327ZM245.115-58.295C248.319-58.295 250.722-60.52 250.722-63.546 250.722-66.839 248.319-68.797 245.115-68.797 241.911-68.797 239.508-66.839 239.508-63.546 239.508-60.52 241.911-58.295 245.115-58.295ZM286.792 1.157C297.917 1.157 307.796-8.366 307.796-25.009 307.796-39.783 301.032-49.573 288.483-49.573 283.143-49.573 277.714-46.547 273.353-42.72L273.62-51.442 273.62-70.844 265.521-70.844 265.521 0 272.018 0 272.73-4.984 272.997-4.984C277.269-1.068 282.342 1.157 286.792 1.157ZM285.457-5.607C282.253-5.607 277.892-6.942 273.62-10.68L273.62-36.045C278.248-40.406 282.52-42.72 286.614-42.72 295.781-42.72 299.341-35.511 299.341-24.831 299.341-12.816 293.467-5.607 285.457-5.607ZM340.179 1.157C346.765 1.157 351.927-1.068 356.199-3.827L353.262-9.167C349.702-6.764 345.875-5.34 341.158-5.34 331.991-5.34 325.672-11.926 325.138-22.25L357.712-22.25C357.89-23.407 358.068-25.098 358.068-26.878 358.068-40.673 351.126-49.573 338.844-49.573 327.63-49.573 317.039-39.783 317.039-24.119 317.039-8.188 327.363 1.157 340.179 1.157ZM325.049-28.035C326.028-37.558 332.08-43.076 338.933-43.076 346.498-43.076 350.948-37.825 350.948-28.035ZM404.517 0 412.794 0 412.794-58.295 432.552-58.295 432.552-65.237 384.759-65.237 384.759-58.295 404.517-58.295ZM443.688 0 451.787 0 451.787-35.066C456.682-39.961 460.064-42.453 465.048-42.453 471.456-42.453 474.215-38.626 474.215-29.548L474.215 0 482.314 0 482.314-30.616C482.314-42.987 477.686-49.573 467.54-49.573 460.954-49.573 455.97-45.924 451.52-41.474L451.787-51.442 451.787-70.844 443.688-70.844ZM517.346 1.157C523.932 1.157 529.094-1.068 533.366-3.827L530.429-9.167C526.869-6.764 523.042-5.34 518.325-5.34 509.158-5.34 502.839-11.926 502.305-22.25L534.879-22.25C535.057-23.407 535.235-25.098 535.235-26.878 535.235-40.673 528.293-49.573 516.011-49.573 504.797-49.573 494.206-39.783 494.206-24.119 494.206-8.188 504.53 1.157 517.346 1.157ZM502.216-28.035C503.195-37.558 509.247-43.076 516.1-43.076 523.665-43.076 528.115-37.825 528.115-28.035ZM575.276 0 585.066 0 594.767-39.338C595.835-44.5 596.992-49.217 598.06-54.201L598.416-54.201C599.484-49.217 600.463-44.5 601.62-39.338L611.499 0 621.378 0 634.906-65.237 626.985-65.237 620.132-29.726C618.886-22.784 617.64-15.753 616.394-8.633L615.949-8.633C614.436-15.753 612.923-22.784 611.321-29.726L602.154-65.237 594.678-65.237 585.689-29.726C584.087-22.695 582.485-15.664 580.972-8.633L580.616-8.633C579.37-15.664 578.035-22.695 576.789-29.726L569.936-65.237 561.392-65.237ZM664.634 1.157C676.471 1.157 687.062-8.099 687.062-24.119 687.062-40.228 676.471-49.573 664.634-49.573 652.797-49.573 642.206-40.228 642.206-24.119 642.206-8.099 652.797 1.157 664.634 1.157ZM664.634-5.607C656.268-5.607 650.661-12.994 650.661-24.119 650.661-35.244 656.268-42.809 664.634-42.809 673-42.809 678.696-35.244 678.696-24.119 678.696-12.994 673-5.607 664.634-5.607ZM700.021 0 708.12 0 708.12-31.061C711.324-39.338 716.308-42.186 720.313-42.186 722.271-42.186 723.428-42.008 725.03-41.385L726.543-48.505C725.03-49.306 723.517-49.573 721.381-49.573 715.952-49.573 711.057-45.657 707.675-39.516L707.408-39.516 706.696-48.327 700.021-48.327ZM750.173 1.157C755.958 1.157 761.031-1.958 764.858-5.696L765.036-5.696 765.837 0 772.423 0 772.423-70.844 764.324-70.844 764.324-52.243 764.769-43.877C760.497-47.437 756.848-49.573 751.152-49.573 740.116-49.573 730.237-39.783 730.237-24.119 730.237-8.01 738.069 1.157 750.173 1.157ZM751.953-5.607C743.409-5.607 738.603-12.549 738.603-24.208 738.603-35.244 744.744-42.72 752.576-42.72 756.581-42.72 760.23-41.296 764.324-37.647L764.324-12.282C760.319-7.832 756.403-5.607 751.953-5.607Z" transform="translate(54.7096 112)"/></g></g><text font-family="Source Han Sans SC Regular,Source Han Sans SC Regular_MSFontService,sans-serif" font-weight="400" font-size="89" transform="translate(109.996 492)">Describe The Word</text></g></svg>