<svg width="1280" height="720" xmlns="http://www.w3.org/2000/svg" xmlns:xlink="http://www.w3.org/1999/xlink" overflow="hidden"><defs><filter id="fx0" x="-10%" y="-10%" width="120%" height="120%" filterUnits="userSpaceOnUse" primitiveUnits="userSpaceOnUse"><feComponentTransfer color-interpolation-filters="sRGB"><feFuncR type="discrete" tableValues="0 0"/><feFuncG type="discrete" tableValues="0 0"/><feFuncB type="discrete" tableValues="0 0"/><feFuncA type="linear" slope="0.4" intercept="0"/></feComponentTransfer><feGaussianBlur stdDeviation="0 0"/></filter><filter id="fx1" x="-10%" y="-10%" width="120%" height="120%" filterUnits="userSpaceOnUse" primitiveUnits="userSpaceOnUse"><feComponentTransfer color-interpolation-filters="sRGB"><feFuncR type="discrete" tableValues="0 0"/><feFuncG type="discrete" tableValues="0 0"/><feFuncB type="discrete" tableValues="0 0"/><feFuncA type="linear" slope="0.4" intercept="0"/></feComponentTransfer><feGaussianBlur stdDeviation="0 0"/></filter><filter id="fx2" x="-10%" y="-10%" width="120%" height="120%" filterUnits="userSpaceOnUse" primitiveUnits="userSpaceOnUse"><feComponentTransfer color-interpolation-filters="sRGB"><feFuncR type="discrete" tableValues="0 0"/><feFuncG type="discrete" tableValues="0 0"/><feFuncB type="discrete" tableValues="0 0"/><feFuncA type="linear" slope="0.4" intercept="0"/></feComponentTransfer><feGaussianBlur stdDeviation="0 0"/></filter><filter id="fx3" x="-10%" y="-10%" width="120%" height="120%" filterUnits="userSpaceOnUse" primitiveUnits="userSpaceOnUse"><feComponentTransfer color-interpolation-filters="sRGB"><feFuncR type="discrete" tableValues="0 0"/><feFuncG type="discrete" tableValues="0 0"/><feFuncB type="discrete" tableValues="0 0"/><feFuncA type="linear" slope="0.4" intercept="0"/></feComponentTransfer><feGaussianBlur stdDeviation="0 0"/></filter><clipPath id="clip4"><rect x="83" y="53" width="528" height="129"/></clipPath><clipPath id="clip5"><rect x="56" y="41" width="330" height="72"/></clipPath></defs><g><rect x="0" y="0" width="1280" height="720" fill="#1270F8" fill-opacity="0"/><g clip-path="url(#clip4)" filter="url(#fx0)" transform="translate(31 185)"><g><path d="M19.684-42.028C14.896-25.802 8.512-8.911 3.857 1.862L21.413 11.172C26.467-2.394 31.255-17.689 35.378-32.452ZM34.713-66.101C29.792-69.293 20.083-74.214 13.965-77.14L2.926-63.175C9.31-59.451 18.886-53.998 23.275-50.54ZM64.372-47.88C63.308-20.349 61.978-10.108 60.116-7.448 58.919-5.719 57.855-5.32 56.259-5.32 54.53-5.32 52.136-5.32 49.21-5.719 54.53-18.221 57.19-32.585 58.653-47.88ZM116.109-48.146C121.562-53.599 126.882-60.249 131.005-66.234L119.7-74.347 116.375-73.416 95.893-73.416C96.957-75.81 97.888-78.204 98.952-80.864L129.542-80.864 129.542-99.085 104.139-99.085C104.937-102.809 105.735-106.533 106.267-110.39L87.913-113.449C86.716-104.405 84.721-95.361 81.795-87.514L81.795-95.76 62.377-95.76 72.086-99.883C70.091-104.139 66.367-110.523 63.042-115.444L45.22-108.794C47.481-104.937 50.141-99.883 52.003-95.76L35.644-95.76 39.368-100.814C34.447-104.139 24.605-109.326 18.221-112.385L7.182-98.553C13.699-94.829 23.408-88.977 27.797-85.386L34.447-94.297 34.447-77.539 42.56-77.539C42.028-48.146 41.097-18.886 25.669-0.399 30.324 2.527 35.644 7.98 38.437 12.369 42.693 7.182 46.151 1.197 48.944-5.187 51.471-0.399 52.934 6.517 53.333 11.571 58.387 11.571 62.909 11.438 65.968 10.773 69.692 9.975 72.352 8.512 75.145 4.522 79.002-0.665 80.465-17.157 82.061-58.121 82.194-60.249 82.327-65.303 82.327-65.303L59.85-65.303C59.983-69.426 60.116-73.416 60.249-77.539L77.273-77.539C76.342-75.81 75.278-74.347 74.214-72.884 77.938-71.155 84.056-67.83 88.179-65.17L88.179-56.791 102.676-56.791C101.213-55.195 99.75-53.732 98.287-52.402L98.287-41.496 83.125-41.496 83.125-24.339 98.287-24.339 98.287-6.65C98.287-5.187 97.755-4.788 96.026-4.788 94.297-4.788 88.312-4.788 83.524-5.054 85.652 0 87.913 7.315 88.445 12.502 97.356 12.502 104.139 12.236 109.459 9.443 114.912 6.65 116.109 1.862 116.109-6.384L116.109-24.339 129.941-24.339 129.941-41.496 116.109-41.496ZM256.757-95.095C252.9-100.016 244.92-107.996 239.733-113.582L225.901-103.474C231.088-97.356 238.669-88.844 241.994-83.657ZM194.779-19.285C191.188-25.802 185.602-33.782 179.218-42.294 185.336-58.254 189.459-76.475 191.853-96.558L179.484-100.681 176.292-100.016 138.387-100.016 138.387-83.125 170.972-83.125C169.509-75.278 167.647-67.564 165.12-60.116 159.933-66.766 154.613-73.15 149.958-78.869L136.924-67.697C143.308-59.584 150.49-50.141 157.406-40.831 151.421-28.728 144.106-18.487 135.328-11.571 139.983-8.113 146.234-0.665 149.293 4.123 157.406-3.192 164.322-12.236 170.041-22.477 174.164-16.359 177.622-10.507 180.016-5.586ZM242.792-65.968C238.802-56.525 233.216-47.215 226.3-38.703 224.837-45.885 223.773-54.264 222.975-63.574ZM242.925-66.101 261.412-68.362 259.151-85.652 221.778-81.263C221.379-91.105 221.246-101.745 221.246-112.917L201.03-112.917C201.296-100.681 201.562-89.376 202.227-78.869L189.991-77.406 192.252-59.717 203.424-61.047C204.754-45.752 206.749-32.718 209.808-22.078 202.36-15.827 194.247-10.773 185.469-7.049 190.922-3.325 197.04 2.66 200.764 7.315 206.616 4.256 212.202 0.532 217.655-3.857 223.64 5.453 231.62 10.906 242.526 12.236 250.24 12.901 258.752 7.315 262.609-19.817 258.885-21.679 250.107-27.265 246.383-31.521 245.585-17.689 244.388-11.571 241.595-11.97 238.403-12.635 235.743-14.896 233.349-18.62 243.723-30.058 252.501-43.358 258.22-56.791ZM272.386 8.512C287.282 5.453 306.434 1.862 324.123-1.995L322.527-20.083C303.508-16.625 283.026-13.167 269.327-11.305ZM369.343-25.27 369.343-10.507 347.132-10.507 347.132-25.27ZM328.246 12.502 347.132 12.502 347.132 6.783 369.343 6.783 369.343 11.97 389.16 11.97 389.16-42.56 328.246-42.56ZM394.746-79.667 394.746-98.287 368.412-98.287 368.412-113.848 348.063-113.848 348.063-98.287 321.596-98.287 321.596-80.465 308.695-88.977C306.434-84.322 303.774-79.667 300.981-75.278L293.533-74.746C300.582-84.189 307.498-95.494 312.419-106.267L292.469-114.38C287.814-99.883 279.169-84.987 276.243-81.13 273.317-77.14 270.923-74.746 267.731-73.815 270.125-68.495 273.317-59.052 274.381-55.062 276.642-56.126 279.834-56.924 289.144-58.121 285.553-53.466 282.494-50.008 280.765-48.279 276.11-43.491 273.317-40.831 269.194-39.9 271.455-34.713 274.647-25.27 275.578-21.546 279.967-23.807 286.484-25.536 322.261-31.787 321.596-35.91 321.064-43.358 321.197-48.545L301.912-45.752C310.823-55.594 319.069-66.766 325.719-77.805L322.926-79.667 348.063-79.667 348.063-68.495 325.187-68.495 325.187-50.141 391.155-50.141 391.155-68.495 368.412-68.495 368.412-79.667ZM436.309-59.451 456.259-59.451 456.259-47.747 436.309-47.747ZM497.09-59.451 497.09-47.747 476.475-47.747 476.475-59.451ZM517.04-30.856 517.04-76.342 476.475-76.342 476.475-84.588 524.222-84.588 524.222-102.277 476.475-102.277 476.475-113.715 456.259-113.715 456.259-102.277 409.177-102.277 409.177-84.588 456.259-84.588 456.259-76.342 417.556-76.342 417.556-30.856 445.619-30.856C434.447-20.482 418.753-11.438 403.192-6.118 407.581-2.128 413.566 5.453 416.625 10.241 430.856 4.123 444.821-5.32 456.259-16.492L456.259 12.635 476.475 12.635 476.475-17.556C487.913-5.852 501.878 4.123 515.976 10.507 519.035 5.32 525.419-2.66 529.941-6.65 514.646-11.97 499.085-20.881 487.913-30.856Z" transform="translate(80.8817 169)"/></g></g><text font-family="Source Han Sans SC Heavy,Source Han Sans SC Heavy_MSFontService,sans-serif" font-weight="900" font-size="133" transform="translate(106.225 348)">游戏结束</text><g filter="url(#fx1)" transform="translate(29 382)"><g><path d="M0.828426 26.8284 353.388 26.8285" stroke="#000000" stroke-width="2" stroke-miterlimit="8" fill="none" fill-rule="evenodd"/><path d="M52.8284 0.82843 52.8285 52.412" stroke="#000000" stroke-width="2" stroke-miterlimit="8" fill="none" fill-rule="evenodd"/></g></g><path d="M27 406 379.559 406" stroke="#000000" stroke-width="2.33333" stroke-miterlimit="8" fill="none" fill-rule="evenodd"/><path d="M79 380 79.0001 431.584" stroke="#000000" stroke-width="2.33333" stroke-miterlimit="8" fill="none" fill-rule="evenodd"/><g filter="url(#fx2)" transform="translate(14 167)"><g><path d="M24.2712 0.77124C24.2712 18.4444 34.7925 32.7712 47.7712 32.7712 34.7925 32.7712 24.2712 47.0981 24.2712 64.7712 24.2712 47.0981 13.7499 32.7712 0.771236 32.7712 13.7499 32.7712 24.2712 18.4444 24.2712 0.77124Z" fill-rule="evenodd"/></g></g><path d="M34.5 164C34.5 181.673 45.0213 196 58 196 45.0213 196 34.5 210.327 34.5 228 34.5 210.327 23.9787 196 11 196 23.9787 196 34.5 181.673 34.5 164Z" fill-rule="evenodd"/><g clip-path="url(#clip5)" filter="url(#fx3)" transform="translate(60 384)"><g><path d="M22.517 0 30.794 0 30.794-58.295 50.552-58.295 50.552-65.237 2.759-65.237 2.759-58.295 22.517-58.295ZM61.688 0 69.787 0 69.787-35.066C74.682-39.961 78.064-42.453 83.048-42.453 89.456-42.453 92.215-38.626 92.215-29.548L92.215 0 100.314 0 100.314-30.616C100.314-42.987 95.686-49.573 85.54-49.573 78.954-49.573 73.97-45.924 69.52-41.474L69.787-51.442 69.787-70.844 61.688-70.844ZM135.346 1.157C141.932 1.157 147.094-1.068 151.366-3.827L148.429-9.167C144.869-6.764 141.042-5.34 136.325-5.34 127.158-5.34 120.839-11.926 120.305-22.25L152.879-22.25C153.057-23.407 153.235-25.098 153.235-26.878 153.235-40.673 146.293-49.573 134.011-49.573 122.797-49.573 112.206-39.783 112.206-24.119 112.206-8.188 122.53 1.157 135.346 1.157ZM120.216-28.035C121.195-37.558 127.247-43.076 134.1-43.076 141.665-43.076 146.115-37.825 146.115-28.035ZM186.067 0 224.693 0 224.693-7.031 194.344-7.031 194.344-30.794 219.086-30.794 219.086-37.825 194.344-37.825 194.344-58.295 223.714-58.295 223.714-65.237 186.067-65.237ZM237.855 0 245.954 0 245.954-35.066C250.849-39.961 254.231-42.453 259.215-42.453 265.623-42.453 268.382-38.626 268.382-29.548L268.382 0 276.481 0 276.481-30.616C276.481-42.987 271.853-49.573 261.707-49.573 255.121-49.573 250.137-45.924 245.509-41.385L245.242-41.385 244.53-48.327 237.855-48.327ZM308.82 1.157C314.605 1.157 319.678-1.958 323.505-5.696L323.683-5.696 324.484 0 331.07 0 331.07-70.844 322.971-70.844 322.971-52.243 323.416-43.877C319.144-47.437 315.495-49.573 309.799-49.573 298.763-49.573 288.884-39.783 288.884-24.119 288.884-8.01 296.716 1.157 308.82 1.157ZM310.6-5.607C302.056-5.607 297.25-12.549 297.25-24.208 297.25-35.244 303.391-42.72 311.223-42.72 315.228-42.72 318.877-41.296 322.971-37.647L322.971-12.282C318.966-7.832 315.05-5.607 310.6-5.607Z" transform="translate(54.7096 112)"/></g></g><text font-family="Source Han Sans SC Regular,Source Han Sans SC Regular_MSFontService,sans-serif" font-weight="400" font-size="89" transform="translate(109.996 492)">The End</text></g></svg>