<svg width="1280" height="720" xmlns="http://www.w3.org/2000/svg" xmlns:xlink="http://www.w3.org/1999/xlink" overflow="hidden"><g><rect x="0" y="0" width="1280" height="720" fill="#FFFFFF" fill-opacity="0"/><path d="M685.908 564.507 685.908 613.652 707.111 613.652C715.317 613.652 721.98 611.256 727.102 606.464 732.223 601.672 734.783 595.383 734.783 587.597 734.783 580.35 732.447 574.689 727.775 570.617 723.103 566.544 716.305 564.507 707.381 564.507ZM667.939 548.784 710.346 548.784C723.882 548.784 734.484 552.049 742.15 558.577 749.817 565.106 753.65 574.24 753.65 585.98 753.65 605.266 743.348 617.784 722.744 623.534L722.744 623.984C726.577 625.601 729.887 627.907 732.672 630.902 735.457 633.896 739.066 639.018 743.498 646.265L769.553 687.952 748.35 687.952 725.26 649.32C720.648 641.593 716.425 636.337 712.592 633.552 708.758 630.767 704.176 629.374 698.846 629.374L685.908 629.374 685.908 687.952 667.939 687.952ZM566.939 548.784 638.635 548.784 638.635 564.777 584.908 564.777 584.908 609.339 634.682 609.339 634.682 625.242 584.908 625.242 584.908 672.05 641.779 672.05 641.779 687.952 566.939 687.952ZM416.939 548.784 439.49 548.784 507.592 655.159C510.826 660.191 512.743 663.395 513.342 664.773L513.701 664.773C513.102 660.82 512.803 654.051 512.803 644.468L512.803 548.784 530.592 548.784 530.592 687.952 509.299 687.952 439.311 579.691C437.334 576.636 435.747 573.611 434.549 570.617L434.01 570.617C434.489 573.731 434.728 580.23 434.728 590.113L434.728 687.952 416.939 687.952ZM266.939 548.784 289.49 548.784 357.592 655.159C360.826 660.191 362.743 663.395 363.342 664.773L363.701 664.773C363.102 660.82 362.803 654.051 362.803 644.468L362.803 548.784 380.592 548.784 380.592 687.952 359.299 687.952 289.311 579.691C287.334 576.636 285.747 573.611 284.549 570.617L284.01 570.617C284.489 573.731 284.728 580.23 284.728 590.113L284.728 687.952 266.939 687.952ZM212.939 548.784 230.908 548.784 230.908 687.952 212.939 687.952ZM10.3965 548.784 30.2519 548.784 58.6425 653.902C59.9004 658.633 60.6491 663.395 60.8886 668.187L61.4277 668.187C61.7272 664.593 62.7155 659.831 64.3925 653.902L94.4902 548.784 112.189 548.784 140.939 654.71C141.898 658.184 142.676 662.617 143.275 668.007L143.635 668.007C143.934 664.114 144.803 659.562 146.24 654.351L173.553 548.784 192.869 548.784 153.877 687.952 132.943 687.952 104.912 587.687C103.654 583.135 102.906 578.343 102.666 573.312L102.307 573.312C101.947 578.283 101.109 583.015 99.791 587.507L71.4902 687.952 50.7363 687.952Z" stroke="#3A88F9" stroke-linejoin="round" stroke-miterlimit="10" fill="none" fill-rule="evenodd"/><text fill="#000000" fill-opacity="0" font-family="Arial,Arial_MSFontService,sans-serif" font-size="139.168" x="10.3965" y="670.556">WINNER</text></g></svg>