<svg width="1280" height="720" xmlns="http://www.w3.org/2000/svg" xmlns:xlink="http://www.w3.org/1999/xlink" overflow="hidden"><defs><filter id="fx0" x="-10%" y="-10%" width="120%" height="120%" filterUnits="userSpaceOnUse" primitiveUnits="userSpaceOnUse"><feComponentTransfer color-interpolation-filters="sRGB"><feFuncR type="discrete" tableValues="0.972549 0.972549"/><feFuncG type="discrete" tableValues="0.701961 0.701961"/><feFuncB type="discrete" tableValues="0.611765 0.611765"/><feFuncA type="linear" slope="0.8" intercept="0"/></feComponentTransfer><feGaussianBlur stdDeviation="4.44444 4.44444"/></filter><filter id="fx1" x="-10%" y="-10%" width="120%" height="120%" filterUnits="userSpaceOnUse" primitiveUnits="userSpaceOnUse"><feComponentTransfer color-interpolation-filters="sRGB"><feFuncR type="discrete" tableValues="0.972549 0.972549"/><feFuncG type="discrete" tableValues="0.701961 0.701961"/><feFuncB type="discrete" tableValues="0.611765 0.611765"/><feFuncA type="linear" slope="0.8" intercept="0"/></feComponentTransfer><feGaussianBlur stdDeviation="4.44444 4.44444"/></filter><filter id="fx2" x="-10%" y="-10%" width="120%" height="120%" filterUnits="userSpaceOnUse" primitiveUnits="userSpaceOnUse"><feComponentTransfer color-interpolation-filters="sRGB"><feFuncR type="discrete" tableValues="0.87451 0.87451"/><feFuncG type="discrete" tableValues="0.262745 0.262745"/><feFuncB type="discrete" tableValues="0.0627451 0.0627451"/><feFuncA type="linear" slope="0.8" intercept="0"/></feComponentTransfer><feGaussianBlur stdDeviation="4.44444 4.44444"/></filter><filter id="fx3" x="-10%" y="-10%" width="120%" height="120%" filterUnits="userSpaceOnUse" primitiveUnits="userSpaceOnUse"><feComponentTransfer color-interpolation-filters="sRGB"><feFuncR type="discrete" tableValues="0.87451 0.87451"/><feFuncG type="discrete" tableValues="0.262745 0.262745"/><feFuncB type="discrete" tableValues="0.0627451 0.0627451"/><feFuncA type="linear" slope="0.8" intercept="0"/></feComponentTransfer><feGaussianBlur stdDeviation="4.44444 4.44444"/></filter><clipPath id="clip4"><rect x="0" y="0" width="1280" height="720"/></clipPath><clipPath id="clip5"><rect x="103" y="65" width="757" height="183"/></clipPath><clipPath id="clip6"><rect x="103" y="65" width="757" height="183"/></clipPath></defs><g clip-path="url(#clip4)"><rect x="0" y="0" width="1280" height="720" fill="#1270F8" fill-opacity="0"/><g filter="url(#fx0)" transform="translate(-3 184)"><g><path d="M15.3432 170.343C15.3432 84.739 84.7387 15.3431 170.342 15.3431L1104.34 15.3431C1189.95 15.3431 1259.34 84.739 1259.34 170.343L1259.34 170.343C1259.34 255.947 1189.95 325.343 1104.34 325.343L170.342 325.343C84.7387 325.343 15.3432 255.947 15.3432 170.343Z" fill="#F16739" fill-rule="evenodd"/></g></g><g clip-path="url(#clip5)" filter="url(#fx1)" transform="translate(154 201)"><g><path d="M55.6567-35.7847 11.5049-35.7847 11.5049-52.8179 55.6567-52.8179Z" fill="#FFFFFF" transform="translate(106.676 209)"/><path d="M150.609-15.3149 135.817-15.3149 135.817-4.55713C135.817 2.31592 134.41 7.63257 131.596 11.3928 128.782 15.1531 124.935 17.3818 120.054 18.0791 115.173 18.7764 105.437 19.0503 90.8438 18.9009 89.8477 11.6294 88.5527 5.05518 86.959-0.821777 95.1768-0.32373 101.328-0.074707 105.412-0.074707 110.043-0.074707 112.882-1.03345 113.928-2.95093 114.974-4.86841 115.497-6.99756 115.497-9.33838L115.497-15.3149 38.25-15.3149 38.25 19.6479 17.9297 19.6479 17.9297-15.3149 2.68945-15.3149 2.68945-33.2446 17.9297-33.2446 17.9297-92.4126 66.6387-92.4126 66.6387-102.573 6.27539-102.573 6.27539-120.502 147.322-120.502 147.322-102.573 86.959-102.573 86.959-92.4126 135.817-92.4126 135.817-33.2446 150.609-33.2446ZM115.497-74.7817 86.959-74.7817 86.959-62.5298 115.497-62.5298ZM38.25-62.5298 66.6387-62.5298 66.6387-74.7817 38.25-74.7817ZM86.959-33.2446 115.497-33.2446 115.497-45.4966 86.959-45.4966ZM38.25-33.2446 66.6387-33.2446 66.6387-45.4966 38.25-45.4966ZM165.585-110.641 218.627-110.641 218.627-127.077 240.292-127.077 240.292-110.641 294.081-110.641 294.081-91.2173 269.802-91.2173 284.668-80.1606C278.044-72.0425 271.893-65.3687 266.216-60.1392L301.851-60.1392 301.851-40.8647 252.768-40.8647C266.614-26.6206 283.423-15.7632 303.196-8.29248 298.713-2.41553 294.281 3.85986 289.898 10.5337 268.781-0.971191 252.245-14.543 240.292-30.1816L240.292 19.3491 218.627 19.3491 218.627-30.0322C206.326-14.0449 189.79-0.224121 169.022 11.4302 164.44 4.85596 160.057-1.0708 155.873-6.3501 175.297-14.7671 191.783-26.272 205.329-40.8647L158.413-40.8647 158.413-60.1392 191.807-60.1392C187.873-65.5679 182.27-72.4409 174.998-80.7583L188.894-91.2173 165.585-91.2173ZM269.204-91.2173 240.292-91.2173 240.292-60.1392 264.199-60.1392 250.901-71.3452C257.076-77.1226 263.178-83.7466 269.204-91.2173ZM208.168-70.897 193.675-60.1392 218.627-60.1392 218.627-91.2173 189.94-91.2173C195.767-85.2407 201.843-78.4673 208.168-70.897ZM311.149-64.9204 455.483-64.9204 455.483-42.8071 311.149-42.8071ZM607.322-106.756 607.322-89.4243 595.369-61.4839 575.646-65.3687 586.404-88.3784 535.379-88.3784C531.096-78.5669 526.29-69.2534 520.961-60.438 513.988-64.4224 507.215-67.9087 500.641-70.897 512.195-88.3286 521.409-107.354 528.282-127.973L548.603-124.985C546.81-118.759 544.842-112.683 542.701-106.756ZM480.171-122.146C489.036-111.189 497.204-100.481 504.675-90.022L485.849-76.5747C479.274-88.0298 471.754-99.5347 463.287-111.089ZM544.27-79.563 563.992-79.563C563.743-73.1382 563.17-66.9624 562.274-61.0356 572.733-30.0073 589.044-10.1353 611.207-1.41943 606.824 4.2583 602.641 10.9819 598.656 18.7515 579.332 7.29639 564.814-10.1851 555.102-33.6929 546.237-10.9321 530.723 7.29639 508.56 20.9927 503.679 13.8208 498.648 7.69482 493.469 2.61475 526.439-13.7212 543.373-41.1138 544.27-79.563ZM487.492-63.4263C494.465-59.8403 501.288-56.603 507.962-53.7144 499.894-34.689 491.427-13.6714 482.562 9.33838L462.092-0.373535C471.057-19.3989 479.523-40.4165 487.492-63.4263Z" fill="#FFFFFF" transform="translate(173.676 209)"/><path d="M55.6567-35.7847 11.5049-35.7847 11.5049-52.8179 55.6567-52.8179Z" fill="#FFFFFF" transform="translate(787.01 209)"/></g></g><path d="M18 360C18 274.396 87.3956 205 172.999 205L1107 205C1192.6 205 1262 274.396 1262 360L1262 360C1262 445.604 1192.6 515 1107 515L172.999 515C87.3956 515 18 445.604 18 360Z" fill="#F16739" fill-rule="evenodd"/><text fill="#FFFFFF" font-family="Microsoft YaHei,Microsoft YaHei_MSFontService,sans-serif" font-weight="700" font-size="153" transform="translate(266.333 416)">-</text><text fill="#FFFFFF" font-family="Microsoft YaHei,Microsoft YaHei_MSFontService,sans-serif" font-weight="700" font-size="153" transform="translate(333.333 416)">再来一次</text><text fill="#FFFFFF" font-family="Microsoft YaHei,Microsoft YaHei_MSFontService,sans-serif" font-weight="700" font-size="153" transform="translate(946.667 416)">-</text><g filter="url(#fx2)" transform="translate(8 195)"><g><path d="M14.714 169.714C14.714 84.1099 84.1096 14.7141 169.713 14.7141L1103.71 14.7141C1189.32 14.7141 1258.71 84.1099 1258.71 169.714L1258.71 169.714C1258.71 255.318 1189.32 324.714 1103.71 324.714L169.713 324.714C84.1096 324.714 14.714 255.318 14.714 169.714Z" fill="#F16739" fill-rule="evenodd"/></g></g><g clip-path="url(#clip6)" filter="url(#fx3)" transform="translate(164 212)"><g><path d="M55.6567-35.7847 11.5049-35.7847 11.5049-52.8179 55.6567-52.8179Z" fill="#FFFFFF" transform="translate(107.047 209)"/><path d="M150.609-15.3149 135.817-15.3149 135.817-4.55713C135.817 2.31592 134.41 7.63257 131.596 11.3928 128.782 15.1531 124.935 17.3818 120.054 18.0791 115.173 18.7764 105.437 19.0503 90.8438 18.9009 89.8477 11.6294 88.5527 5.05518 86.959-0.821777 95.1768-0.32373 101.328-0.074707 105.412-0.074707 110.043-0.074707 112.882-1.03345 113.928-2.95093 114.974-4.86841 115.497-6.99756 115.497-9.33838L115.497-15.3149 38.25-15.3149 38.25 19.6479 17.9297 19.6479 17.9297-15.3149 2.68945-15.3149 2.68945-33.2446 17.9297-33.2446 17.9297-92.4126 66.6387-92.4126 66.6387-102.573 6.27539-102.573 6.27539-120.502 147.322-120.502 147.322-102.573 86.959-102.573 86.959-92.4126 135.817-92.4126 135.817-33.2446 150.609-33.2446ZM115.497-74.7817 86.959-74.7817 86.959-62.5298 115.497-62.5298ZM38.25-62.5298 66.6387-62.5298 66.6387-74.7817 38.25-74.7817ZM86.959-33.2446 115.497-33.2446 115.497-45.4966 86.959-45.4966ZM38.25-33.2446 66.6387-33.2446 66.6387-45.4966 38.25-45.4966ZM165.585-110.641 218.627-110.641 218.627-127.077 240.292-127.077 240.292-110.641 294.081-110.641 294.081-91.2173 269.802-91.2173 284.668-80.1606C278.044-72.0425 271.893-65.3687 266.216-60.1392L301.851-60.1392 301.851-40.8647 252.768-40.8647C266.614-26.6206 283.423-15.7632 303.196-8.29248 298.713-2.41553 294.281 3.85986 289.898 10.5337 268.781-0.971191 252.245-14.543 240.292-30.1816L240.292 19.3491 218.627 19.3491 218.627-30.0322C206.326-14.0449 189.79-0.224121 169.022 11.4302 164.44 4.85596 160.057-1.0708 155.873-6.3501 175.297-14.7671 191.783-26.272 205.329-40.8647L158.413-40.8647 158.413-60.1392 191.807-60.1392C187.873-65.5679 182.27-72.4409 174.998-80.7583L188.894-91.2173 165.585-91.2173ZM269.204-91.2173 240.292-91.2173 240.292-60.1392 264.199-60.1392 250.901-71.3452C257.076-77.1226 263.178-83.7466 269.204-91.2173ZM208.168-70.897 193.675-60.1392 218.627-60.1392 218.627-91.2173 189.94-91.2173C195.767-85.2407 201.843-78.4673 208.168-70.897ZM311.149-64.9204 455.483-64.9204 455.483-42.8071 311.149-42.8071ZM607.322-106.756 607.322-89.4243 595.369-61.4839 575.646-65.3687 586.404-88.3784 535.379-88.3784C531.096-78.5669 526.29-69.2534 520.961-60.438 513.988-64.4224 507.215-67.9087 500.641-70.897 512.195-88.3286 521.409-107.354 528.282-127.973L548.603-124.985C546.81-118.759 544.842-112.683 542.701-106.756ZM480.171-122.146C489.036-111.189 497.204-100.481 504.675-90.022L485.849-76.5747C479.274-88.0298 471.754-99.5347 463.287-111.089ZM544.27-79.563 563.992-79.563C563.743-73.1382 563.17-66.9624 562.274-61.0356 572.733-30.0073 589.044-10.1353 611.207-1.41943 606.824 4.2583 602.641 10.9819 598.656 18.7515 579.332 7.29639 564.814-10.1851 555.102-33.6929 546.237-10.9321 530.723 7.29639 508.56 20.9927 503.679 13.8208 498.648 7.69482 493.469 2.61475 526.439-13.7212 543.373-41.1138 544.27-79.563ZM487.492-63.4263C494.465-59.8403 501.288-56.603 507.962-53.7144 499.894-34.689 491.427-13.6714 482.562 9.33838L462.092-0.373535C471.057-19.3989 479.523-40.4165 487.492-63.4263Z" fill="#FFFFFF" transform="translate(174.047 209)"/><path d="M55.6567-35.7847 11.5049-35.7847 11.5049-52.8179 55.6567-52.8179Z" fill="#FFFFFF" transform="translate(787.381 209)"/></g></g><path d="M18 360C18 274.396 87.3956 205 172.999 205L1107 205C1192.6 205 1262 274.396 1262 360L1262 360C1262 445.604 1192.6 515 1107 515L172.999 515C87.3956 515 18 445.604 18 360Z" fill="#F16739" fill-rule="evenodd"/><text fill="#FFFFFF" font-family="Microsoft YaHei,Microsoft YaHei_MSFontService,sans-serif" font-weight="700" font-size="153" transform="translate(266.333 416)">-</text><text fill="#FFFFFF" font-family="Microsoft YaHei,Microsoft YaHei_MSFontService,sans-serif" font-weight="700" font-size="153" transform="translate(333.333 416)">再来一次</text><text fill="#FFFFFF" font-family="Microsoft YaHei,Microsoft YaHei_MSFontService,sans-serif" font-weight="700" font-size="153" transform="translate(946.667 416)">-</text></g></svg>