<svg width="1280" height="720" xmlns="http://www.w3.org/2000/svg" xmlns:xlink="http://www.w3.org/1999/xlink" overflow="hidden"><defs><filter id="fx0" x="-10%" y="-10%" width="120%" height="120%" filterUnits="userSpaceOnUse" primitiveUnits="userSpaceOnUse"><feComponentTransfer color-interpolation-filters="sRGB"><feFuncR type="discrete" tableValues="0 0"/><feFuncG type="discrete" tableValues="0 0"/><feFuncB type="discrete" tableValues="0 0"/><feFuncA type="linear" slope="0.4" intercept="0"/></feComponentTransfer><feGaussianBlur stdDeviation="0 0"/></filter><filter id="fx1" x="-10%" y="-10%" width="120%" height="120%" filterUnits="userSpaceOnUse" primitiveUnits="userSpaceOnUse"><feComponentTransfer color-interpolation-filters="sRGB"><feFuncR type="discrete" tableValues="0 0"/><feFuncG type="discrete" tableValues="0 0"/><feFuncB type="discrete" tableValues="0 0"/><feFuncA type="linear" slope="0.4" intercept="0"/></feComponentTransfer><feGaussianBlur stdDeviation="0 0"/></filter><filter id="fx2" x="-10%" y="-10%" width="120%" height="120%" filterUnits="userSpaceOnUse" primitiveUnits="userSpaceOnUse"><feComponentTransfer color-interpolation-filters="sRGB"><feFuncR type="discrete" tableValues="0 0"/><feFuncG type="discrete" tableValues="0 0"/><feFuncB type="discrete" tableValues="0 0"/><feFuncA type="linear" slope="0.4" intercept="0"/></feComponentTransfer><feGaussianBlur stdDeviation="0 0"/></filter><filter id="fx3" x="-10%" y="-10%" width="120%" height="120%" filterUnits="userSpaceOnUse" primitiveUnits="userSpaceOnUse"><feComponentTransfer color-interpolation-filters="sRGB"><feFuncR type="discrete" tableValues="0 0"/><feFuncG type="discrete" tableValues="0 0"/><feFuncB type="discrete" tableValues="0 0"/><feFuncA type="linear" slope="0.4" intercept="0"/></feComponentTransfer><feGaussianBlur stdDeviation="0 0"/></filter><clipPath id="clip4"><rect x="89" y="57" width="973" height="135"/></clipPath><clipPath id="clip5"><rect x="1" y="1" width="365" height="53"/></clipPath><clipPath id="clip6"><rect x="67" y="43" width="904" height="78"/></clipPath></defs><g><rect x="0" y="0" width="1280" height="720" fill="#FFFFFF" fill-opacity="0"/><g clip-path="url(#clip4)" filter="url(#fx0)" transform="translate(21 196)"><g><path d="M45.5-96.74C40.46-102.9 29.82-112 22.26-118.3L9.24-105.98C16.8-98.98 27.16-89.18 31.64-82.74ZM38.5-25.62 38.5-77 4.2-77 4.2-57.54 19.04-57.54 19.04-18.62C19.04-11.9 15.12-6.86 11.76-4.48 14.98-0.7 19.88 7.84 21.42 12.6 24.08 8.96 29.26 4.48 55.72-16.38 53.62-20.44 50.54-28.42 49.28-33.88ZM75.88-19.6 75.88-25.48 108.22-25.48 108.22-19.6ZM108.22-43.12 108.22-38.08 75.88-38.08 75.88-43.12ZM127.4-57.68 57.12-57.68 57.12 13.58 75.88 13.58 75.88-6.44 108.22-6.44 108.22-5.6C108.22-3.92 107.52-3.36 105.7-3.36 103.88-3.36 97.16-3.22 92.26-3.64 94.5 1.12 96.88 8.54 97.58 13.58 107.24 13.58 114.52 13.44 120.12 10.64 125.86 7.98 127.4 3.22 127.4-5.18ZM101.92-75.88 101.92-79.66 127.54-79.66 127.54-92.96 101.92-92.96 101.92-96.74 131.74-96.74 131.74-110.88 101.92-110.88 101.92-119.7 81.76-119.7 81.76-110.88 52.22-110.88 52.22-96.74 81.76-96.74 81.76-92.96 56.28-92.96 56.28-79.66 81.76-79.66 81.76-75.88 47.88-75.88 47.88-61.6 136.22-61.6 136.22-75.88ZM176.68-118.3C174.86-114.66 172.62-110.88 170.24-107.1 166.6-111.44 162.26-115.64 157.22-119.7L143.08-108.78C149.8-103.32 154.84-97.72 158.76-91.98 153.44-85.96 147.7-80.5 141.68-76.44 146.02-73.22 152.6-67.06 155.68-63 159.6-65.94 163.38-69.3 167.16-72.94 168-69.86 168.56-66.64 168.98-63.28 162.26-52.64 151.48-41.3 141.82-35.28 146.58-31.64 152.18-25.06 155.4-20.3 160.16-24.22 165.34-29.4 170.1-35.14 169.82-22.12 168.7-11.9 166.32-8.82 165.2-7.28 163.94-6.44 161.84-6.16 158.9-5.88 154-5.74 146.72-6.3 150.22-0.56 152.04 6.58 152.04 13.16 159.32 13.44 165.62 13.3 171.5 11.62 175.14 10.64 178.5 8.54 181.02 5.32 187.88-4.06 189.42-23.38 189.42-42.7 189.42-59.08 188.16-74.62 181.58-89.32 186.34-95.62 190.82-102.48 194.74-109.34ZM219.52-26.04 219.52-30.24 247.24-30.24 247.24-26.04ZM247.24-47.04 247.24-43.54 219.52-43.54 219.52-47.04ZM267.4-61.18 199.78-61.18 199.78 11.06 219.52 11.06 219.52-12.74 247.24-12.74 247.24-10.22C247.24-8.54 246.68-8.12 244.86-7.98 243.18-7.98 237.16-7.98 232.96-8.26 235.2-3.78 237.58 3.22 238.42 8.26 247.52 8.26 254.66 8.12 260.12 5.46 265.72 2.8 267.4-1.54 267.4-9.94ZM243.04-78.96 243.04-82.46 267.82-82.46 267.82-95.62 243.04-95.62 243.04-98.98 270.9-98.98 270.9-113.26 243.04-113.26 243.04-119.7 222.18-119.7 222.18-113.26 195.86-113.26 195.86-98.98 222.18-98.98 222.18-95.62 198.38-95.62 198.38-82.46 222.18-82.46 222.18-78.96 191.24-78.96 191.24-64.82 275.1-64.82 275.1-78.96ZM322.14-103.18 322.14-18.34 337.12-18.34 337.12-98.56 357.98-98.56 357.98-19.32 373.66-19.32 373.66-112.7 322.14-112.7 322.14-106.54C316.26-110.6 306.6-115.5 300.02-118.72L288.12-103.74C295.68-99.54 306.46-93.1 311.36-88.9ZM318.22-68.6C312.62-72.38 301.7-77.98 294.56-81.34L283.08-66.5C290.5-62.44 301.14-56.28 306.04-52.22ZM302.82-43.68C297.36-26.88 290.36-9.38 285.18 1.68L303.66 11.9C309.26-2.24 314.72-17.92 319.34-33.18ZM351.12-12.18C353.92-19.88 354.76-28.14 354.76-35.98L354.76-92.12 340.34-92.12 340.34-36.26C340.34-21.28 338.38-7.56 317.1 1.26 319.62 3.64 324.1 10.22 325.5 13.58 337.68 8.4 344.96 0.84 349.16-7.7 354.62-1.12 360.64 7 363.58 12.32L376.46 4.34C372.96-1.54 365.4-10.5 359.52-16.94ZM392.7-106.68 377.58-106.68 377.58-19.04 392.7-19.04ZM396.76-117.18 396.76-6.3C396.76-4.2 396.06-3.5 393.96-3.5 391.72-3.5 385.14-3.36 378.56-3.64 380.66 0.98 382.9 8.4 383.46 12.88 393.82 12.88 401.24 12.32 406.14 9.52 411.04 6.86 412.58 2.38 412.58-6.3L412.58-117.18ZM424.9-65.66 424.9-43.4 555.38-43.4 555.38-65.66ZM619.08 13.02 640.36 13.02 640.36-72.1 619.08-72.1ZM629.16-119.98C614.74-95.9 589.12-80.36 562.24-71.12 567.98-65.52 574-57.4 577.22-50.96 596.82-59.92 615.58-71.96 630.7-88.48 654.36-65.66 671.02-56.42 683.62-50.82 686.7-57.68 693-65.66 698.6-70.42 685.3-74.48 666.68-83.3 643.16-104.3 644.7-106.54 646.1-108.92 647.5-111.3ZM746.2-96.88C741.16-103.04 730.8-111.72 723.38-117.6L710.64-105.28C718.06-98.7 728-89.32 732.48-83.16ZM738.64-25.62 738.64-77 704.76-77 704.76-57.54 719.6-57.54 719.6-19.46C719.6-11.06 714.7-4.48 711.06-1.4 714.14 1.26 719.88 7.98 721.7 11.76 724.36 8.12 729.26 3.92 754.74-16.24 752.92-20.16 750.54-28.28 749.28-33.74ZM806.4-88.06 753.34-88.06 753.34-71.26 806.4-71.26ZM785.12-46.34 785.12-33.18 774.48-33.18 774.48-46.34ZM803.04-16.24 803.04-63.28 756.84-63.28 756.84-8.4 774.48-8.4 774.48-16.24ZM830.9-113.96 751.24-113.96 751.24-95.34 811.58-95.34 811.58-9.52C811.58-7.14 810.74-6.3 808.22-6.3 805.7-6.3 797.16-6.16 790.16-6.72 792.96-1.54 795.76 7.84 796.46 13.3 808.64 13.3 817.04 12.88 823.06 9.66 829.08 6.3 830.9 0.84 830.9-9.24ZM885.5-97.02C880.6-103.18 869.82-112.42 862.26-118.58L849.24-106.26C856.94-99.4 867.16-89.46 871.64-83.02ZM947.52-22.12 947.52-8.4 912.52-8.4 912.52-22.12ZM893.2-17.22C891.94-21.28 890.82-26.04 890.26-29.68L878.22-21.7 878.22-77.28 844.2-77.28 844.2-57.82 859.32-57.82 859.32-19.18C859.32-12.6 855.26-7.14 852.04-4.62 855.4-0.7 860.44 7.98 862.12 12.74 864.78 9.52 869.54 5.74 893.2-10.78L893.2 13.16 912.52 13.16 912.52 8.96 947.52 8.96 947.52 12.74 967.82 12.74 967.82-39.48 893.2-39.48ZM928.62-73.08 943.6-73.08C943.46-70.14 943.18-67.06 943.04-63.98L926.66-63.98ZM962.22-63.98C962.92-72.1 963.62-81.06 963.76-90.02L949.48-90.86 946.4-90.16 932.12-90.16 933.52-97.86 972.02-97.86 972.02-115.5 888.72-115.5 888.72-97.86 913.08-97.86C912.66-95.34 912.1-92.68 911.68-90.16L893.34-90.16 893.34-73.08 908.18-73.08C907.48-70 906.78-66.92 906.08-63.98L883.82-63.98 883.82-45.78 976.5-45.78 976.5-63.98Z" transform="translate(85.2569 178)"/></g></g><text font-family="Source Han Sans SC Heavy,Source Han Sans SC Heavy_MSFontService,sans-serif" font-weight="900" font-size="140" transform="translate(100.6 368)">请猜测一个词语</text><g clip-path="url(#clip5)" filter="url(#fx1)" transform="translate(21 402)"><g><path d="M1.27129 27.2713 365.016 27.2714" stroke="#000000" stroke-width="3" stroke-miterlimit="8" fill-rule="evenodd"/><path d="M56.2713 1.2713 56.2714 53.7404" stroke="#000000" stroke-width="3" stroke-miterlimit="8" fill-rule="evenodd"/></g></g><path d="M18.5001 425.5 382.244 425.5" stroke="#000000" stroke-width="3.33333" stroke-miterlimit="8" fill-rule="evenodd"/><path d="M73.5001 399.5 73.5002 451.969" stroke="#000000" stroke-width="3.33333" stroke-miterlimit="8" fill-rule="evenodd"/><g filter="url(#fx2)" transform="translate(3 172)"><g><path d="M27.7712 0.77124C27.7712 20.9297 39.8595 37.2712 54.7712 37.2712 39.8595 37.2712 27.7712 53.6128 27.7712 73.7712 27.7712 53.6128 15.6829 37.2712 0.771236 37.2712 15.6829 37.2712 27.7712 20.9297 27.7712 0.77124Z" fill-rule="evenodd"/></g></g><path d="M27 169C27 189.158 39.0883 205.5 54 205.5 39.0883 205.5 27 221.842 27 242 27 221.842 14.9117 205.5 0 205.5 14.9117 205.5 27 189.158 27 169Z" fill-rule="evenodd"/><g clip-path="url(#clip6)" filter="url(#fx3)" transform="translate(46 404)"><g><path d="M9.6 0 18.528 0 18.528-27.936 30.144-27.936C45.504-27.936 56.064-34.848 56.064-49.728 56.064-65.088 45.504-70.368 29.664-70.368L9.6-70.368ZM18.528-35.136 18.528-63.168 28.608-63.168C40.992-63.168 47.232-59.904 47.232-49.728 47.232-39.648 41.376-35.136 28.992-35.136ZM78.7147 1.248C81.0187 1.248 82.5547 0.96 83.8027 0.48L82.5547-6.24C81.5947-6.048 81.2107-6.048 80.7307-6.048 79.3867-6.048 78.2347-7.104 78.2347-9.792L78.2347-76.416 69.4987-76.416 69.4987-10.368C69.4987-2.976 72.1867 1.248 78.7147 1.248ZM117.856 1.248C124.96 1.248 130.528-1.152 135.136-4.128L131.968-9.888C128.128-7.296 124-5.76 118.912-5.76 109.024-5.76 102.208-12.864 101.632-24L136.768-24C136.96-25.248 137.152-27.072 137.152-28.992 137.152-43.872 129.664-53.472 116.416-53.472 104.32-53.472 92.896-42.912 92.896-26.016 92.896-8.832 104.032 1.248 117.856 1.248ZM101.536-30.24C102.592-40.512 109.12-46.464 116.512-46.464 124.672-46.464 129.472-40.8 129.472-30.24ZM160.465 1.248C166.897 1.248 172.753-2.112 177.745-6.24L178.033-6.24 178.801 0 186.001 0 186.001-32.064C186.001-44.928 180.625-53.472 167.953-53.472 159.601-53.472 152.209-49.728 147.409-46.656L150.865-40.608C154.993-43.392 160.465-46.176 166.513-46.176 175.057-46.176 177.265-39.744 177.265-33.024 155.089-30.528 145.201-24.864 145.201-13.536 145.201-4.128 151.729 1.248 160.465 1.248ZM162.961-5.76C157.777-5.76 153.745-8.16 153.745-14.112 153.745-20.832 159.697-25.152 177.265-27.264L177.265-12.672C172.177-8.16 168.049-5.76 162.961-5.76ZM216.264 1.248C228.552 1.248 235.272-5.76 235.272-14.208 235.272-24.096 226.92-27.168 219.336-30.048 213.48-32.256 207.816-34.08 207.816-39.072 207.816-43.104 210.792-46.56 217.32-46.56 222.024-46.56 225.672-44.64 229.32-41.952L233.544-47.616C229.416-50.784 223.752-53.472 217.32-53.472 205.992-53.472 199.368-46.944 199.368-38.688 199.368-29.856 207.624-26.304 214.92-23.616 220.68-21.408 226.824-19.008 226.824-13.728 226.824-9.216 223.464-5.568 216.552-5.568 210.312-5.568 205.608-8.064 201.096-11.712L196.776-5.952C201.768-1.824 208.872 1.248 216.264 1.248ZM268.656 1.248C275.76 1.248 281.328-1.152 285.936-4.128L282.768-9.888C278.928-7.296 274.8-5.76 269.712-5.76 259.824-5.76 253.008-12.864 252.432-24L287.568-24C287.76-25.248 287.952-27.072 287.952-28.992 287.952-43.872 280.464-53.472 267.216-53.472 255.12-53.472 243.696-42.912 243.696-26.016 243.696-8.832 254.832 1.248 268.656 1.248ZM252.336-30.24C253.392-40.512 259.92-46.464 267.312-46.464 275.472-46.464 280.272-40.8 280.272-30.24ZM350.715 1.248C360.219 1.248 367.995-2.208 372.507-6.912L372.507-36.48 349.467-36.48 349.467-29.088 364.347-29.088 364.347-10.656C361.563-8.064 356.667-6.528 351.579-6.528 336.507-6.528 328.155-17.664 328.155-35.424 328.155-52.992 337.371-63.936 351.483-63.936 358.683-63.936 363.195-60.96 366.747-57.216L371.547-62.976C367.515-67.296 361.083-71.712 351.291-71.712 332.667-71.712 319.035-57.888 319.035-35.136 319.035-12.288 332.187 1.248 350.715 1.248ZM403.633 1.248C410.833 1.248 416.017-2.496 420.913-8.16L421.201-8.16 421.873 0 429.169 0 429.169-52.128 420.433-52.128 420.433-15.168C415.441-8.928 411.697-6.336 406.321-6.336 399.409-6.336 396.529-10.464 396.529-20.16L396.529-52.128 387.793-52.128 387.793-19.104C387.793-5.856 392.689 1.248 403.633 1.248ZM467.823 1.248C474.927 1.248 480.495-1.152 485.103-4.128L481.935-9.888C478.095-7.296 473.967-5.76 468.879-5.76 458.991-5.76 452.175-12.864 451.599-24L486.735-24C486.927-25.248 487.119-27.072 487.119-28.992 487.119-43.872 479.631-53.472 466.383-53.472 454.287-53.472 442.863-42.912 442.863-26.016 442.863-8.832 453.999 1.248 467.823 1.248ZM451.503-30.24C452.559-40.512 459.087-46.464 466.479-46.464 474.639-46.464 479.439-40.8 479.439-30.24ZM513.597 1.248C525.885 1.248 532.605-5.76 532.605-14.208 532.605-24.096 524.253-27.168 516.669-30.048 510.813-32.256 505.149-34.08 505.149-39.072 505.149-43.104 508.125-46.56 514.653-46.56 519.357-46.56 523.005-44.64 526.653-41.952L530.877-47.616C526.749-50.784 521.085-53.472 514.653-53.472 503.325-53.472 496.701-46.944 496.701-38.688 496.701-29.856 504.957-26.304 512.253-23.616 518.013-21.408 524.157-19.008 524.157-13.728 524.157-9.216 520.797-5.568 513.885-5.568 507.645-5.568 502.941-8.064 498.429-11.712L494.109-5.952C499.101-1.824 506.205 1.248 513.597 1.248ZM558.597 1.248C570.885 1.248 577.605-5.76 577.605-14.208 577.605-24.096 569.253-27.168 561.669-30.048 555.813-32.256 550.149-34.08 550.149-39.072 550.149-43.104 553.125-46.56 559.653-46.56 564.357-46.56 568.005-44.64 571.653-41.952L575.877-47.616C571.749-50.784 566.085-53.472 559.653-53.472 548.325-53.472 541.701-46.944 541.701-38.688 541.701-29.856 549.957-26.304 557.253-23.616 563.013-21.408 569.157-19.008 569.157-13.728 569.157-9.216 565.797-5.568 558.885-5.568 552.645-5.568 547.941-8.064 543.429-11.712L539.109-5.952C544.101-1.824 551.205 1.248 558.597 1.248ZM620.969-28.608 624.425-39.36C626.921-47.328 629.225-54.912 631.433-63.168L631.817-63.168C634.121-55.008 636.329-47.328 638.921-39.36L642.281-28.608ZM651.209 0 660.617 0 636.713-70.368 626.825-70.368 602.921 0 611.945 0 618.761-21.504 644.489-21.504ZM699.843 0 710.403 0 720.867-42.432C722.019-48 723.267-53.088 724.419-58.464L724.803-58.464C725.955-53.088 727.011-48 728.259-42.432L738.915 0 749.571 0 764.163-70.368 755.619-70.368 748.227-32.064C746.883-24.576 745.539-16.992 744.195-9.312L743.715-9.312C742.083-16.992 740.451-24.576 738.723-32.064L728.835-70.368 720.771-70.368 711.075-32.064C709.347-24.48 707.619-16.896 705.987-9.312L705.603-9.312C704.259-16.896 702.819-24.48 701.475-32.064L694.083-70.368 684.867-70.368ZM795.888 1.248C808.656 1.248 820.08-8.736 820.08-26.016 820.08-43.392 808.656-53.472 795.888-53.472 783.12-53.472 771.696-43.392 771.696-26.016 771.696-8.736 783.12 1.248 795.888 1.248ZM795.888-6.048C786.864-6.048 780.816-14.016 780.816-26.016 780.816-38.016 786.864-46.176 795.888-46.176 804.912-46.176 811.056-38.016 811.056-26.016 811.056-14.016 804.912-6.048 795.888-6.048ZM833.799 0 842.535 0 842.535-33.504C845.991-42.432 851.367-45.504 855.687-45.504 857.799-45.504 859.047-45.312 860.775-44.64L862.407-52.32C860.775-53.184 859.143-53.472 856.839-53.472 850.983-53.472 845.703-49.248 842.055-42.624L841.767-42.624 840.999-52.128 833.799-52.128ZM887.672 1.248C893.912 1.248 899.384-2.112 903.512-6.144L903.704-6.144 904.568 0 911.672 0 911.672-76.416 902.936-76.416 902.936-56.352 903.416-47.328C898.808-51.168 894.872-53.472 888.728-53.472 876.824-53.472 866.168-42.912 866.168-26.016 866.168-8.64 874.616 1.248 887.672 1.248ZM889.592-6.048C880.376-6.048 875.192-13.536 875.192-26.112 875.192-38.016 881.816-46.08 890.264-46.08 894.584-46.08 898.52-44.544 902.936-40.608L902.936-13.248C898.616-8.448 894.392-6.048 889.592-6.048Z" transform="translate(58.3712 120)"/></g></g><text font-family="Source Han Sans SC Regular,Source Han Sans SC Regular_MSFontService,sans-serif" font-weight="400" font-size="96" transform="translate(100.6 520)">Please Guess A Word</text></g></svg>