<svg width="1280" height="720" xmlns="http://www.w3.org/2000/svg" xmlns:xlink="http://www.w3.org/1999/xlink" overflow="hidden"><g><rect x="0" y="0" width="1280" height="720" fill="#50C16D" fill-opacity="0"/><path d="M0 0 1280 0 1280 720 0 720Z" fill="#1270F8" fill-rule="evenodd" fill-opacity="0"/><path d="M19 394.5C19 341.205 62.2045 298 115.5 298 168.795 298 212 341.205 212 394.5 212 447.795 168.795 491 115.5 491 62.2045 491 19 447.795 19 394.5Z" fill="#50C16D" fill-rule="evenodd"/><path d="M232.5 439.5 605.5 439.5" stroke="#FFFFFF" stroke-width="0.666667" stroke-miterlimit="8" fill="none" fill-rule="evenodd"/><path d="M288.5 412.5 288.5 466.5" stroke="#FFFFFF" stroke-width="0.666667" stroke-miterlimit="8" fill="none" fill-rule="evenodd"/><path d="M1225.5 229C1225.5 247.502 1240.5 262.5 1259 262.5 1240.5 262.5 1225.5 277.498 1225.5 296 1225.5 277.498 1210.5 262.5 1192 262.5 1210.5 262.5 1225.5 247.502 1225.5 229Z" fill="#FFFFFF" fill-rule="evenodd"/><path d="M1044 409 1202 409 1202 424 1044 424Z" fill="#FFFFFF" fill-rule="evenodd"/><path d="M1223 409 1261 409 1261 424 1223 424Z" fill="#FFFFFF" fill-rule="evenodd"/></g></svg>