<svg width="1280" height="720" xmlns="http://www.w3.org/2000/svg" xmlns:xlink="http://www.w3.org/1999/xlink" overflow="hidden"><g><rect x="0" y="0" width="1280" height="720" fill="#1270F8" fill-opacity="0"/><path d="M19 394.5C19 341.205 62.2045 298 115.5 298 168.795 298 212 341.205 212 394.5 212 447.795 168.795 491 115.5 491 62.2045 491 19 447.795 19 394.5Z" fill="#FB3BE8" fill-rule="evenodd"/><path d="M232.5 439.5 604.535 439.5" stroke="#FFFFFF" stroke-width="0.666667" stroke-miterlimit="8" fill="none" fill-rule="evenodd"/><path d="M288.5 412.5 288.5 466.165" stroke="#FFFFFF" stroke-width="0.666667" stroke-miterlimit="8" fill="none" fill-rule="evenodd"/><path d="M1225.5 229C1225.5 247.502 1240.5 262.5 1259 262.5 1240.5 262.5 1225.5 277.498 1225.5 296 1225.5 277.498 1210.5 262.5 1192 262.5 1210.5 262.5 1225.5 247.502 1225.5 229Z" fill="#FFFFFF" fill-rule="evenodd"/><rect x="1044" y="409" width="158" height="15" fill="#FFFFFF"/><rect x="1223" y="409" width="38" height="15" fill="#FFFFFF"/></g></svg>