<svg width="1280" height="720" xmlns="http://www.w3.org/2000/svg" xmlns:xlink="http://www.w3.org/1999/xlink" overflow="hidden"><defs><clipPath id="clip0"><rect x="0" y="0" width="1280" height="720"/></clipPath></defs><g clip-path="url(#clip0)"><rect x="0" y="0" width="1280" height="720" fill="#1270F8"/><text fill="#FFFFFF" font-family="Source Han Sans SC Heavy,Source Han Sans SC Heavy_MSFontService,sans-serif" font-weight="900" font-size="128" transform="matrix(6.12323e-17 1 -1 6.12323e-17 1166.8 173)">CHARADES</text><text fill="#FFFFFF" font-family="Source Han Sans SC Heavy,Source Han Sans SC Heavy_MSFontService,sans-serif" font-weight="900" font-size="128" transform="matrix(6.12323e-17 1 -1 6.12323e-17 26.8975 23)">CHARADES</text><path d="M981.117-23.2439 981.117 105.185 999.467 105.185C1018.58 105.042 1032.86 99.3693 1042.33 88.1659 1051.79 76.9625 1056.52 61.0837 1056.51 40.5296 1056.52 19.9156 1051.79 4.15623 1042.33-6.74863 1032.86-17.6535 1018.58-23.1519 999.467-23.2439ZM870.778-23.2439C868.241-13.8146 865.636-4.61954 862.962 4.34135 860.287 13.3022 857.516 22.3321 854.648 31.4308L846.694 56.1227 895.745 56.1227 888.012 31.4308C885.052 22.3183 882.244 13.2609 879.588 4.25867 876.932-4.74356 874.29-13.9111 871.662-23.2439ZM707.117-23.2439 707.117 36.6747 734.311 36.6747C747.075 36.6885 756.812 34.1277 763.523 28.9922 770.234 23.8567 773.615 16.064 773.666 5.61407 773.615-4.93684 770.234-12.4175 763.523-16.8279 756.812-21.2383 747.075-23.377 734.311-23.2439ZM595.778-23.2439C593.241-13.8146 590.636-4.61954 587.962 4.34135 585.287 13.3022 582.516 22.3321 579.648 31.4308L571.694 56.1227 620.745 56.1227 613.012 31.4308C610.052 22.3183 607.244 13.2609 604.588 4.25867 601.932-4.74356 599.29-13.9111 596.662-23.2439ZM1112.59-40.0123 1206.05-40.0123 1206.05-22.5809 1133.12-22.5809 1133.12 28.0557 1194.56 28.0557 1194.56 45.4871 1133.12 45.4871 1133.12 104.522 1208.48 104.522 1208.48 121.953 1112.59 121.953ZM960.592-40.0123 1001.24-40.0123C1026.18-39.8698 1045.14-32.8731 1058.12-19.022 1071.09-5.17104 1077.62 14.6795 1077.69 40.5296 1077.6 66.3198 1071.11 86.2897 1058.23 100.439 1045.35 114.589 1026.64 121.76 1002.12 121.953L960.592 121.953ZM860.172-40.0123 882.93-40.0123 937.948 121.953 916.294 121.953 900.827 72.4491 841.612 72.4491 825.924 121.953 805.155 121.953ZM686.592-40.0123 737.407-40.0123C754.176-40.2181 767.721-36.8278 778.042-29.8411 788.363-22.8544 793.672-11.036 793.97 5.61407 793.824 18.1618 790.475 28.2059 783.925 35.7466 777.374 43.2872 768.501 48.377 757.305 51.0158L798.832 121.953 775.652 121.953 736.301 53.2221 707.117 53.2221 707.117 121.953 686.592 121.953ZM585.172-40.0123 607.93-40.0123 662.948 121.953 641.294 121.953 625.827 72.4491 566.612 72.4491 550.924 121.953 530.155 121.953ZM390.592-40.0123 411.117-40.0123 411.117 27.8347 486.727 27.8347 486.727-40.0123 507.031-40.0123 507.031 121.953 486.727 121.953 486.727 45.4871 411.117 45.4871 411.117 121.953 390.592 121.953ZM1289.65-43.1062C1299.34-43.0144 1308.26-41.157 1316.42-37.5342 1324.59-33.9114 1331.57-29.0743 1337.38-23.023L1326.57-9.98123C1321.62-14.6785 1316.1-18.3809 1310.02-21.0885 1303.93-23.7962 1297.15-25.1776 1289.65-25.2329 1280.36-25.15 1273.02-22.9949 1267.62-18.7675 1262.23-14.5402 1259.48-8.73781 1259.36-1.36039 1259.69 6.29798 1262.57 12.0913 1268.01 16.0194 1273.45 19.9476 1279.48 23.1436 1286.11 25.6074L1309.33 35.5545C1318.93 39.432 1326.84 44.6635 1333.05 51.2488 1339.25 57.8342 1342.46 67.0445 1342.68 78.8797 1342.5 92.0123 1337.56 102.875 1327.85 111.468 1318.15 120.062 1304.75 124.514 1287.66 124.826 1276.12 124.748 1265.55 122.587 1255.95 118.343 1246.35 114.099 1237.99 108.239 1230.88 100.763L1243.25 86.8374C1249.08 92.9945 1255.85 97.8668 1263.57 101.454 1271.28 105.042 1279.39 106.874 1287.88 106.953 1298.59 106.842 1306.91 104.411 1312.87 99.6582 1318.82 94.9057 1321.84 88.4953 1321.93 80.4271 1321.76 72.4049 1319.17 66.3998 1314.16 62.4117 1309.16 58.4237 1302.76 54.8501 1294.96 51.6909L1271.52 41.5228C1266.38 39.4296 1261.31 36.6406 1256.31 33.1557 1251.31 29.6708 1247.14 25.228 1243.81 19.8274 1240.47 14.4268 1238.74 7.80624 1238.61-0.0341034 1238.9-12.7568 1243.73-23.0578 1253.1-30.937 1262.48-38.8163 1274.66-42.8727 1289.65-43.1062ZM312.107-43.1062C321.983-42.9178 330.685-40.8674 338.213-36.955 345.741-33.0426 351.846-28.3986 356.528-23.023L345.478-9.76018C341.293-14.3699 336.459-18.0816 330.975-20.8951 325.491-23.7087 319.276-25.1546 312.328-25.2329 296.761-25.0257 284.413-19.1404 275.283-7.57704 266.153 3.98632 261.484 19.9845 261.277 40.4175 261.443 61.0808 265.973 77.2818 274.869 89.0203 283.764 100.759 296.029 106.736 311.665 106.953 319.35 106.902 326.247 105.29 332.356 102.117 338.466 98.9444 344.092 94.5142 349.235 88.8269L360.506 101.648C354.139 109.086 346.873 114.798 338.71 118.784 330.547 122.771 321.237 124.785 310.781 124.826 297.249 124.766 285.2 121.426 274.634 114.805 264.069 108.184 255.738 98.6407 249.642 86.1743 243.546 73.708 240.435 58.6767 240.31 41.0807 240.435 23.5488 243.595 8.51212 249.789-4.02921 255.984-16.5705 264.462-26.2014 275.224-32.9218 285.986-39.6423 298.28-43.037 312.107-43.1062Z" stroke="#FFFFFF" stroke-linejoin="round" stroke-miterlimit="10" fill="none" fill-rule="evenodd"/><text fill="#000000" fill-opacity="0" font-family="Arial,Arial_MSFontService,sans-serif" font-size="167.932" x="240.31" y="103.835">CHARADES</text></g></svg>