<svg width="1280" height="720" xmlns="http://www.w3.org/2000/svg" xmlns:xlink="http://www.w3.org/1999/xlink" overflow="hidden"><defs><filter id="fx0" x="-10%" y="-10%" width="120%" height="120%" filterUnits="userSpaceOnUse" primitiveUnits="userSpaceOnUse"><feComponentTransfer color-interpolation-filters="sRGB"><feFuncR type="discrete" tableValues="0 0"/><feFuncG type="discrete" tableValues="0 0"/><feFuncB type="discrete" tableValues="0 0"/><feFuncA type="linear" slope="0.4" intercept="0"/></feComponentTransfer><feGaussianBlur stdDeviation="0 0"/></filter><filter id="fx1" x="-10%" y="-10%" width="120%" height="120%" filterUnits="userSpaceOnUse" primitiveUnits="userSpaceOnUse"><feComponentTransfer color-interpolation-filters="sRGB"><feFuncR type="discrete" tableValues="0 0"/><feFuncG type="discrete" tableValues="0 0"/><feFuncB type="discrete" tableValues="0 0"/><feFuncA type="linear" slope="0.4" intercept="0"/></feComponentTransfer><feGaussianBlur stdDeviation="0 0"/></filter><filter id="fx2" x="-10%" y="-10%" width="120%" height="120%" filterUnits="userSpaceOnUse" primitiveUnits="userSpaceOnUse"><feComponentTransfer color-interpolation-filters="sRGB"><feFuncR type="discrete" tableValues="0 0"/><feFuncG type="discrete" tableValues="0 0"/><feFuncB type="discrete" tableValues="0 0"/><feFuncA type="linear" slope="0.4" intercept="0"/></feComponentTransfer><feGaussianBlur stdDeviation="0 0"/></filter><clipPath id="clip3"><rect x="1" y="1" width="365" height="53"/></clipPath><clipPath id="clip4"><rect x="86" y="58" width="409" height="134"/></clipPath></defs><g><rect x="0" y="0" width="1280" height="720" fill="#FFFFFF" fill-opacity="0"/><g clip-path="url(#clip3)" filter="url(#fx0)" transform="translate(21 402)"><g><path d="M1.27129 27.2713 365.016 27.2714" stroke="#000000" stroke-width="3" stroke-miterlimit="8" fill-rule="evenodd"/><path d="M56.2713 1.2713 56.2714 53.7404" stroke="#000000" stroke-width="3" stroke-miterlimit="8" fill-rule="evenodd"/></g></g><path d="M18.5001 425.5 382.244 425.5" stroke="#000000" stroke-width="3.33333" stroke-miterlimit="8" fill-rule="evenodd"/><path d="M73.5001 399.5 73.5002 451.969" stroke="#000000" stroke-width="3.33333" stroke-miterlimit="8" fill-rule="evenodd"/><g filter="url(#fx1)" transform="translate(3 172)"><g><path d="M27.7712 0.77124C27.7712 20.9297 39.8595 37.2712 54.7712 37.2712 39.8595 37.2712 27.7712 53.6128 27.7712 73.7712 27.7712 53.6128 15.6829 37.2712 0.771236 37.2712 15.6829 37.2712 27.7712 20.9297 27.7712 0.77124Z" fill-rule="evenodd"/></g></g><path d="M27 169C27 189.158 39.0883 205.5 54 205.5 39.0883 205.5 27 221.842 27 242 27 221.842 14.9117 205.5 0 205.5 14.9117 205.5 27 189.158 27 169Z" fill-rule="evenodd"/><g clip-path="url(#clip4)" filter="url(#fx2)" transform="translate(693 196)"><g><path d="M36.68-118.3C34.86-114.66 32.62-110.88 30.24-107.1 26.6-111.44 22.26-115.64 17.22-119.7L3.08-108.78C9.8-103.32 14.84-97.72 18.76-91.98 13.44-85.96 7.7-80.5 1.68-76.44 6.02-73.22 12.6-67.06 15.68-63 19.6-65.94 23.38-69.3 27.16-72.94 28-69.86 28.56-66.64 28.98-63.28 22.26-52.64 11.48-41.3 1.82-35.28 6.58-31.64 12.18-25.06 15.4-20.3 20.16-24.22 25.34-29.4 30.1-35.14 29.82-22.12 28.7-11.9 26.32-8.82 25.2-7.28 23.94-6.44 21.84-6.16 18.9-5.88 14-5.74 6.72-6.3 10.22-0.56 12.04 6.58 12.04 13.16 19.32 13.44 25.62 13.3 31.5 11.62 35.14 10.64 38.5 8.54 41.02 5.32 47.88-4.06 49.42-23.38 49.42-42.7 49.42-59.08 48.16-74.62 41.58-89.32 46.34-95.62 50.82-102.48 54.74-109.34ZM79.52-26.04 79.52-30.24 107.24-30.24 107.24-26.04ZM107.24-47.04 107.24-43.54 79.52-43.54 79.52-47.04ZM127.4-61.18 59.78-61.18 59.78 11.06 79.52 11.06 79.52-12.74 107.24-12.74 107.24-10.22C107.24-8.54 106.68-8.12 104.86-7.98 103.18-7.98 97.16-7.98 92.96-8.26 95.2-3.78 97.58 3.22 98.42 8.26 107.52 8.26 114.66 8.12 120.12 5.46 125.72 2.8 127.4-1.54 127.4-9.94ZM103.04-78.96 103.04-82.46 127.82-82.46 127.82-95.62 103.04-95.62 103.04-98.98 130.9-98.98 130.9-113.26 103.04-113.26 103.04-119.7 82.18-119.7 82.18-113.26 55.86-113.26 55.86-98.98 82.18-98.98 82.18-95.62 58.38-95.62 58.38-82.46 82.18-82.46 82.18-78.96 51.24-78.96 51.24-64.82 135.1-64.82 135.1-78.96Z" transform="translate(85.2569 178)"/><path d="M53.9-104.86 50.4-104.16 8.68-104.16 8.68-84.84 45.08-84.84C43.54-75.6 41.44-66.78 38.92-58.38 32.76-63.98 26.6-69.44 20.72-74.2L6.86-61.04C14.84-54.18 23.24-46.2 31.08-37.94 23.94-23.24 14.84-11.34 3.5-3.64 8.26 0.14 14.56 7.84 17.78 13.02 29.26 4.06 38.5-7.28 45.92-20.86 50.82-14.84 54.74-9.1 57.54-3.92L73.36-19.32C69.3-26.32 62.86-34.3 55.3-42.28 61.18-59.22 65.1-78.68 67.2-101.08ZM65.24-53.34C71.4-43.96 77.42-31.36 79.38-23.24L96.88-32.2C94.64-40.6 87.92-52.36 81.48-61.32ZM135.94-89.88 121.94-89.88 121.94-119.7 101.78-119.7 101.78-89.88 68.46-89.88 68.46-70.42 101.78-70.42 101.78-11.48C101.78-9.1 100.94-8.4 98.56-8.4 96.04-8.4 88.62-8.4 81.34-8.82 84.14-2.66 87.08 7.14 87.64 13.16 99.26 13.16 108.22 12.32 114.24 8.82 120.12 5.32 121.94-0.42 121.94-11.34L121.94-70.42 135.94-70.42ZM253.12-111.72 248.5-110.6 152.88-110.6 152.88-90.44 228.48-90.44C220.08-82.88 209.72-75.32 200.06-70L200.06-9.66C200.06-7.28 198.94-6.58 195.86-6.58 192.64-6.58 180.74-6.58 171.78-7 175-1.54 178.78 7.56 179.9 13.58 192.92 13.72 203.42 13.3 211.26 10.22 219.1 7.28 221.62 1.82 221.62-9.1L221.62-59.92C239.12-70.7 256.48-85.82 269.36-99.54Z" transform="translate(225.257 178)"/></g></g><text font-family="Source Han Sans SC Heavy,Source Han Sans SC Heavy_MSFontService,sans-serif" font-weight="900" font-size="140" transform="translate(772.6 368)">猜</text><text font-family="Source Han Sans SC Heavy,Source Han Sans SC Heavy_MSFontService,sans-serif" font-weight="900" font-size="140" transform="translate(912.6 368)">对了</text></g></svg>