<svg width="1280" height="720" xmlns="http://www.w3.org/2000/svg" xmlns:xlink="http://www.w3.org/1999/xlink" overflow="hidden"><defs><filter id="fx0" x="-10%" y="-10%" width="120%" height="120%" filterUnits="userSpaceOnUse" primitiveUnits="userSpaceOnUse"><feComponentTransfer color-interpolation-filters="sRGB"><feFuncR type="discrete" tableValues="0 0"/><feFuncG type="discrete" tableValues="0 0"/><feFuncB type="discrete" tableValues="0 0"/><feFuncA type="linear" slope="0.4" intercept="0"/></feComponentTransfer><feGaussianBlur stdDeviation="0 0"/></filter><filter id="fx1" x="-10%" y="-10%" width="120%" height="120%" filterUnits="userSpaceOnUse" primitiveUnits="userSpaceOnUse"><feComponentTransfer color-interpolation-filters="sRGB"><feFuncR type="discrete" tableValues="0 0"/><feFuncG type="discrete" tableValues="0 0"/><feFuncB type="discrete" tableValues="0 0"/><feFuncA type="linear" slope="0.4" intercept="0"/></feComponentTransfer><feGaussianBlur stdDeviation="0 0"/></filter><filter id="fx2" x="-10%" y="-10%" width="120%" height="120%" filterUnits="userSpaceOnUse" primitiveUnits="userSpaceOnUse"><feComponentTransfer color-interpolation-filters="sRGB"><feFuncR type="discrete" tableValues="0 0"/><feFuncG type="discrete" tableValues="0 0"/><feFuncB type="discrete" tableValues="0 0"/><feFuncA type="linear" slope="0.4" intercept="0"/></feComponentTransfer><feGaussianBlur stdDeviation="0 0"/></filter><filter id="fx3" x="-10%" y="-10%" width="120%" height="120%" filterUnits="userSpaceOnUse" primitiveUnits="userSpaceOnUse"><feComponentTransfer color-interpolation-filters="sRGB"><feFuncR type="discrete" tableValues="0 0"/><feFuncG type="discrete" tableValues="0 0"/><feFuncB type="discrete" tableValues="0 0"/><feFuncA type="linear" slope="0.4" intercept="0"/></feComponentTransfer><feGaussianBlur stdDeviation="0 0"/></filter><clipPath id="clip4"><rect x="92" y="61" width="1146" height="147"/></clipPath><clipPath id="clip5"><rect x="1" y="1" width="365" height="53"/></clipPath><clipPath id="clip6"><rect x="60" y="49" width="207" height="72"/></clipPath></defs><g><rect x="0" y="0" width="1280" height="720" fill="#1270F8" fill-opacity="0"/><g clip-path="url(#clip4)" filter="url(#fx0)" transform="translate(21 217)"><g><path d="M56.14 1.96C69.72 1.96 81.34-3.22 90.16-13.44L77-29.12C72.1-23.8 65.52-19.6 57.12-19.6 42.42-19.6 32.9-31.64 32.9-52.36 32.9-72.66 43.96-84.7 57.4-84.7 64.82-84.7 70.28-81.34 75.6-76.58L88.62-92.54C81.48-99.82 70.56-106.12 56.98-106.12 30.52-106.12 7.28-86.24 7.28-51.52 7.28-16.24 29.68 1.96 56.14 1.96ZM103.413 0 128.333 0 128.333-79.66 103.413-79.66ZM115.873-90.72C124.133-90.72 129.733-95.76 129.733-103.6 129.733-111.3 124.133-116.34 115.873-116.34 107.473-116.34 102.013-111.3 102.013-103.6 102.013-95.76 107.473-90.72 115.873-90.72ZM148.413 28.98 173.333 28.98 173.333 6.16 172.493-6.3C177.813-0.98 184.253 1.96 190.973 1.96 208.053 1.96 224.433-13.72 224.433-41.16 224.433-65.66 212.393-81.62 193.353-81.62 185.093-81.62 177.253-77.56 170.953-71.96L170.533-71.96 168.713-79.66 148.413-79.66ZM185.093-18.48C181.313-18.48 177.253-19.6 173.333-23.1L173.333-54.6C177.533-59.22 181.313-61.32 185.933-61.32 194.753-61.32 198.813-54.74 198.813-40.74 198.813-24.78 192.653-18.48 185.093-18.48ZM240.58 0 265.5 0 265.5-53.2C270.26-57.82 273.62-60.34 279.22-60.34 285.52-60.34 288.46-57.26 288.46-46.2L288.46 0 313.38 0 313.38-49.28C313.38-69.16 305.96-81.62 288.6-81.62 277.82-81.62 269.98-76.16 264.24-70.84L265.5-84.98 265.5-111.86 240.58-111.86ZM368.867 1.96C378.107 1.96 389.027-1.26 397.287-7.14L389.027-22.12C383.287-18.76 377.967-17.08 372.227-17.08 362.147-17.08 354.587-21.56 352.347-32.48L399.107-32.48C399.667-34.44 400.227-38.78 400.227-43.26 400.227-64.96 389.027-81.62 366.067-81.62 346.887-81.62 328.267-65.66 328.267-39.9 328.267-13.44 345.907 1.96 368.867 1.96ZM351.927-48.86C353.607-58.24 359.627-62.58 366.487-62.58 375.587-62.58 379.087-56.7 379.087-48.86ZM416.247 0 441.167 0 441.167-45.5C445.227-56 452.367-59.78 458.247-59.78 461.747-59.78 464.127-59.22 467.067-58.52L471.127-79.94C468.887-80.92 466.227-81.62 461.467-81.62 453.487-81.62 444.667-76.44 438.787-65.8L438.367-65.8 436.547-79.66 416.247-79.66ZM559.307 1.96C572.887 1.96 584.507-3.22 593.327-13.44L580.167-29.12C575.267-23.8 568.687-19.6 560.287-19.6 545.587-19.6 536.067-31.64 536.067-52.36 536.067-72.66 547.127-84.7 560.567-84.7 567.987-84.7 573.447-81.34 578.767-76.58L591.787-92.54C584.647-99.82 573.727-106.12 560.147-106.12 533.687-106.12 510.447-86.24 510.447-51.52 510.447-16.24 532.847 1.96 559.307 1.96ZM606.58 0 631.5 0 631.5-53.2C636.26-57.82 639.62-60.34 645.22-60.34 651.52-60.34 654.46-57.26 654.46-46.2L654.46 0 679.38 0 679.38-49.28C679.38-69.16 671.96-81.62 654.6-81.62 643.82-81.62 635.98-76.16 630.24-70.84L631.5-84.98 631.5-111.86 606.58-111.86ZM718.907 1.96C727.727 1.96 735.147-2.1 741.727-7.98L742.427-7.98 744.107 0 764.407 0 764.407-45.22C764.407-70.14 752.787-81.62 732.207-81.62 719.747-81.62 708.407-77.42 697.907-71.12L706.587-54.74C714.567-59.22 721.147-61.74 727.447-61.74 735.567-61.74 738.927-57.96 739.487-51.52 708.407-48.16 695.247-39.06 695.247-22.26 695.247-8.96 704.207 1.96 718.907 1.96ZM727.447-17.36C722.267-17.36 718.907-19.6 718.907-24.22 718.907-29.82 723.947-34.44 739.487-36.4L739.487-23.66C735.847-19.74 732.487-17.36 727.447-17.36ZM783.58 0 808.5 0 808.5-53.2C813.12-58.1 817.46-60.34 821.1-60.34 827.4-60.34 830.34-57.26 830.34-46.2L830.34 0 855.26 0 855.26-53.2C860.02-58.1 864.36-60.34 868-60.34 874.3-60.34 877.1-57.26 877.1-46.2L877.1 0 902.02 0 902.02-49.28C902.02-69.16 894.46-81.62 877.1-81.62 866.46-81.62 859.04-75.46 852.18-68.46 848.12-77 841.4-81.62 830.34-81.62 819.56-81.62 812.7-76.16 806.12-69.58L805.7-69.58 803.88-79.66 783.58-79.66ZM963.973 1.96C981.053 1.96 997.433-13.72 997.433-41.3 997.433-65.66 985.253-81.62 966.213-81.62 958.933-81.62 951.513-78.4 945.633-73.08L946.333-84.98 946.333-111.86 921.413-111.86 921.413 0 940.873 0 942.833-8.54 943.533-8.54C949.693-1.68 956.973 1.96 963.973 1.96ZM958.093-18.48C954.313-18.48 950.113-19.6 946.333-23.1L946.333-54.6C950.533-59.22 954.313-61.32 958.933-61.32 967.753-61.32 971.813-54.74 971.813-40.74 971.813-24.78 965.653-18.48 958.093-18.48ZM1049.7 1.96C1058.94 1.96 1069.86-1.26 1078.12-7.14L1069.86-22.12C1064.12-18.76 1058.8-17.08 1053.06-17.08 1042.98-17.08 1035.42-21.56 1033.18-32.48L1079.94-32.48C1080.5-34.44 1081.06-38.78 1081.06-43.26 1081.06-64.96 1069.86-81.62 1046.9-81.62 1027.72-81.62 1009.1-65.66 1009.1-39.9 1009.1-13.44 1026.74 1.96 1049.7 1.96ZM1032.76-48.86C1034.44-58.24 1040.46-62.58 1047.32-62.58 1056.42-62.58 1059.92-56.7 1059.92-48.86ZM1097.08 0 1122 0 1122-45.5C1126.06-56 1133.2-59.78 1139.08-59.78 1142.58-59.78 1144.96-59.22 1147.9-58.52L1151.96-79.94C1149.72-80.92 1147.06-81.62 1142.3-81.62 1134.32-81.62 1125.5-76.44 1119.62-65.8L1119.2-65.8 1117.38-79.66 1097.08-79.66Z" fill="#FFFFFF" transform="translate(85.2569 178)"/></g></g><text fill="#FFFFFF" font-family="Source Han Sans SC Heavy,Source Han Sans SC Heavy_MSFontService,sans-serif" font-weight="900" font-size="140" transform="translate(100.6 389)">Cipher Chamber</text><g clip-path="url(#clip5)" filter="url(#fx1)" transform="translate(21 423)"><g><path d="M1.27129 28.2713 365.016 28.2714" stroke="#FFFFFF" stroke-width="3" stroke-miterlimit="8" fill="none" fill-rule="evenodd"/><path d="M56.2713 1.2713 56.2714 53.7404" stroke="#FFFFFF" stroke-width="3" stroke-miterlimit="8" fill="none" fill-rule="evenodd"/></g></g><path d="M18.5001 447.5 382.244 447.5" stroke="#FFFFFF" stroke-width="3.33333" stroke-miterlimit="8" fill="none" fill-rule="evenodd"/><path d="M73.5001 420.5 73.5002 472.969" stroke="#FFFFFF" stroke-width="3.33333" stroke-miterlimit="8" fill="none" fill-rule="evenodd"/><g filter="url(#fx2)" transform="translate(3 193)"><g><path d="M27.7712 0.77124C27.7712 20.9297 39.8595 37.2712 54.7712 37.2712 39.8595 37.2712 27.7712 53.6128 27.7712 73.7712 27.7712 53.6128 15.6829 37.2712 0.771236 37.2712 15.6829 37.2712 27.7712 20.9297 27.7712 0.77124Z" fill="#FFFFFF" fill-rule="evenodd"/></g></g><path d="M27 190C27 210.158 39.0883 226.5 54 226.5 39.0883 226.5 27 242.842 27 263 27 242.842 14.9117 226.5 0 226.5 14.9117 226.5 27 210.158 27 190Z" fill="#FFFFFF" fill-rule="evenodd"/><g clip-path="url(#clip6)" filter="url(#fx3)" transform="translate(46 425)"><g><path d="M11.04-26.4 27.072-50.4C29.088-53.856 31.008-57.312 32.736-60.768L33.12-60.768C32.928-57.12 32.544-51.456 32.544-48L32.544-26.4ZM50.208-26.4 40.896-26.4 40.896-70.368 31.2-70.368 1.92-25.152 1.92-19.392 32.544-19.392 32.544 0 40.896 0 40.896-19.392 50.208-19.392ZM80.1173 1.248C93.3653 1.248 102.197-6.72 102.197-16.992 102.197-26.592 96.4373-31.872 90.2933-35.424L90.2933-35.904C94.5173-39.168 99.7013-45.504 99.7013-52.896 99.7013-63.744 92.4053-71.424 80.4053-71.424 69.3653-71.424 61.1093-64.32 61.1093-53.568 61.1093-46.176 65.4293-40.896 70.6133-37.344L70.6133-36.864C64.1813-33.408 57.6533-26.88 57.6533-17.472 57.6533-6.624 67.1573 1.248 80.1173 1.248ZM84.9173-38.208C76.6613-41.472 69.0773-45.12 69.0773-53.568 69.0773-60.384 73.7813-64.992 80.2133-64.992 87.7973-64.992 92.2133-59.328 92.2133-52.416 92.2133-47.232 89.7173-42.432 84.9173-38.208ZM80.3093-5.28C71.8613-5.28 65.6213-10.752 65.6213-18.24 65.6213-24.96 69.5573-30.528 75.2213-34.176 85.2053-30.144 93.8453-26.592 93.8453-17.184 93.8453-10.176 88.3733-5.28 80.3093-5.28ZM135.563-5.568C126.731-5.568 121.451-13.536 120.395-28.128 125.003-34.656 130.379-37.152 134.795-37.152 143.339-37.152 147.467-31.104 147.467-21.6 147.467-12 142.283-5.568 135.563-5.568ZM154.475-64.512C150.635-68.64 145.355-71.712 138.059-71.712 124.427-71.712 112.043-61.152 112.043-33.6 112.043-10.368 122.027 1.248 135.563 1.248 146.507 1.248 155.723-7.968 155.723-21.6 155.723-36.288 148.139-43.68 136.235-43.68 130.667-43.68 124.523-40.416 120.203-35.136 120.587-57.024 128.747-64.416 138.347-64.416 142.667-64.416 146.891-62.4 149.675-59.04ZM185.056-33.216C176.704-33.216 172.48-39.36 172.48-48.864 172.48-58.464 177.664-64.8 184.384-64.8 193.408-64.8 198.784-57.12 199.744-42.624 195.04-35.904 189.76-33.216 185.056-33.216ZM165.568-5.952C169.504-1.824 174.88 1.248 182.464 1.248 195.712 1.248 208-9.696 208-38.208 208-60.576 197.92-71.712 184.384-71.712 173.44-71.712 164.224-62.496 164.224-48.864 164.224-34.272 171.904-26.688 183.616-26.688 189.568-26.688 195.616-30.144 199.84-35.424 199.168-13.536 191.296-6.048 182.176-6.048 177.664-6.048 173.344-8.064 170.368-11.424Z" fill="#FFFFFF" transform="translate(58.3712 120)"/></g></g><text fill="#FFFFFF" font-family="Source Han Sans SC Regular,Source Han Sans SC Regular_MSFontService,sans-serif" font-weight="400" font-size="96" transform="translate(100.6 541)">4869</text></g></svg>