<svg width="1280" height="720" xmlns="http://www.w3.org/2000/svg" xmlns:xlink="http://www.w3.org/1999/xlink" overflow="hidden"><g><rect x="0" y="0" width="1280" height="720" fill="#1270F8" fill-opacity="0"/><path d="M388 283.5C388 144.601 500.824 32 640 32 779.176 32 892 144.601 892 283.5 892 422.4 779.176 535.001 640 535.001 500.824 535.001 388 422.4 388 283.5ZM493.529 283.5C493.529 364.118 559.106 429.471 640 429.471 720.894 429.471 786.471 364.118 786.471 283.5 786.471 202.883 720.894 137.53 640 137.53 559.106 137.53 493.529 202.883 493.529 283.5Z" fill="#F16739" fill-rule="evenodd"/><path d="M283 0 255.066 0.169986 225.958 3.90854 199.656 7.58453 166.94 16.3935 145.424 22.3779 111.434 36.7039 93.4643 44.3896 69.2543 58.7147 45.0853 73.141 29.7652 85.2374 0.947496 108.239 0 109.217 102.081 220 102.765 219.455 103.413 218.785 121.119 204.805 130.549 197.278 130.97 197.027 131.372 196.709 146.332 187.857 161.409 178.858 161.885 178.654 162.302 178.408 173.315 173.766 194.184 164.841 195.088 164.589 195.89 164.251 208.814 160.771 228.397 155.324 229.742 155.136 231.094 154.772 246.541 152.788 263.573 150.408 265.15 150.398 266.765 150.191 283 150.29 299.235 150.191 300.85 150.398 302.427 150.408 319.459 152.788 334.906 154.772 336.257 155.136 337.603 155.324 357.186 160.771 370.11 164.251 370.912 164.589 371.816 164.841 392.685 173.766 403.698 178.408 404.115 178.654 404.591 178.858 419.668 187.857 434.628 196.709 435.03 197.027 435.45 197.278 444.881 204.805 462.586 218.785 463.235 219.455 463.918 220 566 109.217 565.052 108.239 536.235 85.2374 520.915 73.141 496.746 58.7147 472.535 44.3896 454.565 36.7039 420.576 22.3779 399.06 16.3935 366.344 7.58453 340.042 3.90854 310.933 0.169986Z" stroke="#000000" stroke-width="4.66667" stroke-miterlimit="8" fill="#F5E33F" fill-rule="evenodd" transform="matrix(-1 0 0 1 923.5 472.5)"/></g></svg>