<svg width="1280" height="720" xmlns="http://www.w3.org/2000/svg" xmlns:xlink="http://www.w3.org/1999/xlink" overflow="hidden"><defs><clipPath id="clip0"><rect x="0" y="0" width="1280" height="720"/></clipPath></defs><g clip-path="url(#clip0)"><rect x="0" y="0" width="1280" height="720" fill="#1270F8"/><path d="M984.773-9.45811C983.982-4.42232 983.083-0.537552 982.075 2.19618L957.04 71.6903 1013.15 71.6903 987.903 2.19618C987.111-0.0339508 986.248-3.91872 985.313-9.45811ZM684.773-9.45811C683.982-4.42232 683.083-0.537552 682.075 2.19618L657.04 71.6903 713.154 71.6903 687.903 2.19618C687.111-0.0339508 686.248-3.91872 685.313-9.45811ZM1107-11.6163 1107 117.228 1131.28 117.228C1152.5 117.228 1169.06 111.437 1180.97 99.8549 1192.88 88.2725 1198.83 72.05 1198.83 51.1874 1198.83 30.3248 1192.71 14.6418 1180.48 4.13857 1168.25-6.3647 1152.18-11.6163 1132.25-11.6163ZM806.997-11.94 806.997 47.0868 832.464 47.0868C842.32 47.0868 850.323 44.2092 856.474 38.454 862.625 32.6988 865.7 25.1451 865.7 15.7929 865.7 7.08812 862.895 0.28978 857.283-4.60216 851.672-9.49409 843.507-11.94 832.788-11.94ZM1254.42-30.8243 1340.53-30.8243 1340.53-11.6163 1276-11.6163 1276 41.9071 1335.78 41.9071 1335.78 61.0072 1276 61.0072 1276 117.228 1344.3 117.228 1344.3 136.329 1254.42 136.329ZM1085.42-30.8243 1133.11-30.8243C1158.43-30.8243 1179.49-23.4505 1196.29-8.70274 1213.09 6.04497 1221.49 25.8285 1221.49 50.6478 1221.49 76.5463 1213.09 97.301 1196.29 112.912 1179.49 128.523 1157.86 136.329 1131.39 136.329L1085.42 136.329ZM973.982-30.8243 997.075-30.8243 1060.74 136.329 1036.89 136.329 1019.84 90.5746 950.242 90.5746 934.163 136.329 910.315 136.329ZM785.415-30.8243 836.349-30.8243C852.607-30.8243 865.341-26.9036 874.549-19.0621 883.757-11.2207 888.362-0.249771 888.362 13.8505 888.362 37.0152 875.988 52.0507 851.24 58.9569L851.24 59.4965C855.845 61.4389 859.819 64.2086 863.165 67.8056 866.51 71.4026 870.844 77.5534 876.168 86.2582L907.462 136.329 881.995 136.329 854.262 89.9271C848.723 80.6469 843.651 74.3341 839.047 70.9889 834.443 67.6437 828.939 65.9711 822.536 65.9711L806.997 65.9711 806.997 136.329 785.415 136.329ZM673.982-30.8243 697.075-30.8243 760.742 136.329 736.894 136.329 719.844 90.5746 650.242 90.5746 634.163 136.329 610.315 136.329ZM458.415-30.8243 479.997-30.8243 479.997 41.7992 564.599 41.7992 564.599-30.8243 586.181-30.8243 586.181 136.329 564.599 136.329 564.599 61.0072 479.997 61.0072 479.997 136.329 458.415 136.329ZM1426.67-33.63C1443.29-33.63 1455.48-31.6157 1463.25-27.587L1463.25-4.06261C1453.18-11.0408 1440.45-14.5299 1425.05-14.5299 1414.84-14.5299 1406.51-12.3897 1400.07-8.10924 1393.63-3.82881 1390.41 2.12425 1390.41 9.74989 1390.41 16.5123 1392.65 22.0157 1397.11 26.2601 1401.57 30.5046 1411.24 36.2958 1426.13 43.6337 1442.54 51.4752 1454.01 59.3166 1460.56 67.1581 1467.1 74.9996 1470.38 83.8122 1470.38 93.5961 1470.38 108.272 1465.05 119.53 1454.41 127.372 1443.76 135.213 1428.97 139.134 1410.05 139.134 1403.44 139.134 1395.72 138.217 1386.91 136.382 1378.09 134.548 1371.67 132.264 1367.65 129.53L1367.65 104.927C1372.75 109.387 1379.59 113.056 1388.15 115.933 1396.71 118.811 1404.84 120.25 1412.54 120.25 1435.99 120.25 1447.72 111.905 1447.72 95.2147 1447.72 90.5386 1446.46 86.3301 1443.94 82.5892 1441.42 78.8484 1437.97 75.5391 1433.58 72.6615 1429.19 69.7839 1420.95 65.3596 1408.87 59.3886 1392.11 51.0435 1381.06 43.292 1375.74 36.1339 1370.42 28.9759 1367.75 20.7927 1367.75 11.5844 1367.75-2.30006 1373.33-13.3069 1384.48-21.4361 1395.63-29.5654 1409.69-33.63 1426.67-33.63ZM385.197-33.63C401.168-33.63 414.369-31.3639 424.8-26.8316L424.8-4.27843C412.858-10.8969 399.729-14.2062 385.413-14.2062 366.78-14.2062 351.601-8.00133 339.875 4.40834 328.148 16.818 322.285 33.5621 322.285 54.6405 322.285 74.6399 327.753 90.5206 338.688 102.283 349.623 114.045 363.939 119.926 381.636 119.926 398.182 119.926 412.57 116.185 424.8 108.704L424.8 129.422C412.498 135.897 397.067 139.134 378.507 139.134 354.551 139.134 335.414 131.527 321.098 116.311 306.782 101.096 299.624 80.9706 299.624 55.9354 299.624 29.0298 307.682 7.37587 323.796-9.02647 339.911-25.4288 360.378-33.63 385.197-33.63Z" stroke="#3A88F9" stroke-linejoin="round" stroke-miterlimit="10" fill="none" fill-rule="evenodd"/><text fill="#000000" fill-opacity="0" font-family="Arial,Arial_MSFontService,sans-serif" font-size="172.764" x="299.624" y="117.539">CHARADES</text><path d="M404.969 605.07C404.177 610.105 403.278 613.99 402.271 616.724L377.236 686.218 433.349 686.218 408.098 616.724C407.307 614.494 406.443 610.609 405.508 605.07ZM104.969 605.07C104.177 610.105 103.278 613.99 102.271 616.724L77.2357 686.218 133.349 686.218 108.098 616.724C107.307 614.494 106.443 610.609 105.508 605.07ZM527.193 602.911 527.193 731.756 551.473 731.756C572.695 731.756 589.259 725.965 601.165 714.383 613.071 702.8 619.024 686.578 619.024 665.715 619.024 644.853 612.909 629.17 600.68 618.666 588.45 608.163 572.371 602.911 552.444 602.911ZM227.193 602.588 227.193 661.615 252.66 661.615C262.515 661.615 270.519 658.737 276.67 652.982 282.82 647.227 285.896 639.673 285.896 630.321 285.896 621.616 283.09 614.818 277.479 609.926 271.868 605.034 263.702 602.588 252.983 602.588ZM674.611 583.703 760.723 583.703 760.723 602.911 696.193 602.911 696.193 656.435 755.975 656.435 755.975 675.535 696.193 675.535 696.193 731.756 764.5 731.756 764.5 750.856 674.611 750.856ZM505.611 583.703 553.307 583.703C578.63 583.703 599.69 591.077 616.488 605.825 633.286 620.573 641.685 640.356 641.685 665.176 641.685 691.074 633.286 711.829 616.488 727.44 599.69 743.051 578.054 750.856 551.58 750.856L505.611 750.856ZM394.178 583.703 417.27 583.703 480.937 750.856 457.089 750.856 440.039 705.102 370.437 705.102 354.359 750.856 330.511 750.856ZM205.611 583.703 256.544 583.703C272.803 583.703 285.536 587.624 294.745 595.466 303.953 603.307 308.557 614.278 308.557 628.378 308.557 651.543 296.183 666.578 271.436 673.485L271.436 674.024C276.04 675.967 280.015 678.736 283.36 682.333 286.705 685.93 291.04 692.081 296.363 700.786L327.657 750.856 302.19 750.856 274.457 704.455C268.918 695.175 263.846 688.862 259.242 685.517 254.638 682.171 249.134 680.499 242.732 680.499L227.193 680.499 227.193 750.856 205.611 750.856ZM94.1777 583.703 117.27 583.703 180.937 750.856 157.089 750.856 140.039 705.102 70.4374 705.102 54.3588 750.856 30.5107 750.856ZM-121.389 583.703-99.8072 583.703-99.8072 656.327-15.2057 656.327-15.2057 583.703 6.3764 583.703 6.3764 750.856-15.2057 750.856-15.2057 675.535-99.8072 675.535-99.8072 750.856-121.389 750.856ZM846.868 580.898C863.486 580.898 875.68 582.912 883.45 586.941L883.45 610.465C873.378 603.487 860.645 599.998 845.249 599.998 835.034 599.998 826.707 602.138 820.268 606.419 813.829 610.699 810.61 616.652 810.61 624.278 810.61 631.04 812.84 636.543 817.301 640.788 821.761 645.032 831.437 650.824 846.328 658.161 862.731 666.003 874.205 673.844 880.752 681.686 887.298 689.527 890.572 698.34 890.572 708.124 890.572 722.8 885.248 734.058 874.601 741.9 863.954 749.741 849.17 753.662 830.25 753.662 823.631 753.662 815.916 752.745 807.103 750.91 798.29 749.076 791.87 746.792 787.841 744.058L787.841 719.454C792.949 723.915 799.783 727.584 808.344 730.461 816.905 733.339 825.034 734.778 832.732 734.778 856.184 734.778 867.911 726.433 867.911 709.742 867.911 705.066 866.651 700.858 864.134 697.117 861.616 693.376 858.163 690.067 853.774 687.189 849.386 684.312 841.149 679.887 829.063 673.916 812.301 665.571 801.258 657.82 795.934 650.662 790.611 643.504 787.949 635.32 787.949 626.112 787.949 612.228 793.525 601.221 804.675 593.092 815.826 584.962 829.89 580.898 846.868 580.898ZM-194.608 580.898C-178.637 580.898-165.436 583.164-155.004 587.696L-155.004 610.249C-166.947 603.631-180.076 600.322-194.392 600.322-213.024 600.322-228.204 606.526-239.93 618.936-251.656 631.346-257.519 648.09-257.519 669.168-257.519 689.168-252.052 705.048-241.117 716.811-230.182 728.573-215.866 734.454-198.169 734.454-181.622 734.454-167.234 730.713-155.004 723.231L-155.004 743.95C-167.306 750.425-182.737 753.662-201.298 753.662-225.254 753.662-244.39 746.054-258.706 730.839-273.022 715.624-280.18 695.498-280.18 670.463-280.18 643.558-272.123 621.904-256.008 605.501-239.894 589.099-219.427 580.898-194.608 580.898Z" stroke="#3A88F9" stroke-linejoin="round" stroke-miterlimit="10" fill="none" fill-rule="evenodd"/><text fill="#000000" fill-opacity="0" font-family="Arial,Arial_MSFontService,sans-serif" font-size="172.764" x="-280.18" y="732.066">CHARADES</text></g></svg>