<svg width="1280" height="720" xmlns="http://www.w3.org/2000/svg" xmlns:xlink="http://www.w3.org/1999/xlink" overflow="hidden"><defs><filter id="fx0" x="-10%" y="-10%" width="120%" height="120%" filterUnits="userSpaceOnUse" primitiveUnits="userSpaceOnUse"><feComponentTransfer color-interpolation-filters="sRGB"><feFuncR type="discrete" tableValues="0 0"/><feFuncG type="discrete" tableValues="0 0"/><feFuncB type="discrete" tableValues="0 0"/><feFuncA type="linear" slope="0.4" intercept="0"/></feComponentTransfer><feGaussianBlur stdDeviation="0 0"/></filter><filter id="fx1" x="-10%" y="-10%" width="120%" height="120%" filterUnits="userSpaceOnUse" primitiveUnits="userSpaceOnUse"><feComponentTransfer color-interpolation-filters="sRGB"><feFuncR type="discrete" tableValues="0 0"/><feFuncG type="discrete" tableValues="0 0"/><feFuncB type="discrete" tableValues="0 0"/><feFuncA type="linear" slope="0.4" intercept="0"/></feComponentTransfer><feGaussianBlur stdDeviation="0 0"/></filter><filter id="fx2" x="-10%" y="-10%" width="120%" height="120%" filterUnits="userSpaceOnUse" primitiveUnits="userSpaceOnUse"><feComponentTransfer color-interpolation-filters="sRGB"><feFuncR type="discrete" tableValues="0 0"/><feFuncG type="discrete" tableValues="0 0"/><feFuncB type="discrete" tableValues="0 0"/><feFuncA type="linear" slope="0.4" intercept="0"/></feComponentTransfer><feGaussianBlur stdDeviation="0 0"/></filter><filter id="fx3" x="-10%" y="-10%" width="120%" height="120%" filterUnits="userSpaceOnUse" primitiveUnits="userSpaceOnUse"><feComponentTransfer color-interpolation-filters="sRGB"><feFuncR type="discrete" tableValues="0 0"/><feFuncG type="discrete" tableValues="0 0"/><feFuncB type="discrete" tableValues="0 0"/><feFuncA type="linear" slope="0.4" intercept="0"/></feComponentTransfer><feGaussianBlur stdDeviation="0 0"/></filter><clipPath id="clip4"><rect x="83" y="55" width="524" height="127"/></clipPath><clipPath id="clip5"><rect x="63" y="41" width="492" height="91"/></clipPath></defs><g><rect x="0" y="0" width="1280" height="720" fill="#1270F8" fill-opacity="0"/><g clip-path="url(#clip4)" filter="url(#fx0)" transform="translate(31 185)"><g><path d="M92.568-9.709C87.514-9.709 86.849-10.374 86.849-15.561L86.849-49.476 128.345-49.476 128.345-68.495 72.485-68.495C73.15-74.613 73.549-80.731 73.815-86.849L121.296-86.849 121.296-105.735 13.433-105.735 13.433-86.849 53.865-86.849C53.599-80.731 53.333-74.48 52.668-68.495L5.586-68.495 5.586-49.476 49.077-49.476C43.491-30.856 31.122-14.63 3.059-3.99 8.113 0.133 13.433 7.315 16.093 12.369 45.087 0.266 59.185-17.955 66.367-38.703L66.367-15.295C66.367 3.059 71.022 9.177 89.642 9.177L106.666 9.177C122.36 9.177 127.68 2.793 129.808-20.748 124.355-22.078 115.444-25.403 111.321-28.728 110.523-12.236 109.725-9.709 104.937-9.709ZM186.666-113.715C186.001-89.775 189.459-32.984 135.993-3.325 142.51 1.064 148.761 7.315 152.219 12.502 177.622-3.192 191.587-25.137 199.168-46.949 207.281-25.27 222.177-1.862 250.107 11.571 252.9 6.118 258.353-0.532 264.338-5.187 218.32-25.669 209.941-72.618 207.946-91.504 208.611-100.016 208.877-107.597 209.01-113.715ZM347.93-10.773 347.93-42.161 383.574-42.161 383.574-61.047 347.93-61.047 347.93-86.849 391.288-86.849 391.288-105.735 276.243-105.735 276.243-86.849 327.315-86.849 327.315-10.773 307.631-10.773 307.631-68.362 287.415-68.362 287.415-10.773 271.987-10.773 271.987 8.113 394.746 8.113 394.746-10.773ZM499.484-18.221 507.464-18.221 507.464-6.251C507.464-4.921 507.065-4.522 505.868-4.522 504.804-4.522 501.878-4.522 499.484-4.655ZM474.879-34.447C475.012-36.841 475.145-39.368 475.145-41.629L482.726-41.629 482.726-34.447ZM492.568-87.381C490.839-84.455 488.844-81.529 486.982-79.135L468.761-79.135C470.756-81.795 472.618-84.455 474.347-87.381ZM475.278-63.042 482.726-63.042 482.726-56.126 475.278-56.126ZM507.464-56.126 499.484-56.126 499.484-63.042 507.464-63.042ZM507.464-34.447 499.484-34.447 499.484-41.629 507.464-41.629ZM435.112-20.083 428.994-20.083 428.994-50.008 435.112-50.008ZM525.685-79.135 506.932-79.135C511.055-84.588 515.178-90.44 518.104-95.361L505.735-103.474 502.942-102.809 482.194-102.809C483.125-105.07 483.923-107.331 484.721-109.592L468.362-113.848C463.707-99.75 454.796-86.849 444.023-78.869 447.082-75.278 452.402-67.431 454.264-63.707 455.328-64.638 456.525-65.569 457.589-66.633L457.589-47.348C457.589-34.979 457.057-19.285 450.939-6.251L450.939-66.766 429.792-66.766C432.319-74.746 434.58-82.992 436.309-91.105L453.333-91.105 453.333-108.528 405.32-108.528 405.32-91.105 418.354-91.105C415.162-75.012 409.975-60.116 402.261-49.875 404.788-44.156 407.98-31.521 408.512-26.334 410.241-28.196 411.837-30.324 413.3-32.452L413.3 6.251 428.994 6.251 428.994-3.325 449.476-3.325C448.279-1.197 446.949 0.931 445.353 2.926 449.609 4.788 457.456 9.842 460.648 12.768 467.298 4.389 471.022-6.783 473.017-18.221L482.726-18.221 482.726 5.985 499.484 5.985 499.484-3.724C501.346 0.798 502.676 7.182 503.075 11.571 510.257 11.571 515.843 11.438 520.232 8.645 524.621 5.985 525.685 1.729 525.685-5.985Z" transform="translate(80.8817 169)"/></g></g><text font-family="Source Han Sans SC Heavy,Source Han Sans SC Heavy_MSFontService,sans-serif" font-weight="900" font-size="133" transform="translate(106.225 348)">无人正确</text><g filter="url(#fx1)" transform="translate(29 382)"><g><path d="M0.828426 26.8284 353.388 26.8285" stroke="#000000" stroke-width="2" stroke-miterlimit="8" fill="none" fill-rule="evenodd"/><path d="M52.8284 0.82843 52.8285 52.412" stroke="#000000" stroke-width="2" stroke-miterlimit="8" fill="none" fill-rule="evenodd"/></g></g><path d="M27 406 379.559 406" stroke="#000000" stroke-width="2.33333" stroke-miterlimit="8" fill="none" fill-rule="evenodd"/><path d="M79 380 79.0001 431.584" stroke="#000000" stroke-width="2.33333" stroke-miterlimit="8" fill="none" fill-rule="evenodd"/><g filter="url(#fx2)" transform="translate(14 167)"><g><path d="M24.2712 0.77124C24.2712 18.4444 34.7925 32.7712 47.7712 32.7712 34.7925 32.7712 24.2712 47.0981 24.2712 64.7712 24.2712 47.0981 13.7499 32.7712 0.771236 32.7712 13.7499 32.7712 24.2712 18.4444 24.2712 0.77124Z" fill-rule="evenodd"/></g></g><path d="M34.5 164C34.5 181.673 45.0213 196 58 196 45.0213 196 34.5 210.327 34.5 228 34.5 210.327 23.9787 196 11 196 23.9787 196 34.5 181.673 34.5 164Z" fill-rule="evenodd"/><g clip-path="url(#clip5)" filter="url(#fx3)" transform="translate(60 384)"><g><path d="M8.9 0 16.732 0 16.732-34.265C16.732-41.118 16.109-48.06 15.753-54.646L16.109-54.646 23.14-41.207 46.903 0 55.358 0 55.358-65.237 47.526-65.237 47.526-31.328C47.526-24.564 48.149-17.266 48.594-10.68L48.149-10.68 41.207-24.119 17.444-65.237 8.9-65.237ZM91.467 1.157C103.304 1.157 113.895-8.099 113.895-24.119 113.895-40.228 103.304-49.573 91.467-49.573 79.63-49.573 69.039-40.228 69.039-24.119 69.039-8.099 79.63 1.157 91.467 1.157ZM91.467-5.607C83.101-5.607 77.494-12.994 77.494-24.119 77.494-35.244 83.101-42.809 91.467-42.809 99.833-42.809 105.529-35.244 105.529-24.119 105.529-12.994 99.833-5.607 91.467-5.607ZM148.126 1.157C159.251 1.157 169.13-8.366 169.13-25.009 169.13-39.783 162.366-49.573 149.817-49.573 144.477-49.573 139.048-46.547 134.687-42.72L134.954-51.442 134.954-70.844 126.855-70.844 126.855 0 133.352 0 134.064-4.984 134.331-4.984C138.603-1.068 143.676 1.157 148.126 1.157ZM146.791-5.607C143.587-5.607 139.226-6.942 134.954-10.68L134.954-36.045C139.582-40.406 143.854-42.72 147.948-42.72 157.115-42.72 160.675-35.511 160.675-24.831 160.675-12.816 154.801-5.607 146.791-5.607ZM200.8 1.157C212.637 1.157 223.228-8.099 223.228-24.119 223.228-40.228 212.637-49.573 200.8-49.573 188.963-49.573 178.372-40.228 178.372-24.119 178.372-8.099 188.963 1.157 200.8 1.157ZM200.8-5.607C192.434-5.607 186.827-12.994 186.827-24.119 186.827-35.244 192.434-42.809 200.8-42.809 209.166-42.809 214.862-35.244 214.862-24.119 214.862-12.994 209.166-5.607 200.8-5.607ZM252.653 1.157C258.438 1.157 263.511-1.958 267.338-5.696L267.516-5.696 268.317 0 274.903 0 274.903-70.844 266.804-70.844 266.804-52.243 267.249-43.877C262.977-47.437 259.328-49.573 253.632-49.573 242.596-49.573 232.717-39.783 232.717-24.119 232.717-8.01 240.549 1.157 252.653 1.157ZM254.433-5.607C245.889-5.607 241.083-12.549 241.083-24.208 241.083-35.244 247.224-42.72 255.056-42.72 259.061-42.72 262.71-41.296 266.804-37.647L266.804-12.282C262.799-7.832 258.883-5.607 254.433-5.607ZM292.322 20.826C301.934 20.826 306.918 13.528 310.3 4.005L328.545-48.327 320.624-48.327 311.991-21.449C310.656-17.177 309.232-12.282 307.897-7.921L307.452-7.921C305.939-12.282 304.248-17.266 302.824-21.449L292.945-48.327 284.49-48.327 303.892 0.089 302.824 3.738C300.866 9.701 297.395 14.151 291.877 14.151 290.631 14.151 289.207 13.706 288.228 13.35L286.626 19.847C288.139 20.47 290.008 20.826 292.322 20.826ZM365.942 0 375.732 0 385.433-39.338C386.501-44.5 387.658-49.217 388.726-54.201L389.082-54.201C390.15-49.217 391.129-44.5 392.286-39.338L402.165 0 412.044 0 425.572-65.237 417.651-65.237 410.798-29.726C409.552-22.784 408.306-15.753 407.06-8.633L406.615-8.633C405.102-15.753 403.589-22.784 401.987-29.726L392.82-65.237 385.344-65.237 376.355-29.726C374.753-22.695 373.151-15.664 371.638-8.633L371.282-8.633C370.036-15.664 368.701-22.695 367.455-29.726L360.602-65.237 352.058-65.237ZM436.521 0 444.62 0 444.62-48.327 436.521-48.327ZM440.615-58.295C443.819-58.295 446.222-60.52 446.222-63.546 446.222-66.839 443.819-68.797 440.615-68.797 437.411-68.797 435.008-66.839 435.008-63.546 435.008-60.52 437.411-58.295 440.615-58.295ZM461.021 0 469.12 0 469.12-35.066C474.015-39.961 477.397-42.453 482.381-42.453 488.789-42.453 491.548-38.626 491.548-29.548L491.548 0 499.647 0 499.647-30.616C499.647-42.987 495.019-49.573 484.873-49.573 478.287-49.573 473.303-45.924 468.675-41.385L468.408-41.385 467.696-48.327 461.021-48.327Z" transform="translate(54.7096 112)"/></g></g><text font-family="Source Han Sans SC Regular,Source Han Sans SC Regular_MSFontService,sans-serif" font-weight="400" font-size="89" transform="translate(109.996 492)">Nobody Win</text></g></svg>