<svg width="1280" height="720" xmlns="http://www.w3.org/2000/svg" xmlns:xlink="http://www.w3.org/1999/xlink" overflow="hidden"><g><rect x="0" y="0" width="1280" height="720" fill="#1270F8" fill-opacity="0"/><path d="M337.941 390.195 338.254 390.771 338.65 390.648 338.202 390.391 337.941 390.195ZM576.698 173.076 1013.7 27 1074 693 507.138 439.913C506.287 439.999 488.198 434.118 482.273 432.486 476.347 430.854 474.832 431.638 471.585 430.121L470.143 429.371 469.463 430.38C468.498 431.346 467.164 431.944 465.691 431.944 463.481 431.944 461.585 430.599 460.775 428.683L460.604 427.833 458.638 428.339C456.992 428.676 455.287 428.853 453.541 428.853 446.994 428.853 441.028 426.363 436.536 422.278L435.257 420.967 434.607 421.503C433.756 422.079 432.73 422.415 431.625 422.415 429.415 422.415 427.519 421.071 426.709 419.154L426.667 418.944 424.83 419.224C423.98 419.311 423.118 419.355 422.245 419.355 419.626 419.355 417.1 418.957 414.724 418.217L412.887 417.544 412.471 418.048C410.485 420.036 407.74 421.266 404.709 421.266 400.731 421.266 397.247 419.148 395.322 415.977L395.037 415.404 393.545 415.253 391.675 414.672 390.668 415.73C388.718 417.503 386.129 418.584 383.287 418.584 380.256 418.584 377.512 417.355 375.525 415.367L374.671 414.33 374.647 414.364C372.634 416.689 369.662 418.16 366.346 418.16 361.042 418.16 356.616 414.394 355.593 409.388L355.508 408.553 354.326 409.019C353.295 409.34 352.199 409.513 351.062 409.513 350.304 409.513 349.564 409.436 348.85 409.29L348.767 409.264 347.395 410.397C345.644 411.582 343.532 412.273 341.258 412.273 338.985 412.273 336.873 411.582 335.121 410.397L334.193 409.631 333.732 410.012C331.4 411.589 328.588 412.51 325.562 412.51 320.518 412.51 316.072 409.952 313.446 406.062L312.788 404.85 311.808 405.076C311.126 405.18 310.429 405.234 309.718 405.234 302.142 405.234 296 399.088 296 391.505 296 383.923 302.142 377.776 309.718 377.776 310.665 377.776 311.59 377.872 312.483 378.055L312.578 378.084 312.922 376.976C314.744 372.664 318.705 369.478 323.473 368.749L324.129 368.699 324.107 368.591C324.107 365.642 326.495 363.252 329.442 363.252 329.81 363.252 330.17 363.289 330.517 363.36L330.8 363.448 331.569 361.824C334.936 355.964 340.979 351.84 348.03 351.124L349.253 351.062C349.257 351.02 349.261 350.979 349.266 350.937 349.763 348.504 351.914 346.674 354.492 346.674 355.228 346.674 355.93 346.823 356.568 347.094L356.867 347.256 358.886 344.807C362.242 341.448 366.879 339.37 372.001 339.37 374.562 339.37 377.002 339.89 379.221 340.829L379.412 340.921 381.47 337.126C386.152 330.191 394.08 325.631 403.073 325.631 406.67 325.631 410.097 326.36 413.213 327.68L414.814 328.451 415.73 326.762C420.275 320.029 427.972 315.602 436.702 315.602 441.067 315.602 445.173 316.709 448.757 318.657L449.021 318.818 449.728 316.539C450.207 315.404 450.768 314.311 451.402 313.267 451.878 312.597 576.222 173.746 576.698 173.076Z" fill="#1270F8" fill-rule="evenodd"/></g></svg>