<svg width="1280" height="720" xmlns="http://www.w3.org/2000/svg" xmlns:xlink="http://www.w3.org/1999/xlink" overflow="hidden"><g><rect x="0" y="0" width="1280" height="720" fill="#F5E33F"/><path d="M611.506 421.721C610.092 423.918 609.23 425.494 608.918 426.449 610.766 426.463 612.298 426.407 613.516 426.281L613.421 425.368C612.963 424.903 612.65 423.858 612.482 422.235 612.338 421.84 612.013 421.668 611.506 421.721ZM898.522 355.433C895.265 355.667 890.916 356.501 885.475 357.935 880.035 359.37 875.146 360.926 870.807 362.605 866.469 364.285 864.19 365.546 863.969 366.389 863.738 367.131 864.031 368.715 864.846 371.143 865.661 373.572 866.964 377 868.755 381.429L871.058 387.344 872.659 387.947C873.523 388.371 874.716 388.504 876.238 388.346 879.282 388.032 884.559 386.512 892.071 383.787 896.633 382.289 899.264 381.453 899.964 381.278L900.3 377.091C901.01 371.07 901.192 366.385 900.846 363.037 900.51 359.79 899.736 357.256 898.522 355.433ZM908.372 351.03C907.641 353.874 907.474 357.224 907.873 361.08 908.282 365.037 909.099 367.977 910.323 369.902 910.474 369.373 910.549 369.109 910.549 369.109 911.55 367.878 911.798 364.827 911.295 359.957L910.293 351.754C909.012 351.272 908.372 351.03 908.372 351.03ZM904.416 338.057C905.735 337.921 906.714 337.973 907.354 338.215 908.604 338.393 910.97 339.712 914.455 342.172 917.939 344.632 919.886 346.353 920.295 347.336 921.089 348.074 921.592 349.458 921.801 351.487 922.032 353.719 921.82 357.125 921.166 361.705 921.138 362.426 921.097 363.019 921.043 363.486 920.988 363.953 920.931 364.395 920.872 364.812L920.09 372.122C919.572 378.02 919.013 382.539 918.415 385.677 917.817 388.815 916.734 391.978 915.166 395.165 913.599 398.352 911.263 401.798 908.16 405.503 908.108 404.996 905.595 403.256 900.622 400.284 895.649 397.311 892.599 395.832 891.472 395.846 890.419 396.57 888.922 397.212 886.98 397.772 885.038 398.332 883.114 398.813 881.207 399.215 877.8 399.977 875.407 400.635 874.028 401.188 873.829 402.234 873.722 403.681 873.708 405.528 873.673 407.172 873.54 408.365 873.309 409.107 873.078 409.849 872.474 410.449 871.496 410.909 870.518 411.369 868.857 411.669 866.513 411.809 865.852 411.365 864.657 410.719 862.929 409.873 861.211 409.127 859.797 408.351 858.688 407.542 857.579 406.734 856.714 405.798 856.091 404.735 854.671 401.908 853.682 397.806 853.126 392.428 852.927 390.501 852.75 387.801 852.597 384.331L851.93 376.401C851.595 373.155 851.114 370.487 850.488 368.398 849.914 366.817 848.591 364.441 846.521 361.272 844.316 357.808 843.013 355.123 842.611 353.216 843.381 352.726 844.324 352.424 845.44 352.308 847.063 352.14 849.46 352.508 852.629 353.41 853.798 353.802 855.006 354.088 856.255 354.266 857.504 354.445 858.58 354.436 859.483 354.24 866.998 352.54 872.762 350.765 876.775 348.914 880.301 347.319 884.428 346.072 889.155 345.173 892.562 344.41 895.348 343.584 897.512 342.694 899.676 341.803 901.977 340.258 904.416 338.057ZM356.991 390.974C357.015 398.15 356.852 404.499 356.5 410.021 356.148 415.544 355.58 422.447 354.796 430.732 354.575 446.444 352.393 455.591 348.251 458.173 348.058 458.295 347.607 458.393 346.897 458.466 344.868 458.676 342.385 458.471 339.45 457.852 336.515 457.233 333.753 456.057 331.164 454.325 328.575 452.593 326.824 450.288 325.911 447.408 326.226 447.478 326.637 447.487 327.144 447.435 329.782 447.162 332.213 444.885 334.436 440.605 336.66 436.324 339.094 430.612 341.74 423.468L343.067 419.947ZM822.749 323.276C823.039 325.092 823.249 327.121 823.379 329.364L823.531 329.348 823.468 328.739C824.014 328.067 824.033 326.271 823.526 323.35ZM818.577 323.65C817.83 323.74 816.966 323.874 815.985 324.053 814.022 324.409 812.899 324.705 812.615 324.939 813.245 331.027 813.032 337.15 811.977 343.309 810.922 349.469 809.187 357.236 806.773 366.612 807.455 367.26 808.792 368.044 810.785 368.966 812.777 369.888 814.235 370.353 815.159 370.36 816.013 367.708 817.118 360.544 818.474 348.867 819.83 337.191 820.494 328.739 820.466 323.512 819.954 323.514 819.324 323.56 818.577 323.65ZM552.271 350.169C551.865 350.211 551.515 350.299 551.221 350.432L550.004 350.557 550.192 352.384 551.867 352.211C551.776 352.323 552.068 351.677 552.743 350.274ZM444.191 358.115C444.121 358.43 443.777 359.568 443.159 361.529 442.542 363.49 442.242 365.546 442.259 367.698L443.172 367.603 443.109 366.995C444.019 365.875 444.844 364.431 445.584 362.663 446.324 360.894 446.671 359.295 446.626 357.864ZM318.032 368.239C327.632 367.861 334.903 368.263 339.845 369.444 344.786 370.625 348.216 372.552 350.133 375.225 350.042 375.337 349.718 377.165 349.162 380.709 347.797 388.336 346.912 392.17 346.506 392.212 344.004 390.83 340.307 388.29 335.412 384.592 330.518 380.894 326.261 377.411 322.642 374.145 319.023 370.879 317.486 368.91 318.032 368.239ZM448.584 347.048 451.134 349.399C452.701 350.673 453.956 351.901 454.899 353.086 455.842 354.27 456.515 355.816 456.917 357.722 455.279 359.737 453.744 361.998 452.312 364.505 450.879 367.012 449.522 369.51 448.242 372.001 444.974 378.082 441.9 383.065 439.021 386.952 439.377 387.428 440.151 387.963 441.34 388.558 442.529 389.153 443.764 389.692 445.045 390.175 447.179 390.979 448.307 391.478 448.43 391.67L451.474 391.356C452.201 390.46 453.333 389.753 454.869 389.236 456.405 388.718 457.467 388.326 458.054 388.06 459.094 389.183 460.117 390.154 461.124 390.973 462.814 392.439 464.049 393.721 464.829 394.82 465.609 395.918 466.16 397.528 466.482 399.648 464.848 399.714 461.836 400.333 457.445 401.505 454.849 402.184 453.247 402.555 452.638 402.618 453.499 404.99 454.532 412.01 455.739 423.677 456.274 428.852 456.088 433.998 455.182 439.117 454.276 444.235 452.496 448.598 449.844 452.204 447.192 455.811 443.741 457.886 439.49 458.428 436.691 456.154 434.056 453.478 431.584 450.401 429.113 447.324 426.25 443.441 422.997 438.753 427.464 439.317 431.525 439.409 435.177 439.032 436.09 438.937 437.246 438.715 438.646 438.365 440.283 436.35 441.316 434.193 441.745 431.892 442.174 429.592 442.236 426.971 441.932 424.028 441.743 422.202 441.225 419.179 440.379 414.96 439.997 413.256 439.537 410.791 438.999 407.566 437.508 408.027 436.218 408.443 435.128 408.812 434.039 409.181 433.098 409.509 432.308 409.796 428.263 411.342 424.284 412.523 420.369 413.338 418.434 411.487 417.248 410.43 416.811 410.168 417.552 410.399 416.148 407.724 412.597 402.144 415.245 401.972 417.926 401.618 420.639 401.081 423.353 400.544 425.911 399.998 428.314 399.442 431.001 398.651 433.608 398.074 436.134 397.71 435.976 396.188 435.317 394.77 434.155 393.454 432.994 392.139 431.289 390.52 429.039 388.6 425.995 385.941 423.882 383.852 422.7 382.333 428.588 382.75 431.989 382.911 432.902 382.817 433.15 381.253 433.477 379.706 433.883 378.178 434.289 376.649 434.632 375.255 434.912 373.995L436.786 365.341 433.285 365.703C430.529 366.809 427.256 368.378 423.467 370.41 422.879 370.676 422.246 370.998 421.567 371.376 420.888 371.754 420.199 372.03 419.499 372.205 418.95 371.852 417.895 371.32 416.335 370.609 414.774 369.899 413.34 368.92 412.032 367.67 410.723 366.421 409.812 364.798 409.298 362.8L435.821 354.52C436.286 354.062 437.217 353.145 438.613 351.771 440.009 350.396 441.512 349.317 443.123 348.535 444.734 347.754 446.555 347.258 448.584 347.048ZM674.03 320.505C674.625 322.289 674.922 323.181 674.922 323.181 674.901 322.978 674.803 322.527 674.628 321.827 674.453 321.127 674.254 320.687 674.03 320.505ZM496.487 335.788C496.112 336.134 495.15 336.746 493.6 337.624 491.553 338.656 490.318 339.605 489.895 340.469 490.21 340.539 490.499 340.611 490.764 340.686 491.028 340.762 491.333 340.987 491.679 341.361 492.358 340.983 493.446 340.101 494.944 338.716 495.864 337.698 496.709 336.944 497.478 336.454 497.132 336.08 496.801 335.858 496.487 335.788ZM518.496 325.513C521.743 325.178 524.824 325.961 527.738 327.865 530.652 329.768 532.317 332.236 532.734 335.27 531.866 336.795 531.21 339.375 530.765 343.01 530.716 343.528 530.63 344.178 530.505 344.96 530.381 345.742 530.169 346.661 529.868 347.718 527.481 356.373 525.254 365.576 523.186 375.326 522.927 376.789 522.045 380.161 520.541 385.444 522.374 387.305 525.127 389.635 528.801 392.434 532.576 395.223 535.406 397.802 537.291 400.17 539.177 402.539 540.33 405.752 540.749 409.811 541.022 412.449 540.901 415.742 540.387 419.692 539.922 420.151 539.413 420.69 538.862 421.311 538.311 421.932 537.719 422.404 537.086 422.725 536.453 423.047 535.527 423.271 534.31 423.397L531.807 421.502C529.263 419.715 528.047 418.866 528.159 418.957L524.964 414.827C524.138 413.784 522.314 411.512 519.49 408.01 516.667 404.508 514.997 402.732 514.479 402.683 511.19 411.534 506.41 419.36 500.141 426.161 493.871 432.962 487.054 438.436 479.689 442.581 485.021 434.647 490.126 425.505 495.004 415.156 499.881 404.808 502.336 395.325 502.367 386.708 500.006 384.696 495.976 379.935 490.277 372.423 484.578 364.911 481.604 360.45 481.356 359.04 483.273 358.74 486.06 359.656 489.716 361.791 493.372 363.925 498.175 366.992 504.126 370.991 506.893 372.961 508.378 373.935 508.581 373.914L507.206 372.518C508.938 371.416 509.944 368.748 510.224 364.515 510.504 360.282 510.541 354.689 510.335 347.738L510.125 344.222C508.775 344.054 507.085 344.075 505.056 344.284 501.911 344.61 498.904 345.28 496.035 346.294 493.166 347.309 491.976 348.201 492.466 348.97 491.966 348.099 490.831 347.037 489.06 345.785 487.29 344.532 485.419 343.29 483.445 342.059 480.15 339.938 477.836 338.383 476.503 337.393 476.978 337.036 480.883 336.12 488.216 334.643 496.868 333.031 504.013 331.472 509.651 329.966 515.289 328.46 518.238 326.976 518.496 325.513ZM704.567 304.926C703.048 305.109 701.281 305.381 699.268 305.743 695.241 306.467 692.725 306.933 691.721 307.139 685.473 308.195 681.537 308.807 679.914 308.975 680.305 310.781 680.569 312.343 680.706 313.662 680.937 315.894 681.098 317.954 681.191 319.841 681.284 321.729 681.347 323.337 681.382 324.667 681.543 330.187 681.755 334.216 682.017 336.752 682.531 341.724 683.4 345.172 684.625 347.096 685.153 347.246 686.584 347.201 688.917 346.96 692.266 346.613 696.503 345.945 701.63 344.953 706.758 343.961 710.411 343.096 712.591 342.358 710.723 327.272 709.448 316.432 708.766 309.837 708.409 306.388 708.282 304.657 708.383 304.647 707.358 304.65 706.086 304.744 704.567 304.926ZM647.477 306.177C648.414 307.311 649.593 307.804 651.014 307.657 651.724 307.584 652.226 307.48 652.52 307.347L652.488 307.043C652.366 306.851 652.198 306.714 651.985 306.634ZM864.177 283.614C864.016 284.041 863.82 284.626 863.589 285.367 863.359 286.109 863.255 287.094 863.28 288.322L863.799 288.883 864.649 288.18C864.831 287.956 865.137 287.438 865.565 286.624 865.994 285.811 866.191 284.739 866.156 283.41ZM584.919 307.416C586.847 307.217 589.714 307.177 593.521 307.296 594.661 308.408 595.577 309.826 596.268 311.549 596.959 313.272 597.398 315.047 597.587 316.873 597.797 318.902 597.711 320.552 597.33 321.822 596.948 323.092 596.291 323.673 595.357 323.564 593.842 322.798 590.737 321.53 586.042 319.759 583.268 318.713 580.511 317.588 577.771 316.384 575.032 315.181 573.153 314.119 572.135 313.199 574.109 311.457 576.073 310.125 578.029 309.205 579.984 308.285 582.281 307.689 584.919 307.416ZM869.436 276.457C869.761 276.628 869.952 276.736 870.008 276.782 870.064 276.827 870.127 276.693 870.197 276.378ZM375.807 327.502 375.933 328.719 376.542 328.657C376.846 328.625 377.026 328.632 377.082 328.678 377.138 328.723 377.313 328.679 377.607 328.546L377.696 327.922C377.584 327.831 377.513 327.633 377.481 327.329ZM321.445 328.355C329.999 327.778 336.791 328.512 341.822 330.555 346.853 332.598 350.398 335.154 352.459 338.222 352.368 338.334 352.039 340.112 351.472 343.554 350.289 350.957 349.495 354.68 349.089 354.722 346.7 353.43 343.144 350.773 338.421 346.75 333.698 342.726 329.554 338.848 325.989 335.115 322.424 331.382 320.909 329.128 321.445 328.355ZM412.139 315.9C414.343 316.39 417.281 316.548 420.955 316.373 423.198 316.244 424.893 316.273 426.04 316.462 427.188 316.651 428.205 317.315 429.092 318.454 429.978 319.593 430.604 321.425 430.968 323.951L429.487 327.488C429.316 327.814 428.775 329.023 427.863 331.117 426.952 333.211 426.457 334.877 426.38 336.116 429.788 335.353 434.207 333.461 439.637 330.438 440.214 330.071 441.085 329.57 442.25 328.937 443.415 328.304 444.348 327.9 445.047 327.725 445.639 328.484 447.038 329.621 449.246 331.136 450.781 332.106 452 332.979 452.901 333.758 453.801 334.536 454.411 335.473 454.729 336.568 454.124 337.656 451.449 339.061 446.705 340.782 441.961 342.503 436.787 344.038 431.184 345.386 425.581 346.735 421.451 347.444 418.792 347.514 414.397 353.608 411.356 357.665 409.668 359.686 407.98 361.706 406.259 363.166 404.506 364.065 407.291 356.291 409.219 350.631 410.287 347.086 411.356 343.54 412.142 340.229 412.644 337.152 413.146 334.075 413.931 328.277 414.998 319.758 413.963 319.66 413.267 319.373 412.91 318.897 412.553 318.421 412.296 317.422 412.139 315.9ZM364.761 320.338C369.683 320.342 373.465 320.72 376.107 321.472 378.748 322.224 382.432 323.638 387.158 325.713 387.47 327.732 386.891 330.56 385.421 334.199 384.777 335.906 384.391 337.125 384.261 337.856L389.813 336.513C390.674 335.911 391.575 335.203 392.516 334.388 393.457 333.573 394.343 332.968 395.174 332.575 396.005 332.181 397.136 331.962 398.567 331.916 399.12 333.295 399.809 334.505 400.634 335.548 401.46 336.591 401.934 337.208 402.057 337.4 403.106 338.625 403.94 339.744 404.557 340.757 405.174 341.769 405.557 342.986 405.704 344.406L399.92 345.005C398.126 345.498 395.925 346.033 393.319 346.61 391.807 346.869 390.532 347.18 389.493 347.544 388.454 347.908 387.114 348.585 385.473 349.575L383.3 350.876C385.032 352.748 386.306 354.411 387.123 355.864 387.94 357.318 388.579 358.79 389.041 360.281 387.557 362.793 386.758 366.464 386.642 371.296 387.262 371.334 388.715 371.261 391.003 371.076 393.291 370.89 394.491 370.843 394.603 370.934 395.576 370.423 396.538 369.811 397.49 369.097 398.441 368.384 399.323 367.985 400.135 367.901 401.048 367.807 402.347 367.98 404.034 368.421 404.685 368.763 405.526 369.215 406.558 369.775 407.59 370.334 408.262 370.88 408.573 371.412 408.884 371.944 409.098 372.768 409.213 373.884L409.68 381.373 409.26 392.183C408.843 398.071 408.645 402.604 408.666 405.78 407.403 413.397 405.608 422.068 403.281 431.794 400.954 441.52 399.262 447.719 398.205 450.392 397.873 451.144 397.634 451.81 397.489 452.389 397.344 452.968 397.236 453.415 397.166 453.729 396.816 455.304 396.412 456.602 395.954 457.623 395.495 458.645 394.684 459.472 393.519 460.105 393.032 460.361 392.487 460.545 391.884 460.659 391.28 460.773 390.68 460.912 390.081 461.076 389.175 460.247 387.613 459.024 385.395 457.408 382.852 455.62 380.453 453.74 378.198 451.769 375.943 449.797 373.527 447.253 370.948 444.135 372.796 444.149 374.277 444.099 375.393 443.983 375.901 443.931 377.042 443.813 378.818 443.629 380.593 443.446 382.151 443.387 383.491 443.454L386.036 435.346C389.29 425.165 391.658 416.332 393.14 408.847 394.622 401.362 394.952 393.15 394.13 384.211 392.972 383.921 391.835 383.833 390.719 383.948 389.705 384.053 388.835 384.323 388.111 384.757 387.387 385.19 386.944 385.621 386.783 386.047 386.563 386.891 385.86 390.501 384.673 396.879 383.151 405.958 381.409 413.906 379.448 420.722 377.487 427.539 374.167 434.599 369.487 441.902 364.807 449.205 358.376 455.434 350.192 460.587 353.432 455.227 357.048 446.803 361.038 435.316 365.029 423.829 368.255 411.395 370.717 398.015 373.178 384.634 373.853 372.567 372.741 361.812 372.458 359.073 372.033 356.451 371.466 353.946 368.667 354.645 366.747 355.408 365.704 356.234 364.661 357.059 363.942 357.544 363.547 357.687 362.763 357.05 361.71 356.288 360.388 355.399 358.74 354.339 357.422 353.245 356.434 352.116 355.445 350.988 354.358 349.152 353.172 346.609 355.38 345.15 358.158 344.247 361.506 343.901 362.419 343.807 363.901 343.756 365.951 343.749 372.046 342.196 376.38 340.978 378.955 340.097 378.273 339.45 377.453 338.458 376.494 337.121 375.76 335.967 375.107 335.111 374.537 334.555 372.805 332.683 371.037 330.456 369.232 327.874 367.426 325.292 365.936 322.78 364.761 320.338ZM547.219 301.317C550.466 300.981 553.82 300.942 557.282 301.199 560.744 301.456 562.917 301.898 563.802 302.524 564.229 302.685 564.547 303.037 564.757 303.579 564.967 304.121 565.121 304.618 565.219 305.07 565.317 305.521 565.382 305.899 565.413 306.203 563.226 307.865 562.505 312.298 563.25 319.501 563.576 322.646 564.193 326.633 565.102 331.461 565.627 333.56 565.968 335.371 566.126 336.893 567.259 335.955 570.678 334.063 576.383 331.217 582.087 328.372 585.847 326.804 587.663 326.513L590.093 329.184C591.559 330.469 592.651 331.612 593.37 332.614 594.089 333.616 594.501 334.625 594.606 335.64 594.7 336.553 594.581 337.385 594.249 338.137 592.101 339.18 589.835 340.081 587.453 340.84 581.533 343.093 576.899 345.136 573.551 346.969 570.203 348.802 568.385 350.81 568.098 352.993 568.098 352.993 568.939 355.675 570.622 361.038 574.687 374.564 577.158 382.102 578.036 383.651 579.31 382.084 581.327 379.03 584.088 374.489 586.848 369.948 589.276 365.416 591.372 360.892 593.468 356.368 594.411 353.092 594.201 351.063 594.159 350.657 594.016 350.262 593.771 349.877 594.551 349.489 595.296 349.258 596.006 349.184 598.644 348.911 601.55 349.739 604.723 351.667 607.896 353.595 609.969 355.79 610.941 358.253 604.759 372.838 598.608 383.267 592.489 389.54 592.135 390.089 591.129 391.27 589.471 393.082 588.257 394.233 587.289 395.282 586.566 396.228 585.844 397.175 585.383 398.171 585.183 399.217 587.045 400.358 589.259 402.436 591.827 405.452 593.926 407.901 595.896 409.85 597.738 411.301 599.58 412.751 601.654 413.716 603.96 414.195 603.988 413.474 605.039 410.751 607.114 406.024 608.835 401.847 610.053 398.747 610.767 396.725 612.722 401.753 614.397 406.297 615.791 410.357 617.185 414.417 618.641 418.829 620.159 423.595L621.56 428.218C622.043 429.911 621.821 431.729 620.894 433.671 619.966 435.612 618.814 436.859 617.435 437.412 615.945 437.874 614.388 438.189 612.765 438.357 607.184 438.934 601.32 437.258 595.171 433.331 589.023 429.404 581.997 421.952 574.094 410.977 568.195 416.406 562.167 421.08 556.009 424.999 549.852 428.917 544.102 431.818 538.759 433.704 539.648 432.382 541.286 430.366 543.672 427.659 546.058 424.951 547.66 423.093 548.479 422.086 553.888 415.886 558.156 410.805 561.284 406.841 564.412 402.877 566.363 399.676 567.136 397.238 565.975 395.922 564.612 392.91 563.048 388.201 561.485 383.492 559.538 377.31 557.208 369.655 556.746 368.164 556.098 366.104 555.261 363.473 554.425 360.842 553.89 359.384 553.656 359.101 552.907 359.794 551.228 360.66 548.618 361.699 546.008 362.738 543.942 363.336 542.42 363.493 541.951 362.926 540.765 361.87 538.862 360.323 536.756 358.798 535.157 357.22 534.066 355.589 532.974 353.959 532.301 351.414 532.046 347.954 535.974 348.265 539.714 348.237 543.266 347.87 548.744 347.304 551.977 345.841 552.964 343.483L547.04 307.026C544.773 305.928 543.251 305.085 542.472 304.499 541.694 303.913 541.369 303.255 541.499 302.523 542.674 301.992 544.581 301.589 547.219 301.317ZM741.294 280.786 743.98 282.969C746.107 284.698 747.818 286.367 749.113 287.976 750.407 289.586 752.076 292.335 754.119 296.226 753.765 296.775 753.372 297.431 752.938 298.194 752.504 298.957 751.945 299.501 751.261 299.828 750.577 300.156 749.525 300.393 748.104 300.539 746.478 299.682 744.051 299.267 740.823 299.293 737.596 299.319 733.227 299.463 727.717 299.725 728.266 300.079 728.863 300.401 729.509 300.694 730.154 300.986 730.653 301.344 731.004 301.769 731.356 302.195 731.635 302.909 731.841 303.913 729.522 305.281 729.096 313.067 730.565 327.271 731.037 331.837 731.532 335.631 732.05 338.654 732.536 338.399 735.487 337.683 740.903 336.508 741.806 336.312 744.313 335.771 748.426 334.884 752.538 333.997 754.325 333.428 753.787 333.176 755.158 333.547 756.839 334.681 758.83 336.577 760.82 338.473 762.581 340.624 764.111 343.029 765.642 345.435 766.507 347.601 766.706 349.529 766.79 350.341 766.711 351.067 766.47 351.707 765.732 352.501 764.094 353.029 761.558 353.291 758.311 353.627 752.972 353.564 745.542 353.102 739.968 352.755 736.116 352.692 733.986 352.913L738.67 405.648C738.103 412.065 737.488 417.025 736.825 420.529 736.162 424.032 735.197 426.106 733.93 426.75 733.269 426.306 731.973 425.67 730.042 424.845 726.382 423.172 723.416 421.505 721.142 419.843 718.868 418.181 717.167 415.87 716.041 412.911 715.709 407.715 715.518 402.403 715.47 396.973 715.267 391.046 715.006 384.562 714.688 377.519 714.37 370.476 713.896 363.911 713.267 357.824L682.436 361.627C683.992 380.642 681.544 395.892 675.092 407.378 668.64 418.863 657.324 427.186 641.143 432.346 649.844 424.268 656.125 415.594 659.986 406.325 663.847 397.056 665.059 385.471 663.622 371.571 663.338 368.832 663.073 366.757 662.824 365.347 662.041 364.71 659.873 364.576 656.322 364.943 652.568 365.331 648.536 366.004 644.226 366.963 639.195 367.893 636.365 368.288 635.735 368.148 633.611 367.445 631.231 365.256 628.595 361.58 625.959 357.905 624.622 354.89 624.584 352.536 626.91 353.218 629.081 353.634 631.096 353.785 633.111 353.935 635.539 353.864 638.38 353.57 642.134 353.182 649.397 352.021 660.169 350.086L663.182 349.467C663.602 341.63 663.434 334.059 662.679 326.754 661.934 319.551 660.78 314.338 659.216 311.116 656.141 311.126 652.574 311.341 648.516 311.761 643.138 312.317 639.694 312.724 638.182 312.983 635.601 311.814 633.886 310.607 633.04 309.362 632.193 308.116 631.303 305.952 630.369 302.87 630.204 302.272 629.65 300.381 628.705 297.197 629.933 297.173 631.256 297.318 632.673 297.633 634.09 297.948 635.108 298.125 635.727 298.163 637.718 298.572 643.228 298.31 652.258 297.376 664.23 296.138 678.717 294.179 695.718 291.498 712.72 288.817 722.903 286.892 726.269 285.724 727.322 285 729.536 284.104 732.913 283.037 736.289 281.97 739.083 281.22 741.294 280.786ZM858.689 267.724C861.327 267.451 864.292 267.862 867.584 268.957 870.876 270.052 873.763 271.446 876.245 273.138 878.727 274.829 880.149 276.426 880.509 277.926 876.671 286.424 872.113 295.407 866.837 304.874 863.811 310.314 861.468 314.683 859.81 317.982 858.151 321.282 856.593 324.801 855.133 328.541L859.773 327.292C862.459 326.502 865.104 325.792 867.705 325.164 870.306 324.537 871.409 324.294 871.014 324.438 874.33 323.787 878.391 322.393 883.194 320.256 884.968 319.56 886.818 318.856 888.744 318.144 890.67 317.432 892.49 316.936 894.204 316.656 894.183 316.453 892.086 313.03 887.912 306.386 883.739 299.742 881.546 296.38 881.332 296.299 887.682 298.206 893.489 300.323 898.755 302.65 904.02 304.977 908.262 307.076 911.48 308.948 914.699 310.82 916.588 311.983 917.148 312.438 917.494 312.812 917.704 313.354 917.778 314.065 917.998 316.195 917.556 319.112 916.452 322.815 915.348 326.519 914.315 328.676 913.353 329.288L909.685 329.514C910.255 330.07 910.551 330.45 910.572 330.653 910.582 330.754 909.199 329.769 906.421 327.698 903.51 325.333 901.287 323.666 899.751 322.697L897.925 322.885C896.287 324.901 883.697 331.073 860.155 341.404L857.069 342.799C856.188 343.198 855.094 344.029 853.789 345.292 853.506 345.526 852.914 345.998 852.013 346.706 851.112 347.415 850.198 347.996 849.271 348.451 848.344 348.906 847.373 349.186 846.358 349.291 843.825 347.604 841.787 345.739 840.242 343.694 838.698 341.649 836.853 338.686 834.708 334.806L834.614 333.893C833.732 343.213 832.441 351.55 830.74 358.904 829.04 366.258 827.652 371.683 826.578 375.178 827.516 376.311 829.019 377.463 831.088 378.633 833.158 379.804 834.355 380.475 834.68 380.646 838.371 382.623 840.299 383.911 840.464 384.509 840.964 385.38 841.287 386.526 841.434 387.946 841.655 390.077 841.411 392.435 840.704 395.02 839.998 397.606 839.015 399.758 837.758 401.478 836.5 403.197 835.252 404.018 834.013 403.941 833.013 402.199 830.833 399.963 827.475 397.234 824.116 394.505 821.604 393.022 819.939 392.784 818.802 395.67 816.058 399.133 811.707 403.172 807.356 407.211 802.598 410.779 797.432 413.877 792.267 416.975 788.157 418.63 785.103 418.843 787.531 416.541 790.707 412.803 794.633 407.629 798.559 402.455 802.092 397.449 805.232 392.613 808.372 387.776 810.071 384.627 810.33 383.164 809.456 382.639 808.583 381.884 807.712 380.897 806.841 379.91 806.232 379.23 805.886 378.855 803.685 376.417 801.588 374.48 799.594 373.046 797.599 371.611 795.044 370.696 791.927 370.301 792.245 368.422 792.71 366.477 793.323 364.465 794.285 360.879 795.092 357.027 795.743 352.91 796.393 348.792 796.959 342.606 797.438 334.353 791.529 336.708 787.712 337.974 785.987 338.152 785.176 338.236 784.602 338.142 784.266 337.869 782.324 336.942 780.635 334.989 779.199 332.009 777.763 329.03 776.923 325.862 776.678 322.503L780.346 322.277C784.244 322.285 787.816 322.12 791.063 321.784 797.657 321.103 800.855 319.798 800.656 317.87 801.321 316.366 801.771 312.294 802.008 305.656 802.244 299.017 802.121 293.364 801.638 288.697 801.502 287.378 801.248 285.918 800.878 284.315 800.661 283.21 800.206 282.282 799.513 281.534 799.177 281.261 798.935 280.901 798.786 280.455 798.638 280.009 798.551 279.172 798.527 277.944 799.468 277.129 800.75 276.638 802.374 276.47 805.011 276.197 808.165 276.691 811.833 277.953 815.501 279.214 818.615 280.815 821.174 282.755 823.733 284.695 824.899 286.548 824.671 288.315 822.792 290.97 821.492 293.515 820.769 295.948 820.047 298.381 819.367 301.476 818.73 305.234 818.254 308.564 817.745 311.078 817.203 312.775 817.79 312.509 818.695 312.082 819.916 311.495 821.137 310.907 822.214 310.411 823.146 310.007 824.078 309.603 824.849 309.369 825.458 309.306 825.66 309.285 826.696 309.383 828.564 309.6 828.799 309.884 829.675 310.921 831.193 312.713 832.477 314.22 833.453 315.478 834.121 316.486 834.79 317.493 835.259 318.804 835.528 320.417 835.521 324.314 835.29 328.029 834.835 331.563 836.101 330.919 836.988 330.571 837.495 330.519 837.698 330.498 838.031 330.489 838.492 330.493 838.954 330.496 839.693 330.445 840.707 330.34 844.65 322.857 848.37 313.705 851.865 302.884 855.361 292.063 856.762 283.305 856.07 276.608 855.765 273.666 855.017 271.385 853.824 269.765 855.038 268.614 856.659 267.934 858.689 267.724Z" stroke="#FB3BE8" stroke-width="40" stroke-linejoin="round" stroke-miterlimit="10" fill="#FFFFFF" fill-rule="evenodd"/><text fill="#000000" fill-opacity="0" font-family="Arial,Arial_MSFontService,sans-serif" font-size="193.434" x="317.925" y="436.897">游戏开始</text><text font-family="jiangxizhuokai,jiangxizhuokai_MSFontService,sans-serif" font-weight="400" font-size="153" transform="matrix(0.994696 -0.10286 0.10286 0.994696 319.929 443)">游戏开始</text></g></svg>