<svg width="1280" height="720" xmlns="http://www.w3.org/2000/svg" xmlns:xlink="http://www.w3.org/1999/xlink" overflow="hidden"><defs><filter id="fx0" x="-10%" y="-10%" width="120%" height="120%" filterUnits="userSpaceOnUse" primitiveUnits="userSpaceOnUse"><feComponentTransfer color-interpolation-filters="sRGB"><feFuncR type="discrete" tableValues="0 0"/><feFuncG type="discrete" tableValues="0 0"/><feFuncB type="discrete" tableValues="0 0"/><feFuncA type="linear" slope="0.4" intercept="0"/></feComponentTransfer><feGaussianBlur stdDeviation="0 0"/></filter><filter id="fx1" x="-10%" y="-10%" width="120%" height="120%" filterUnits="userSpaceOnUse" primitiveUnits="userSpaceOnUse"><feComponentTransfer color-interpolation-filters="sRGB"><feFuncR type="discrete" tableValues="0 0"/><feFuncG type="discrete" tableValues="0 0"/><feFuncB type="discrete" tableValues="0 0"/><feFuncA type="linear" slope="0.4" intercept="0"/></feComponentTransfer><feGaussianBlur stdDeviation="0 0"/></filter><filter id="fx2" x="-10%" y="-10%" width="120%" height="120%" filterUnits="userSpaceOnUse" primitiveUnits="userSpaceOnUse"><feComponentTransfer color-interpolation-filters="sRGB"><feFuncR type="discrete" tableValues="0 0"/><feFuncG type="discrete" tableValues="0 0"/><feFuncB type="discrete" tableValues="0 0"/><feFuncA type="linear" slope="0.4" intercept="0"/></feComponentTransfer><feGaussianBlur stdDeviation="0 0"/></filter><filter id="fx3" x="-10%" y="-10%" width="120%" height="120%" filterUnits="userSpaceOnUse" primitiveUnits="userSpaceOnUse"><feComponentTransfer color-interpolation-filters="sRGB"><feFuncR type="discrete" tableValues="0 0"/><feFuncG type="discrete" tableValues="0 0"/><feFuncB type="discrete" tableValues="0 0"/><feFuncA type="linear" slope="0.4" intercept="0"/></feComponentTransfer><feGaussianBlur stdDeviation="0 0"/></filter><clipPath id="clip4"><rect x="83" y="53" width="531" height="130"/></clipPath><clipPath id="clip5"><rect x="59" y="46" width="461" height="67"/></clipPath></defs><g><rect x="0" y="0" width="1280" height="720" fill="#F5E33F" fill-opacity="0"/><g clip-path="url(#clip4)" filter="url(#fx0)" transform="translate(31 185)"><g><path d="M19.684-42.028C14.896-25.802 8.512-8.911 3.857 1.862L21.413 11.172C26.467-2.394 31.255-17.689 35.378-32.452ZM34.713-66.101C29.792-69.293 20.083-74.214 13.965-77.14L2.926-63.175C9.31-59.451 18.886-53.998 23.275-50.54ZM64.372-47.88C63.308-20.349 61.978-10.108 60.116-7.448 58.919-5.719 57.855-5.32 56.259-5.32 54.53-5.32 52.136-5.32 49.21-5.719 54.53-18.221 57.19-32.585 58.653-47.88ZM116.109-48.146C121.562-53.599 126.882-60.249 131.005-66.234L119.7-74.347 116.375-73.416 95.893-73.416C96.957-75.81 97.888-78.204 98.952-80.864L129.542-80.864 129.542-99.085 104.139-99.085C104.937-102.809 105.735-106.533 106.267-110.39L87.913-113.449C86.716-104.405 84.721-95.361 81.795-87.514L81.795-95.76 62.377-95.76 72.086-99.883C70.091-104.139 66.367-110.523 63.042-115.444L45.22-108.794C47.481-104.937 50.141-99.883 52.003-95.76L35.644-95.76 39.368-100.814C34.447-104.139 24.605-109.326 18.221-112.385L7.182-98.553C13.699-94.829 23.408-88.977 27.797-85.386L34.447-94.297 34.447-77.539 42.56-77.539C42.028-48.146 41.097-18.886 25.669-0.399 30.324 2.527 35.644 7.98 38.437 12.369 42.693 7.182 46.151 1.197 48.944-5.187 51.471-0.399 52.934 6.517 53.333 11.571 58.387 11.571 62.909 11.438 65.968 10.773 69.692 9.975 72.352 8.512 75.145 4.522 79.002-0.665 80.465-17.157 82.061-58.121 82.194-60.249 82.327-65.303 82.327-65.303L59.85-65.303C59.983-69.426 60.116-73.416 60.249-77.539L77.273-77.539C76.342-75.81 75.278-74.347 74.214-72.884 77.938-71.155 84.056-67.83 88.179-65.17L88.179-56.791 102.676-56.791C101.213-55.195 99.75-53.732 98.287-52.402L98.287-41.496 83.125-41.496 83.125-24.339 98.287-24.339 98.287-6.65C98.287-5.187 97.755-4.788 96.026-4.788 94.297-4.788 88.312-4.788 83.524-5.054 85.652 0 87.913 7.315 88.445 12.502 97.356 12.502 104.139 12.236 109.459 9.443 114.912 6.65 116.109 1.862 116.109-6.384L116.109-24.339 129.941-24.339 129.941-41.496 116.109-41.496ZM256.757-95.095C252.9-100.016 244.92-107.996 239.733-113.582L225.901-103.474C231.088-97.356 238.669-88.844 241.994-83.657ZM194.779-19.285C191.188-25.802 185.602-33.782 179.218-42.294 185.336-58.254 189.459-76.475 191.853-96.558L179.484-100.681 176.292-100.016 138.387-100.016 138.387-83.125 170.972-83.125C169.509-75.278 167.647-67.564 165.12-60.116 159.933-66.766 154.613-73.15 149.958-78.869L136.924-67.697C143.308-59.584 150.49-50.141 157.406-40.831 151.421-28.728 144.106-18.487 135.328-11.571 139.983-8.113 146.234-0.665 149.293 4.123 157.406-3.192 164.322-12.236 170.041-22.477 174.164-16.359 177.622-10.507 180.016-5.586ZM242.792-65.968C238.802-56.525 233.216-47.215 226.3-38.703 224.837-45.885 223.773-54.264 222.975-63.574ZM242.925-66.101 261.412-68.362 259.151-85.652 221.778-81.263C221.379-91.105 221.246-101.745 221.246-112.917L201.03-112.917C201.296-100.681 201.562-89.376 202.227-78.869L189.991-77.406 192.252-59.717 203.424-61.047C204.754-45.752 206.749-32.718 209.808-22.078 202.36-15.827 194.247-10.773 185.469-7.049 190.922-3.325 197.04 2.66 200.764 7.315 206.616 4.256 212.202 0.532 217.655-3.857 223.64 5.453 231.62 10.906 242.526 12.236 250.24 12.901 258.752 7.315 262.609-19.817 258.885-21.679 250.107-27.265 246.383-31.521 245.585-17.689 244.388-11.571 241.595-11.97 238.403-12.635 235.743-14.896 233.349-18.62 243.723-30.058 252.501-43.358 258.22-56.791ZM321.33-58.786 321.33-61.579 321.33-88.312 348.063-88.312 348.063-58.786ZM394.48-58.786 368.412-58.786 368.412-88.312 390.756-88.312 390.756-106.533 276.376-106.533 276.376-88.312 301.38-88.312 301.38-61.712 301.38-58.786 272.253-58.786 272.253-40.299 299.651-40.299C296.725-25.935 289.41-11.97 271.455-1.197 276.376 1.995 283.824 8.911 287.282 13.3 309.626-0.798 317.473-20.615 320.133-40.299L348.063-40.299 348.063 12.768 368.412 12.768 368.412-40.299 394.48-40.299ZM434.048-70.091C433.117-59.983 431.521-50.673 429.26-42.294 427.531-43.89 425.802-45.486 423.94-47.082 425.669-54.264 427.398-61.978 428.861-70.091ZM441.363-88.046 438.171-87.78 431.92-87.78C433.25-95.893 434.314-104.006 435.112-111.72L416.891-112.784C416.359-104.804 415.428-96.292 414.231-87.78L404.389-87.78 404.389-70.091 411.305-70.091C409.443-59.318 407.049-49.21 404.788-41.23 410.374-36.176 416.625-30.324 422.61-24.206 417.689-14.63 411.305-7.315 403.059-2.793 406.783 0.798 411.704 7.847 414.231 12.502 423.009 6.65 430.058-0.665 435.511-9.975 438.437-6.384 440.964-3.059 442.826-0.133L454.264-15.96C451.737-19.684 448.013-23.94 443.757-28.462 448.811-43.89 451.471-63.042 452.402-86.716ZM532.069-57.19C528.212-68.096 519.434-83.524 510.257-95.228L494.829-87.514C497.888-83.391 500.947-78.603 503.873-73.682L478.204-71.953C484.987-82.726 491.77-95.627 496.691-108.395L476.475-113.582C471.554-97.223 463.042-80.332 459.983-75.943 456.924-71.288 454.663-68.628 451.471-67.697 453.599-62.776 456.658-53.599 457.722-49.875 463.308-52.136 470.49-52.934 512.252-56.924 513.582-53.732 514.646-50.806 515.444-48.279ZM504.405-27.398 504.405-9.443 476.076-9.443 476.076-27.398ZM458.653 12.502 476.076 12.502 476.076 7.448 504.405 7.448 504.405 12.502 522.759 12.502 522.759-44.289 458.653-44.289Z" transform="translate(80.8817 169)"/></g></g><text font-family="Source Han Sans SC Heavy,Source Han Sans SC Heavy_MSFontService,sans-serif" font-weight="900" font-size="133" transform="translate(106.225 348)">游戏开始</text><g filter="url(#fx1)" transform="translate(29 382)"><g><path d="M0.828426 26.8284 353.388 26.8285" stroke="#000000" stroke-width="2" stroke-miterlimit="8" fill="none" fill-rule="evenodd"/><path d="M52.8284 0.82843 52.8285 52.412" stroke="#000000" stroke-width="2" stroke-miterlimit="8" fill="none" fill-rule="evenodd"/></g></g><path d="M27 406 379.559 406" stroke="#000000" stroke-width="2.33333" stroke-miterlimit="8" fill="none" fill-rule="evenodd"/><path d="M79 380 79.0001 431.584" stroke="#000000" stroke-width="2.33333" stroke-miterlimit="8" fill="none" fill-rule="evenodd"/><g filter="url(#fx2)" transform="translate(14 167)"><g><path d="M24.2712 0.77124C24.2712 18.4444 34.7925 32.7712 47.7712 32.7712 34.7925 32.7712 24.2712 47.0981 24.2712 64.7712 24.2712 47.0981 13.7499 32.7712 0.771236 32.7712 13.7499 32.7712 24.2712 18.4444 24.2712 0.77124Z" fill-rule="evenodd"/></g></g><path d="M34.5 164C34.5 181.673 45.0213 196 58 196 45.0213 196 34.5 210.327 34.5 228 34.5 210.327 23.9787 196 11 196 23.9787 196 34.5 181.673 34.5 164Z" fill-rule="evenodd"/><g clip-path="url(#clip5)" filter="url(#fx3)" transform="translate(60 384)"><g><path d="M34.532 1.157C43.343 1.157 50.552-2.047 54.735-6.408L54.735-33.82 33.375-33.82 33.375-26.967 47.17-26.967 47.17-9.879C44.589-7.476 40.05-6.052 35.333-6.052 21.36-6.052 13.617-16.376 13.617-32.841 13.617-49.128 22.161-59.274 35.244-59.274 41.919-59.274 46.102-56.515 49.395-53.044L53.845-58.384C50.107-62.389 44.144-66.483 35.066-66.483 17.8-66.483 5.162-53.667 5.162-32.574 5.162-11.392 17.355 1.157 34.532 1.157ZM80.813 1.157C86.776 1.157 92.205-1.958 96.833-5.785L97.1-5.785 97.812 0 104.487 0 104.487-29.726C104.487-41.652 99.503-49.573 87.755-49.573 80.012-49.573 73.159-46.102 68.709-43.254L71.913-37.647C75.74-40.228 80.813-42.809 86.42-42.809 94.341-42.809 96.388-36.846 96.388-30.616 75.829-28.302 66.662-23.051 66.662-12.549 66.662-3.827 72.714 1.157 80.813 1.157ZM83.127-5.34C78.321-5.34 74.583-7.565 74.583-13.083 74.583-19.313 80.101-23.318 96.388-25.276L96.388-11.748C91.671-7.565 87.844-5.34 83.127-5.34ZM120.021 0 128.12 0 128.12-35.066C132.57-40.05 136.664-42.453 140.313-42.453 146.454-42.453 149.302-38.626 149.302-29.548L149.302 0 157.401 0 157.401-35.066C161.94-40.05 165.856-42.453 169.594-42.453 175.735-42.453 178.583-38.626 178.583-29.548L178.583 0 186.682 0 186.682-30.616C186.682-42.987 181.965-49.573 171.997-49.573 166.123-49.573 161.05-45.746 156.066-40.317 154.108-46.013 150.103-49.573 142.716-49.573 136.931-49.573 131.858-45.924 127.675-41.296L127.408-41.296 126.696-48.327 120.021-48.327ZM222.179 1.157C228.765 1.157 233.927-1.068 238.199-3.827L235.262-9.167C231.702-6.764 227.875-5.34 223.158-5.34 213.991-5.34 207.672-11.926 207.138-22.25L239.712-22.25C239.89-23.407 240.068-25.098 240.068-26.878 240.068-40.673 233.126-49.573 220.844-49.573 209.63-49.573 199.039-39.783 199.039-24.119 199.039-8.188 209.363 1.157 222.179 1.157ZM207.049-28.035C208.028-37.558 214.08-43.076 220.933-43.076 228.498-43.076 232.948-37.825 232.948-28.035ZM291.056 1.157C304.673 1.157 313.217-7.031 313.217-17.355 313.217-27.056 307.343-31.506 299.778-34.799L290.433-38.804C285.36-40.94 279.664-43.343 279.664-49.662 279.664-55.536 284.47-59.274 291.857-59.274 297.909-59.274 302.715-56.871 306.72-53.133L311.081-58.384C306.453-63.19 299.6-66.483 291.857-66.483 280.02-66.483 271.298-59.185 271.298-49.128 271.298-39.605 278.507-34.977 284.559-32.396L293.993-28.302C300.134-25.543 304.851-23.407 304.851-16.732 304.851-10.324 299.689-6.052 291.145-6.052 284.381-6.052 277.795-9.256 273.078-14.151L268.183-8.544C273.879-2.581 281.8 1.157 291.056 1.157ZM338.327 1.157C341.264 1.157 344.468 0.267 347.227-0.623L345.625-6.675C344.023-6.052 341.798-5.429 340.107-5.429 334.5-5.429 332.631-8.811 332.631-14.774L332.631-41.741 345.714-41.741 345.714-48.327 332.631-48.327 332.631-61.855 325.867-61.855 324.888-48.327 317.323-47.882 317.323-41.741 324.532-41.741 324.532-14.952C324.532-5.251 328.003 1.157 338.327 1.157ZM365.753 1.157C371.716 1.157 377.145-1.958 381.773-5.785L382.04-5.785 382.752 0 389.427 0 389.427-29.726C389.427-41.652 384.443-49.573 372.695-49.573 364.952-49.573 358.099-46.102 353.649-43.254L356.853-37.647C360.68-40.228 365.753-42.809 371.36-42.809 379.281-42.809 381.328-36.846 381.328-30.616 360.769-28.302 351.602-23.051 351.602-12.549 351.602-3.827 357.654 1.157 365.753 1.157ZM368.067-5.34C363.261-5.34 359.523-7.565 359.523-13.083 359.523-19.313 365.041-23.318 381.328-25.276L381.328-11.748C376.611-7.565 372.784-5.34 368.067-5.34ZM404.961 0 413.06 0 413.06-31.061C416.264-39.338 421.248-42.186 425.253-42.186 427.211-42.186 428.368-42.008 429.97-41.385L431.483-48.505C429.97-49.306 428.457-49.573 426.321-49.573 420.892-49.573 415.997-45.657 412.615-39.516L412.348-39.516 411.636-48.327 404.961-48.327ZM454.847 1.157C457.784 1.157 460.988 0.267 463.747-0.623L462.145-6.675C460.543-6.052 458.318-5.429 456.627-5.429 451.02-5.429 449.151-8.811 449.151-14.774L449.151-41.741 462.234-41.741 462.234-48.327 449.151-48.327 449.151-61.855 442.387-61.855 441.408-48.327 433.843-47.882 433.843-41.741 441.052-41.741 441.052-14.952C441.052-5.251 444.523 1.157 454.847 1.157Z" transform="translate(54.7096 112)"/></g></g><text font-family="Source Han Sans SC Regular,Source Han Sans SC Regular_MSFontService,sans-serif" font-weight="400" font-size="89" transform="translate(109.996 492)">Game Start</text></g></svg>